%TF.GenerationSoftware,KiCad,Pcbnew,9.0.2*%
%TF.CreationDate,2025-06-22T15:51:31+10:00*%
%TF.ProjectId,mixer,6d697865-722e-46b6-9963-61645f706362,rev?*%
%TF.SameCoordinates,Original*%
%TF.FileFunction,Copper,L3,Inr*%
%TF.FilePolarity,Positive*%
%FSLAX46Y46*%
G04 Gerber Fmt 4.6, Leading zero omitted, Abs format (unit mm)*
G04 Created by KiCad (PCBNEW 9.0.2) date 2025-06-22 15:51:31*
%MOMM*%
%LPD*%
G01*
G04 APERTURE LIST*
G04 Aperture macros list*
%AMRoundRect*
0 Rectangle with rounded corners*
0 $1 Rounding radius*
0 $2 $3 $4 $5 $6 $7 $8 $9 X,Y pos of 4 corners*
0 Add a 4 corners polygon primitive as box body*
4,1,4,$2,$3,$4,$5,$6,$7,$8,$9,$2,$3,0*
0 Add four circle primitives for the rounded corners*
1,1,$1+$1,$2,$3*
1,1,$1+$1,$4,$5*
1,1,$1+$1,$6,$7*
1,1,$1+$1,$8,$9*
0 Add four rect primitives between the rounded corners*
20,1,$1+$1,$2,$3,$4,$5,0*
20,1,$1+$1,$4,$5,$6,$7,0*
20,1,$1+$1,$6,$7,$8,$9,0*
20,1,$1+$1,$8,$9,$2,$3,0*%
G04 Aperture macros list end*
%TA.AperFunction,ComponentPad*%
%ADD10C,1.524000*%
%TD*%
%TA.AperFunction,ComponentPad*%
%ADD11R,2.032000X2.032000*%
%TD*%
%TA.AperFunction,ComponentPad*%
%ADD12C,2.032000*%
%TD*%
%TA.AperFunction,ComponentPad*%
%ADD13RoundRect,0.250000X-0.550000X-0.550000X0.550000X-0.550000X0.550000X0.550000X-0.550000X0.550000X0*%
%TD*%
%TA.AperFunction,ComponentPad*%
%ADD14C,1.600000*%
%TD*%
G04 APERTURE END LIST*
D10*
%TO.N,Net-(SW9-A)*%
%TO.C,SW9*%
X81000000Y-93250000D03*
%TO.N,Net-(SW9-B)*%
X91000000Y-93250000D03*
%TO.N,+5V*%
X86000000Y-93250000D03*
%TD*%
D11*
%TO.N,Net-(U6-SEG_C)*%
%TO.C,LowerLED1*%
X82130000Y-129677500D03*
D12*
%TO.N,Net-(U6-SEG_D)*%
X82130000Y-132217500D03*
%TO.N,Net-(U6-SEG_E)*%
X82130000Y-134757500D03*
%TO.N,Net-(U6-SEG_F)*%
X82130000Y-137297500D03*
%TO.N,Net-(U6-SEG_G)*%
X82130000Y-139837500D03*
%TO.N,Net-(U6-SEG_DP)*%
X82130000Y-142377500D03*
%TO.N,Net-(U6-SEG_A)*%
X82130000Y-144917500D03*
%TO.N,Net-(U6-SEG_B)*%
X82130000Y-147457500D03*
%TO.N,Net-(U6-SEG_C)*%
X82130000Y-149997500D03*
%TO.N,Net-(U6-SEG_D)*%
X82130000Y-152537500D03*
%TO.N,Net-(U6-DIG_2)*%
X89750000Y-152537500D03*
X89750000Y-149997500D03*
X89750000Y-147457500D03*
X89750000Y-144917500D03*
%TO.N,Net-(U6-DIG_1)*%
X89750000Y-142377500D03*
X89750000Y-139837500D03*
X89750000Y-137297500D03*
X89750000Y-134757500D03*
X89750000Y-132217500D03*
X89750000Y-129677500D03*
%TD*%
D10*
%TO.N,GND*%
%TO.C,oled1*%
X83000000Y-199500000D03*
%TO.N,+5V*%
X85000000Y-199500000D03*
%TO.N,Net-(U7-SC0)*%
X87000000Y-199500000D03*
%TO.N,Net-(U7-SD0)*%
X89000000Y-199500000D03*
%TD*%
D11*
%TO.N,Net-(U6-SEG_A)*%
%TO.C,UpperLED1*%
X82130000Y-103640000D03*
D12*
%TO.N,Net-(U6-SEG_B)*%
X82130000Y-106180000D03*
%TO.N,Net-(U6-SEG_C)*%
X82130000Y-108720000D03*
%TO.N,Net-(U6-SEG_D)*%
X82130000Y-111260000D03*
%TO.N,Net-(U6-SEG_E)*%
X82130000Y-113800000D03*
%TO.N,Net-(U6-SEG_F)*%
X82130000Y-116340000D03*
%TO.N,Net-(U6-SEG_G)*%
X82130000Y-118880000D03*
%TO.N,Net-(U6-SEG_DP)*%
X82130000Y-121420000D03*
%TO.N,Net-(U6-SEG_A)*%
X82130000Y-123960000D03*
%TO.N,Net-(U6-SEG_B)*%
X82130000Y-126500000D03*
%TO.N,Net-(U6-DIG_1)*%
X89750000Y-126500000D03*
X89750000Y-123960000D03*
%TO.N,Net-(U6-DIG_0)*%
X89750000Y-121420000D03*
X89750000Y-118880000D03*
X89750000Y-116340000D03*
X89750000Y-113800000D03*
X89750000Y-111260000D03*
X89750000Y-108720000D03*
X89750000Y-106180000D03*
X89750000Y-103640000D03*
%TD*%
D10*
%TO.N,GND*%
%TO.C,oled2*%
X111000000Y-199500000D03*
%TO.N,+5V*%
X113000000Y-199500000D03*
%TO.N,Net-(U7-SC1)*%
X115000000Y-199500000D03*
%TO.N,Net-(U7-SD1)*%
X117000000Y-199500000D03*
%TD*%
%TO.N,+5V*%
%TO.C,mute1*%
X89000000Y-183500000D03*
%TO.N,Net-(U4-GPB2)*%
X83000000Y-183500000D03*
%TO.N,Net-(U6-DIG_6)*%
X83000000Y-188500000D03*
%TO.N,Net-(U6-SEG_A)*%
X89000000Y-188500000D03*
%TO.N,N/C*%
X89000000Y-186000000D03*
X83000000Y-186000000D03*
%TD*%
D11*
%TO.N,Net-(U6-SEG_C)*%
%TO.C,LowerLED2*%
X109880000Y-129760000D03*
D12*
%TO.N,Net-(U6-SEG_D)*%
X109880000Y-132300000D03*
%TO.N,Net-(U6-SEG_E)*%
X109880000Y-134840000D03*
%TO.N,Net-(U6-SEG_F)*%
X109880000Y-137380000D03*
%TO.N,Net-(U6-SEG_G)*%
X109880000Y-139920000D03*
%TO.N,Net-(U6-SEG_DP)*%
X109880000Y-142460000D03*
%TO.N,Net-(U6-SEG_A)*%
X109880000Y-145000000D03*
%TO.N,Net-(U6-SEG_B)*%
X109880000Y-147540000D03*
%TO.N,Net-(U6-SEG_C)*%
X109880000Y-150080000D03*
%TO.N,Net-(U6-SEG_D)*%
X109880000Y-152620000D03*
%TO.N,Net-(U6-DIG_5)*%
X117500000Y-152620000D03*
X117500000Y-150080000D03*
X117500000Y-147540000D03*
X117500000Y-145000000D03*
%TO.N,Net-(U6-DIG_4)*%
X117500000Y-142460000D03*
X117500000Y-139920000D03*
X117500000Y-137380000D03*
X117500000Y-134840000D03*
X117500000Y-132300000D03*
X117500000Y-129760000D03*
%TD*%
D10*
%TO.N,Net-(SW10-A)*%
%TO.C,SW10*%
X108750000Y-93000000D03*
%TO.N,Net-(SW10-B)*%
X118750000Y-93000000D03*
%TO.N,+5V*%
X113750000Y-93000000D03*
%TD*%
%TO.N,+5V*%
%TO.C,solo2*%
X116750000Y-161750000D03*
%TO.N,Net-(U4-GPB5)*%
X110750000Y-161750000D03*
%TO.N,Net-(U6-DIG_6)*%
X110750000Y-166750000D03*
%TO.N,Net-(U6-SEG_D)*%
X116750000Y-166750000D03*
%TO.N,N/C*%
X116750000Y-164250000D03*
X110750000Y-164250000D03*
%TD*%
D11*
%TO.N,Net-(U6-SEG_A)*%
%TO.C,UpperLED2*%
X109880000Y-103680000D03*
D12*
%TO.N,Net-(U6-SEG_B)*%
X109880000Y-106220000D03*
%TO.N,Net-(U6-SEG_C)*%
X109880000Y-108760000D03*
%TO.N,Net-(U6-SEG_D)*%
X109880000Y-111300000D03*
%TO.N,Net-(U6-SEG_E)*%
X109880000Y-113840000D03*
%TO.N,Net-(U6-SEG_F)*%
X109880000Y-116380000D03*
%TO.N,Net-(U6-SEG_G)*%
X109880000Y-118920000D03*
%TO.N,Net-(U6-SEG_DP)*%
X109880000Y-121460000D03*
%TO.N,Net-(U6-SEG_A)*%
X109880000Y-124000000D03*
%TO.N,Net-(U6-SEG_B)*%
X109880000Y-126540000D03*
%TO.N,Net-(U6-DIG_4)*%
X117500000Y-126540000D03*
X117500000Y-124000000D03*
%TO.N,Net-(U6-DIG_3)*%
X117500000Y-121460000D03*
X117500000Y-118920000D03*
X117500000Y-116380000D03*
X117500000Y-113840000D03*
X117500000Y-111300000D03*
X117500000Y-108760000D03*
X117500000Y-106220000D03*
X117500000Y-103680000D03*
%TD*%
D10*
%TO.N,+5V*%
%TO.C,mute2*%
X117000000Y-183500000D03*
%TO.N,Net-(U4-GPB3)*%
X111000000Y-183500000D03*
%TO.N,Net-(U6-DIG_6)*%
X111000000Y-188500000D03*
%TO.N,Net-(U6-SEG_C)*%
X117000000Y-188500000D03*
%TO.N,N/C*%
X117000000Y-186000000D03*
X111000000Y-186000000D03*
%TD*%
%TO.N,+5V*%
%TO.C,solo1*%
X89000000Y-161750000D03*
%TO.N,Net-(U4-GPB4)*%
X83000000Y-161750000D03*
%TO.N,Net-(U6-DIG_6)*%
X83000000Y-166750000D03*
%TO.N,Net-(U6-SEG_B)*%
X89000000Y-166750000D03*
%TO.N,N/C*%
X89000000Y-164250000D03*
X83000000Y-164250000D03*
%TD*%
D13*
%TO.N,Net-(U4-GPB0)*%
%TO.C,U4*%
X95880000Y-189110000D03*
D14*
%TO.N,Net-(U4-GPB1)*%
X95880000Y-186570000D03*
%TO.N,Net-(U4-GPB2)*%
X95880000Y-184030000D03*
%TO.N,Net-(U4-GPB3)*%
X95880000Y-181490000D03*
%TO.N,Net-(U4-GPB4)*%
X95880000Y-178950000D03*
%TO.N,Net-(U4-GPB5)*%
X95880000Y-176410000D03*
%TO.N,Net-(SW9-A)*%
X95880000Y-173870000D03*
%TO.N,Net-(SW9-B)*%
X95880000Y-171330000D03*
%TO.N,+5V*%
X95880000Y-168790000D03*
%TO.N,Earth*%
X95880000Y-166250000D03*
%TO.N,unconnected-(U4-NC-Pad11)*%
X95880000Y-163710000D03*
%TO.N,Net-(J3-Pin_1)*%
X95880000Y-161170000D03*
%TO.N,Net-(J1-Pin_1)*%
X95880000Y-158630000D03*
%TO.N,unconnected-(U4-NC-Pad14)*%
X95880000Y-156090000D03*
%TO.N,unconnected-(U4-A0-Pad15)*%
X103500000Y-156090000D03*
%TO.N,unconnected-(U4-A1-Pad16)*%
X103500000Y-158630000D03*
%TO.N,unconnected-(U4-A2-Pad17)*%
X103500000Y-161170000D03*
%TO.N,unconnected-(U4-~{RESET}-Pad18)*%
X103500000Y-163710000D03*
%TO.N,unconnected-(U4-INTB-Pad19)*%
X103500000Y-166250000D03*
%TO.N,unconnected-(U4-INTA-Pad20)*%
X103500000Y-168790000D03*
%TO.N,Net-(SW10-A)*%
X103500000Y-171330000D03*
%TO.N,Net-(SW10-B)*%
X103500000Y-173870000D03*
%TO.N,unconnected-(U4-GPA2-Pad23)*%
X103500000Y-176410000D03*
%TO.N,unconnected-(U4-GPA3-Pad24)*%
X103500000Y-178950000D03*
%TO.N,unconnected-(U4-GPA4-Pad25)*%
X103500000Y-181490000D03*
%TO.N,unconnected-(U4-GPA5-Pad26)*%
X103500000Y-184030000D03*
%TO.N,unconnected-(U4-GPA6-Pad27)*%
X103500000Y-186570000D03*
%TO.N,unconnected-(U4-GPA7-Pad28)*%
X103500000Y-189110000D03*
%TD*%
D13*
%TO.N,Net-(U4-GPB1)*%
%TO.C,U6*%
X95750000Y-131530000D03*
D14*
%TO.N,Net-(U6-DIG_0)*%
X95750000Y-128990000D03*
%TO.N,Net-(U6-DIG_4)*%
X95750000Y-126450000D03*
%TO.N,Earth*%
X95750000Y-123910000D03*
%TO.N,Net-(U6-DIG_6)*%
X95750000Y-121370000D03*
%TO.N,Net-(U6-DIG_2)*%
X95750000Y-118830000D03*
%TO.N,Net-(U6-DIG_3)*%
X95750000Y-116290000D03*
%TO.N,unconnected-(U6-DIG_7-Pad8)*%
X95750000Y-113750000D03*
%TO.N,Earth*%
X95750000Y-111210000D03*
%TO.N,Net-(U6-DIG_5)*%
X95750000Y-108670000D03*
%TO.N,Net-(U6-DIG_1)*%
X95750000Y-106130000D03*
%TO.N,unconnected-(U6-LOAD-Pad12)*%
X95750000Y-103590000D03*
%TO.N,Net-(U4-GPB0)*%
X103370000Y-103590000D03*
%TO.N,Net-(U6-SEG_A)*%
X103370000Y-106130000D03*
%TO.N,Net-(U6-SEG_F)*%
X103370000Y-108670000D03*
%TO.N,Net-(U6-SEG_B)*%
X103370000Y-111210000D03*
%TO.N,Net-(U6-SEG_G)*%
X103370000Y-113750000D03*
%TO.N,unconnected-(U6-ISET-Pad18)*%
X103370000Y-116290000D03*
%TO.N,+5V*%
X103370000Y-118830000D03*
%TO.N,Net-(U6-SEG_C)*%
X103370000Y-121370000D03*
%TO.N,Net-(U6-SEG_E)*%
X103370000Y-123910000D03*
%TO.N,Net-(U6-SEG_DP)*%
X103370000Y-126450000D03*
%TO.N,Net-(U6-SEG_D)*%
X103370000Y-128990000D03*
%TO.N,unconnected-(U6-DOUT-Pad24)*%
X103370000Y-131530000D03*
%TD*%
M02*
