%TF.GenerationSoftware,KiCad,Pcbnew,8.0.6*%
%TF.CreationDate,2024-12-09T18:37:17+11:00*%
%TF.ProjectId,mixer,6d697865-722e-46b6-9963-61645f706362,rev?*%
%TF.SameCoordinates,Original*%
%TF.FileFunction,Legend,Bot*%
%TF.FilePolarity,Positive*%
%FSLAX46Y46*%
G04 Gerber Fmt 4.6, Leading zero omitted, Abs format (unit mm)*
G04 Created by KiCad (PCBNEW 8.0.6) date 2024-12-09 18:37:17*
%MOMM*%
%LPD*%
G01*
G04 APERTURE LIST*
%ADD10C,0.150000*%
%ADD11C,0.120000*%
G04 APERTURE END LIST*
D10*
X250149819Y-189098095D02*
X250959342Y-189098095D01*
X250959342Y-189098095D02*
X251054580Y-189145714D01*
X251054580Y-189145714D02*
X251102200Y-189193333D01*
X251102200Y-189193333D02*
X251149819Y-189288571D01*
X251149819Y-189288571D02*
X251149819Y-189479047D01*
X251149819Y-189479047D02*
X251102200Y-189574285D01*
X251102200Y-189574285D02*
X251054580Y-189621904D01*
X251054580Y-189621904D02*
X250959342Y-189669523D01*
X250959342Y-189669523D02*
X250149819Y-189669523D01*
X250483152Y-190574285D02*
X251149819Y-190574285D01*
X250102200Y-190336190D02*
X250816485Y-190098095D01*
X250816485Y-190098095D02*
X250816485Y-190717142D01*
X79844819Y-188621905D02*
X80654342Y-188621905D01*
X80654342Y-188621905D02*
X80749580Y-188669524D01*
X80749580Y-188669524D02*
X80797200Y-188717143D01*
X80797200Y-188717143D02*
X80844819Y-188812381D01*
X80844819Y-188812381D02*
X80844819Y-189002857D01*
X80844819Y-189002857D02*
X80797200Y-189098095D01*
X80797200Y-189098095D02*
X80749580Y-189145714D01*
X80749580Y-189145714D02*
X80654342Y-189193333D01*
X80654342Y-189193333D02*
X79844819Y-189193333D01*
X80844819Y-190193333D02*
X80844819Y-189621905D01*
X80844819Y-189907619D02*
X79844819Y-189907619D01*
X79844819Y-189907619D02*
X79987676Y-189812381D01*
X79987676Y-189812381D02*
X80082914Y-189717143D01*
X80082914Y-189717143D02*
X80130533Y-189621905D01*
X79844819Y-190812381D02*
X79844819Y-190907619D01*
X79844819Y-190907619D02*
X79892438Y-191002857D01*
X79892438Y-191002857D02*
X79940057Y-191050476D01*
X79940057Y-191050476D02*
X80035295Y-191098095D01*
X80035295Y-191098095D02*
X80225771Y-191145714D01*
X80225771Y-191145714D02*
X80463866Y-191145714D01*
X80463866Y-191145714D02*
X80654342Y-191098095D01*
X80654342Y-191098095D02*
X80749580Y-191050476D01*
X80749580Y-191050476D02*
X80797200Y-191002857D01*
X80797200Y-191002857D02*
X80844819Y-190907619D01*
X80844819Y-190907619D02*
X80844819Y-190812381D01*
X80844819Y-190812381D02*
X80797200Y-190717143D01*
X80797200Y-190717143D02*
X80749580Y-190669524D01*
X80749580Y-190669524D02*
X80654342Y-190621905D01*
X80654342Y-190621905D02*
X80463866Y-190574286D01*
X80463866Y-190574286D02*
X80225771Y-190574286D01*
X80225771Y-190574286D02*
X80035295Y-190621905D01*
X80035295Y-190621905D02*
X79940057Y-190669524D01*
X79940057Y-190669524D02*
X79892438Y-190717143D01*
X79892438Y-190717143D02*
X79844819Y-190812381D01*
X166259819Y-188511905D02*
X167069342Y-188511905D01*
X167069342Y-188511905D02*
X167164580Y-188559524D01*
X167164580Y-188559524D02*
X167212200Y-188607143D01*
X167212200Y-188607143D02*
X167259819Y-188702381D01*
X167259819Y-188702381D02*
X167259819Y-188892857D01*
X167259819Y-188892857D02*
X167212200Y-188988095D01*
X167212200Y-188988095D02*
X167164580Y-189035714D01*
X167164580Y-189035714D02*
X167069342Y-189083333D01*
X167069342Y-189083333D02*
X166259819Y-189083333D01*
X167259819Y-190083333D02*
X167259819Y-189511905D01*
X167259819Y-189797619D02*
X166259819Y-189797619D01*
X166259819Y-189797619D02*
X166402676Y-189702381D01*
X166402676Y-189702381D02*
X166497914Y-189607143D01*
X166497914Y-189607143D02*
X166545533Y-189511905D01*
X167259819Y-191035714D02*
X167259819Y-190464286D01*
X167259819Y-190750000D02*
X166259819Y-190750000D01*
X166259819Y-190750000D02*
X166402676Y-190654762D01*
X166402676Y-190654762D02*
X166497914Y-190559524D01*
X166497914Y-190559524D02*
X166545533Y-190464286D01*
X209414819Y-188811905D02*
X210224342Y-188811905D01*
X210224342Y-188811905D02*
X210319580Y-188859524D01*
X210319580Y-188859524D02*
X210367200Y-188907143D01*
X210367200Y-188907143D02*
X210414819Y-189002381D01*
X210414819Y-189002381D02*
X210414819Y-189192857D01*
X210414819Y-189192857D02*
X210367200Y-189288095D01*
X210367200Y-189288095D02*
X210319580Y-189335714D01*
X210319580Y-189335714D02*
X210224342Y-189383333D01*
X210224342Y-189383333D02*
X209414819Y-189383333D01*
X210414819Y-190383333D02*
X210414819Y-189811905D01*
X210414819Y-190097619D02*
X209414819Y-190097619D01*
X209414819Y-190097619D02*
X209557676Y-190002381D01*
X209557676Y-190002381D02*
X209652914Y-189907143D01*
X209652914Y-189907143D02*
X209700533Y-189811905D01*
X209510057Y-190764286D02*
X209462438Y-190811905D01*
X209462438Y-190811905D02*
X209414819Y-190907143D01*
X209414819Y-190907143D02*
X209414819Y-191145238D01*
X209414819Y-191145238D02*
X209462438Y-191240476D01*
X209462438Y-191240476D02*
X209510057Y-191288095D01*
X209510057Y-191288095D02*
X209605295Y-191335714D01*
X209605295Y-191335714D02*
X209700533Y-191335714D01*
X209700533Y-191335714D02*
X209843390Y-191288095D01*
X209843390Y-191288095D02*
X210414819Y-190716667D01*
X210414819Y-190716667D02*
X210414819Y-191335714D01*
X122724819Y-189098095D02*
X123534342Y-189098095D01*
X123534342Y-189098095D02*
X123629580Y-189145714D01*
X123629580Y-189145714D02*
X123677200Y-189193333D01*
X123677200Y-189193333D02*
X123724819Y-189288571D01*
X123724819Y-189288571D02*
X123724819Y-189479047D01*
X123724819Y-189479047D02*
X123677200Y-189574285D01*
X123677200Y-189574285D02*
X123629580Y-189621904D01*
X123629580Y-189621904D02*
X123534342Y-189669523D01*
X123534342Y-189669523D02*
X122724819Y-189669523D01*
X123724819Y-190193333D02*
X123724819Y-190383809D01*
X123724819Y-190383809D02*
X123677200Y-190479047D01*
X123677200Y-190479047D02*
X123629580Y-190526666D01*
X123629580Y-190526666D02*
X123486723Y-190621904D01*
X123486723Y-190621904D02*
X123296247Y-190669523D01*
X123296247Y-190669523D02*
X122915295Y-190669523D01*
X122915295Y-190669523D02*
X122820057Y-190621904D01*
X122820057Y-190621904D02*
X122772438Y-190574285D01*
X122772438Y-190574285D02*
X122724819Y-190479047D01*
X122724819Y-190479047D02*
X122724819Y-190288571D01*
X122724819Y-190288571D02*
X122772438Y-190193333D01*
X122772438Y-190193333D02*
X122820057Y-190145714D01*
X122820057Y-190145714D02*
X122915295Y-190098095D01*
X122915295Y-190098095D02*
X123153390Y-190098095D01*
X123153390Y-190098095D02*
X123248628Y-190145714D01*
X123248628Y-190145714D02*
X123296247Y-190193333D01*
X123296247Y-190193333D02*
X123343866Y-190288571D01*
X123343866Y-190288571D02*
X123343866Y-190479047D01*
X123343866Y-190479047D02*
X123296247Y-190574285D01*
X123296247Y-190574285D02*
X123248628Y-190621904D01*
X123248628Y-190621904D02*
X123153390Y-190669523D01*
D11*
%TO.C,U4*%
X251635000Y-184720000D02*
X251635000Y-195000000D01*
X251635000Y-195000000D02*
X282355000Y-195000000D01*
X251695000Y-187210000D02*
X251695000Y-188860000D01*
X251695000Y-190860000D02*
X251695000Y-192510000D01*
X251695000Y-192510000D02*
X282295000Y-192510000D01*
X282295000Y-187210000D02*
X251695000Y-187210000D01*
X282295000Y-192510000D02*
X282295000Y-187210000D01*
X282355000Y-184720000D02*
X251635000Y-184720000D01*
X282355000Y-195000000D02*
X282355000Y-184720000D01*
X251695000Y-188860000D02*
G75*
G02*
X251695000Y-190860000I0J-1000000D01*
G01*
%TO.C,U10*%
X81330000Y-184720000D02*
X81330000Y-195000000D01*
X81330000Y-195000000D02*
X112050000Y-195000000D01*
X81390000Y-187210000D02*
X81390000Y-188860000D01*
X81390000Y-190860000D02*
X81390000Y-192510000D01*
X81390000Y-192510000D02*
X111990000Y-192510000D01*
X111990000Y-187210000D02*
X81390000Y-187210000D01*
X111990000Y-192510000D02*
X111990000Y-187210000D01*
X112050000Y-184720000D02*
X81330000Y-184720000D01*
X112050000Y-195000000D02*
X112050000Y-184720000D01*
X81390000Y-188860000D02*
G75*
G02*
X81390000Y-190860000I0J-1000000D01*
G01*
%TO.C,U11*%
X167635000Y-184670000D02*
X167635000Y-194950000D01*
X167635000Y-194950000D02*
X198355000Y-194950000D01*
X167695000Y-187160000D02*
X167695000Y-188810000D01*
X167695000Y-190810000D02*
X167695000Y-192460000D01*
X167695000Y-192460000D02*
X198295000Y-192460000D01*
X198295000Y-187160000D02*
X167695000Y-187160000D01*
X198295000Y-192460000D02*
X198295000Y-187160000D01*
X198355000Y-184670000D02*
X167635000Y-184670000D01*
X198355000Y-194950000D02*
X198355000Y-184670000D01*
X167695000Y-188810000D02*
G75*
G02*
X167695000Y-190810000I0J-1000000D01*
G01*
%TO.C,U12*%
X210790000Y-184720000D02*
X210790000Y-195000000D01*
X210790000Y-195000000D02*
X241510000Y-195000000D01*
X210850000Y-187210000D02*
X210850000Y-188860000D01*
X210850000Y-190860000D02*
X210850000Y-192510000D01*
X210850000Y-192510000D02*
X241450000Y-192510000D01*
X241450000Y-187210000D02*
X210850000Y-187210000D01*
X241450000Y-192510000D02*
X241450000Y-187210000D01*
X241510000Y-184720000D02*
X210790000Y-184720000D01*
X241510000Y-195000000D02*
X241510000Y-184720000D01*
X210850000Y-188860000D02*
G75*
G02*
X210850000Y-190860000I0J-1000000D01*
G01*
%TO.C,U9*%
X124210000Y-184720000D02*
X124210000Y-195000000D01*
X124210000Y-195000000D02*
X154930000Y-195000000D01*
X124270000Y-187210000D02*
X124270000Y-188860000D01*
X124270000Y-190860000D02*
X124270000Y-192510000D01*
X124270000Y-192510000D02*
X154870000Y-192510000D01*
X154870000Y-187210000D02*
X124270000Y-187210000D01*
X154870000Y-192510000D02*
X154870000Y-187210000D01*
X154930000Y-184720000D02*
X124210000Y-184720000D01*
X154930000Y-195000000D02*
X154930000Y-184720000D01*
X124270000Y-188860000D02*
G75*
G02*
X124270000Y-190860000I0J-1000000D01*
G01*
%TD*%
M02*
