%TF.GenerationSoftware,KiCad,Pcbnew,9.0.2*%
%TF.CreationDate,2025-06-22T15:51:31+10:00*%
%TF.ProjectId,mixer,6d697865-722e-46b6-9963-61645f706362,rev?*%
%TF.SameCoordinates,Original*%
%TF.FileFunction,Copper,L4,Bot*%
%TF.FilePolarity,Positive*%
%FSLAX46Y46*%
G04 Gerber Fmt 4.6, Leading zero omitted, Abs format (unit mm)*
G04 Created by KiCad (PCBNEW 9.0.2) date 2025-06-22 15:51:31*
%MOMM*%
%LPD*%
G01*
G04 APERTURE LIST*
G04 Aperture macros list*
%AMRoundRect*
0 Rectangle with rounded corners*
0 $1 Rounding radius*
0 $2 $3 $4 $5 $6 $7 $8 $9 X,Y pos of 4 corners*
0 Add a 4 corners polygon primitive as box body*
4,1,4,$2,$3,$4,$5,$6,$7,$8,$9,$2,$3,0*
0 Add four circle primitives for the rounded corners*
1,1,$1+$1,$2,$3*
1,1,$1+$1,$4,$5*
1,1,$1+$1,$6,$7*
1,1,$1+$1,$8,$9*
0 Add four rect primitives between the rounded corners*
20,1,$1+$1,$2,$3,$4,$5,0*
20,1,$1+$1,$4,$5,$6,$7,0*
20,1,$1+$1,$6,$7,$8,$9,0*
20,1,$1+$1,$8,$9,$2,$3,0*%
G04 Aperture macros list end*
%TA.AperFunction,ComponentPad*%
%ADD10C,1.524000*%
%TD*%
%TA.AperFunction,ComponentPad*%
%ADD11R,2.032000X2.032000*%
%TD*%
%TA.AperFunction,ComponentPad*%
%ADD12C,2.032000*%
%TD*%
%TA.AperFunction,ComponentPad*%
%ADD13RoundRect,0.250000X-0.550000X-0.550000X0.550000X-0.550000X0.550000X0.550000X-0.550000X0.550000X0*%
%TD*%
%TA.AperFunction,ComponentPad*%
%ADD14C,1.600000*%
%TD*%
%TA.AperFunction,Conductor*%
%ADD15C,0.200000*%
%TD*%
G04 APERTURE END LIST*
D10*
%TO.P,SW9,1,A*%
%TO.N,Net-(SW9-A)*%
X81000000Y-93250000D03*
%TO.P,SW9,2,B*%
%TO.N,Net-(SW9-B)*%
X91000000Y-93250000D03*
%TO.P,SW9,3,C*%
%TO.N,+5V*%
X86000000Y-93250000D03*
%TD*%
D11*
%TO.P,LowerLED1,1,A*%
%TO.N,Net-(U6-SEG_C)*%
X82130000Y-129677500D03*
D12*
%TO.P,LowerLED1,2,A*%
%TO.N,Net-(U6-SEG_D)*%
X82130000Y-132217500D03*
%TO.P,LowerLED1,3,A*%
%TO.N,Net-(U6-SEG_E)*%
X82130000Y-134757500D03*
%TO.P,LowerLED1,4,A*%
%TO.N,Net-(U6-SEG_F)*%
X82130000Y-137297500D03*
%TO.P,LowerLED1,5,A*%
%TO.N,Net-(U6-SEG_G)*%
X82130000Y-139837500D03*
%TO.P,LowerLED1,6,A*%
%TO.N,Net-(U6-SEG_DP)*%
X82130000Y-142377500D03*
%TO.P,LowerLED1,7,A*%
%TO.N,Net-(U6-SEG_A)*%
X82130000Y-144917500D03*
%TO.P,LowerLED1,8,A*%
%TO.N,Net-(U6-SEG_B)*%
X82130000Y-147457500D03*
%TO.P,LowerLED1,9,A*%
%TO.N,Net-(U6-SEG_C)*%
X82130000Y-149997500D03*
%TO.P,LowerLED1,10,A*%
%TO.N,Net-(U6-SEG_D)*%
X82130000Y-152537500D03*
%TO.P,LowerLED1,11,K*%
%TO.N,Net-(U6-DIG_2)*%
X89750000Y-152537500D03*
%TO.P,LowerLED1,12,K*%
X89750000Y-149997500D03*
%TO.P,LowerLED1,13,K*%
X89750000Y-147457500D03*
%TO.P,LowerLED1,14,K*%
X89750000Y-144917500D03*
%TO.P,LowerLED1,15,K*%
%TO.N,Net-(U6-DIG_1)*%
X89750000Y-142377500D03*
%TO.P,LowerLED1,16,K*%
X89750000Y-139837500D03*
%TO.P,LowerLED1,17,K*%
X89750000Y-137297500D03*
%TO.P,LowerLED1,18,K*%
X89750000Y-134757500D03*
%TO.P,LowerLED1,19,K*%
X89750000Y-132217500D03*
%TO.P,LowerLED1,20,K*%
X89750000Y-129677500D03*
%TD*%
D10*
%TO.P,oled1,1,GND*%
%TO.N,GND*%
X83000000Y-199500000D03*
%TO.P,oled1,2,VCC*%
%TO.N,+5V*%
X85000000Y-199500000D03*
%TO.P,oled1,3,SCL*%
%TO.N,Net-(U7-SC0)*%
X87000000Y-199500000D03*
%TO.P,oled1,4,SCA*%
%TO.N,Net-(U7-SD0)*%
X89000000Y-199500000D03*
%TD*%
D11*
%TO.P,UpperLED1,1,A*%
%TO.N,Net-(U6-SEG_A)*%
X82130000Y-103640000D03*
D12*
%TO.P,UpperLED1,2,A*%
%TO.N,Net-(U6-SEG_B)*%
X82130000Y-106180000D03*
%TO.P,UpperLED1,3,A*%
%TO.N,Net-(U6-SEG_C)*%
X82130000Y-108720000D03*
%TO.P,UpperLED1,4,A*%
%TO.N,Net-(U6-SEG_D)*%
X82130000Y-111260000D03*
%TO.P,UpperLED1,5,A*%
%TO.N,Net-(U6-SEG_E)*%
X82130000Y-113800000D03*
%TO.P,UpperLED1,6,A*%
%TO.N,Net-(U6-SEG_F)*%
X82130000Y-116340000D03*
%TO.P,UpperLED1,7,A*%
%TO.N,Net-(U6-SEG_G)*%
X82130000Y-118880000D03*
%TO.P,UpperLED1,8,A*%
%TO.N,Net-(U6-SEG_DP)*%
X82130000Y-121420000D03*
%TO.P,UpperLED1,9,A*%
%TO.N,Net-(U6-SEG_A)*%
X82130000Y-123960000D03*
%TO.P,UpperLED1,10,A*%
%TO.N,Net-(U6-SEG_B)*%
X82130000Y-126500000D03*
%TO.P,UpperLED1,11,K*%
%TO.N,Net-(U6-DIG_1)*%
X89750000Y-126500000D03*
%TO.P,UpperLED1,12,K*%
X89750000Y-123960000D03*
%TO.P,UpperLED1,13,K*%
%TO.N,Net-(U6-DIG_0)*%
X89750000Y-121420000D03*
%TO.P,UpperLED1,14,K*%
X89750000Y-118880000D03*
%TO.P,UpperLED1,15,K*%
X89750000Y-116340000D03*
%TO.P,UpperLED1,16,K*%
X89750000Y-113800000D03*
%TO.P,UpperLED1,17,K*%
X89750000Y-111260000D03*
%TO.P,UpperLED1,18,K*%
X89750000Y-108720000D03*
%TO.P,UpperLED1,19,K*%
X89750000Y-106180000D03*
%TO.P,UpperLED1,20,K*%
X89750000Y-103640000D03*
%TD*%
D10*
%TO.P,oled2,1,GND*%
%TO.N,GND*%
X111000000Y-199500000D03*
%TO.P,oled2,2,VCC*%
%TO.N,+5V*%
X113000000Y-199500000D03*
%TO.P,oled2,3,SCL*%
%TO.N,Net-(U7-SC1)*%
X115000000Y-199500000D03*
%TO.P,oled2,4,SCA*%
%TO.N,Net-(U7-SD1)*%
X117000000Y-199500000D03*
%TD*%
%TO.P,mute1,1,1*%
%TO.N,+5V*%
X89000000Y-183500000D03*
%TO.P,mute1,2,2*%
%TO.N,Net-(U4-GPB2)*%
X83000000Y-183500000D03*
%TO.P,mute1,3,K*%
%TO.N,Net-(U6-DIG_6)*%
X83000000Y-188500000D03*
%TO.P,mute1,4,A*%
%TO.N,Net-(U6-SEG_A)*%
X89000000Y-188500000D03*
%TO.P,mute1,5*%
%TO.N,N/C*%
X89000000Y-186000000D03*
%TO.P,mute1,6*%
X83000000Y-186000000D03*
%TD*%
D11*
%TO.P,LowerLED2,1,A*%
%TO.N,Net-(U6-SEG_C)*%
X109880000Y-129760000D03*
D12*
%TO.P,LowerLED2,2,A*%
%TO.N,Net-(U6-SEG_D)*%
X109880000Y-132300000D03*
%TO.P,LowerLED2,3,A*%
%TO.N,Net-(U6-SEG_E)*%
X109880000Y-134840000D03*
%TO.P,LowerLED2,4,A*%
%TO.N,Net-(U6-SEG_F)*%
X109880000Y-137380000D03*
%TO.P,LowerLED2,5,A*%
%TO.N,Net-(U6-SEG_G)*%
X109880000Y-139920000D03*
%TO.P,LowerLED2,6,A*%
%TO.N,Net-(U6-SEG_DP)*%
X109880000Y-142460000D03*
%TO.P,LowerLED2,7,A*%
%TO.N,Net-(U6-SEG_A)*%
X109880000Y-145000000D03*
%TO.P,LowerLED2,8,A*%
%TO.N,Net-(U6-SEG_B)*%
X109880000Y-147540000D03*
%TO.P,LowerLED2,9,A*%
%TO.N,Net-(U6-SEG_C)*%
X109880000Y-150080000D03*
%TO.P,LowerLED2,10,A*%
%TO.N,Net-(U6-SEG_D)*%
X109880000Y-152620000D03*
%TO.P,LowerLED2,11,K*%
%TO.N,Net-(U6-DIG_5)*%
X117500000Y-152620000D03*
%TO.P,LowerLED2,12,K*%
X117500000Y-150080000D03*
%TO.P,LowerLED2,13,K*%
X117500000Y-147540000D03*
%TO.P,LowerLED2,14,K*%
X117500000Y-145000000D03*
%TO.P,LowerLED2,15,K*%
%TO.N,Net-(U6-DIG_4)*%
X117500000Y-142460000D03*
%TO.P,LowerLED2,16,K*%
X117500000Y-139920000D03*
%TO.P,LowerLED2,17,K*%
X117500000Y-137380000D03*
%TO.P,LowerLED2,18,K*%
X117500000Y-134840000D03*
%TO.P,LowerLED2,19,K*%
X117500000Y-132300000D03*
%TO.P,LowerLED2,20,K*%
X117500000Y-129760000D03*
%TD*%
D10*
%TO.P,SW10,1,A*%
%TO.N,Net-(SW10-A)*%
X108750000Y-93000000D03*
%TO.P,SW10,2,B*%
%TO.N,Net-(SW10-B)*%
X118750000Y-93000000D03*
%TO.P,SW10,3,C*%
%TO.N,+5V*%
X113750000Y-93000000D03*
%TD*%
%TO.P,solo2,1,1*%
%TO.N,+5V*%
X116750000Y-161750000D03*
%TO.P,solo2,2,2*%
%TO.N,Net-(U4-GPB5)*%
X110750000Y-161750000D03*
%TO.P,solo2,3,K*%
%TO.N,Net-(U6-DIG_6)*%
X110750000Y-166750000D03*
%TO.P,solo2,4,A*%
%TO.N,Net-(U6-SEG_D)*%
X116750000Y-166750000D03*
%TO.P,solo2,5*%
%TO.N,N/C*%
X116750000Y-164250000D03*
%TO.P,solo2,6*%
X110750000Y-164250000D03*
%TD*%
D11*
%TO.P,UpperLED2,1,A*%
%TO.N,Net-(U6-SEG_A)*%
X109880000Y-103680000D03*
D12*
%TO.P,UpperLED2,2,A*%
%TO.N,Net-(U6-SEG_B)*%
X109880000Y-106220000D03*
%TO.P,UpperLED2,3,A*%
%TO.N,Net-(U6-SEG_C)*%
X109880000Y-108760000D03*
%TO.P,UpperLED2,4,A*%
%TO.N,Net-(U6-SEG_D)*%
X109880000Y-111300000D03*
%TO.P,UpperLED2,5,A*%
%TO.N,Net-(U6-SEG_E)*%
X109880000Y-113840000D03*
%TO.P,UpperLED2,6,A*%
%TO.N,Net-(U6-SEG_F)*%
X109880000Y-116380000D03*
%TO.P,UpperLED2,7,A*%
%TO.N,Net-(U6-SEG_G)*%
X109880000Y-118920000D03*
%TO.P,UpperLED2,8,A*%
%TO.N,Net-(U6-SEG_DP)*%
X109880000Y-121460000D03*
%TO.P,UpperLED2,9,A*%
%TO.N,Net-(U6-SEG_A)*%
X109880000Y-124000000D03*
%TO.P,UpperLED2,10,A*%
%TO.N,Net-(U6-SEG_B)*%
X109880000Y-126540000D03*
%TO.P,UpperLED2,11,K*%
%TO.N,Net-(U6-DIG_4)*%
X117500000Y-126540000D03*
%TO.P,UpperLED2,12,K*%
X117500000Y-124000000D03*
%TO.P,UpperLED2,13,K*%
%TO.N,Net-(U6-DIG_3)*%
X117500000Y-121460000D03*
%TO.P,UpperLED2,14,K*%
X117500000Y-118920000D03*
%TO.P,UpperLED2,15,K*%
X117500000Y-116380000D03*
%TO.P,UpperLED2,16,K*%
X117500000Y-113840000D03*
%TO.P,UpperLED2,17,K*%
X117500000Y-111300000D03*
%TO.P,UpperLED2,18,K*%
X117500000Y-108760000D03*
%TO.P,UpperLED2,19,K*%
X117500000Y-106220000D03*
%TO.P,UpperLED2,20,K*%
X117500000Y-103680000D03*
%TD*%
D10*
%TO.P,mute2,1,1*%
%TO.N,+5V*%
X117000000Y-183500000D03*
%TO.P,mute2,2,2*%
%TO.N,Net-(U4-GPB3)*%
X111000000Y-183500000D03*
%TO.P,mute2,3,K*%
%TO.N,Net-(U6-DIG_6)*%
X111000000Y-188500000D03*
%TO.P,mute2,4,A*%
%TO.N,Net-(U6-SEG_C)*%
X117000000Y-188500000D03*
%TO.P,mute2,5*%
%TO.N,N/C*%
X117000000Y-186000000D03*
%TO.P,mute2,6*%
X111000000Y-186000000D03*
%TD*%
%TO.P,solo1,1,1*%
%TO.N,+5V*%
X89000000Y-161750000D03*
%TO.P,solo1,2,2*%
%TO.N,Net-(U4-GPB4)*%
X83000000Y-161750000D03*
%TO.P,solo1,3,K*%
%TO.N,Net-(U6-DIG_6)*%
X83000000Y-166750000D03*
%TO.P,solo1,4,A*%
%TO.N,Net-(U6-SEG_B)*%
X89000000Y-166750000D03*
%TO.P,solo1,5*%
%TO.N,N/C*%
X89000000Y-164250000D03*
%TO.P,solo1,6*%
X83000000Y-164250000D03*
%TD*%
D13*
%TO.P,U4,1,GPB0*%
%TO.N,Net-(U4-GPB0)*%
X95880000Y-189110000D03*
D14*
%TO.P,U4,2,GPB1*%
%TO.N,Net-(U4-GPB1)*%
X95880000Y-186570000D03*
%TO.P,U4,3,GPB2*%
%TO.N,Net-(U4-GPB2)*%
X95880000Y-184030000D03*
%TO.P,U4,4,GPB3*%
%TO.N,Net-(U4-GPB3)*%
X95880000Y-181490000D03*
%TO.P,U4,5,GPB4*%
%TO.N,Net-(U4-GPB4)*%
X95880000Y-178950000D03*
%TO.P,U4,6,GPB5*%
%TO.N,Net-(U4-GPB5)*%
X95880000Y-176410000D03*
%TO.P,U4,7,GPB6*%
%TO.N,Net-(SW9-A)*%
X95880000Y-173870000D03*
%TO.P,U4,8,GPB7*%
%TO.N,Net-(SW9-B)*%
X95880000Y-171330000D03*
%TO.P,U4,9,VDD*%
%TO.N,+5V*%
X95880000Y-168790000D03*
%TO.P,U4,10,VSS*%
%TO.N,Earth*%
X95880000Y-166250000D03*
%TO.P,U4,11,NC*%
%TO.N,unconnected-(U4-NC-Pad11)*%
X95880000Y-163710000D03*
%TO.P,U4,12,SCK*%
%TO.N,Net-(J3-Pin_1)*%
X95880000Y-161170000D03*
%TO.P,U4,13,SDA*%
%TO.N,Net-(J1-Pin_1)*%
X95880000Y-158630000D03*
%TO.P,U4,14,NC*%
%TO.N,unconnected-(U4-NC-Pad14)*%
X95880000Y-156090000D03*
%TO.P,U4,15,A0*%
%TO.N,unconnected-(U4-A0-Pad15)*%
X103500000Y-156090000D03*
%TO.P,U4,16,A1*%
%TO.N,unconnected-(U4-A1-Pad16)*%
X103500000Y-158630000D03*
%TO.P,U4,17,A2*%
%TO.N,unconnected-(U4-A2-Pad17)*%
X103500000Y-161170000D03*
%TO.P,U4,18,~{RESET}*%
%TO.N,unconnected-(U4-~{RESET}-Pad18)*%
X103500000Y-163710000D03*
%TO.P,U4,19,INTB*%
%TO.N,unconnected-(U4-INTB-Pad19)*%
X103500000Y-166250000D03*
%TO.P,U4,20,INTA*%
%TO.N,unconnected-(U4-INTA-Pad20)*%
X103500000Y-168790000D03*
%TO.P,U4,21,GPA0*%
%TO.N,Net-(SW10-A)*%
X103500000Y-171330000D03*
%TO.P,U4,22,GPA1*%
%TO.N,Net-(SW10-B)*%
X103500000Y-173870000D03*
%TO.P,U4,23,GPA2*%
%TO.N,unconnected-(U4-GPA2-Pad23)*%
X103500000Y-176410000D03*
%TO.P,U4,24,GPA3*%
%TO.N,unconnected-(U4-GPA3-Pad24)*%
X103500000Y-178950000D03*
%TO.P,U4,25,GPA4*%
%TO.N,unconnected-(U4-GPA4-Pad25)*%
X103500000Y-181490000D03*
%TO.P,U4,26,GPA5*%
%TO.N,unconnected-(U4-GPA5-Pad26)*%
X103500000Y-184030000D03*
%TO.P,U4,27,GPA6*%
%TO.N,unconnected-(U4-GPA6-Pad27)*%
X103500000Y-186570000D03*
%TO.P,U4,28,GPA7*%
%TO.N,unconnected-(U4-GPA7-Pad28)*%
X103500000Y-189110000D03*
%TD*%
D13*
%TO.P,U6,1,DIN*%
%TO.N,Net-(U4-GPB1)*%
X95750000Y-131530000D03*
D14*
%TO.P,U6,2,DIG_0*%
%TO.N,Net-(U6-DIG_0)*%
X95750000Y-128990000D03*
%TO.P,U6,3,DIG_4*%
%TO.N,Net-(U6-DIG_4)*%
X95750000Y-126450000D03*
%TO.P,U6,4,GND*%
%TO.N,Earth*%
X95750000Y-123910000D03*
%TO.P,U6,5,DIG_6*%
%TO.N,Net-(U6-DIG_6)*%
X95750000Y-121370000D03*
%TO.P,U6,6,DIG_2*%
%TO.N,Net-(U6-DIG_2)*%
X95750000Y-118830000D03*
%TO.P,U6,7,DIG_3*%
%TO.N,Net-(U6-DIG_3)*%
X95750000Y-116290000D03*
%TO.P,U6,8,DIG_7*%
%TO.N,unconnected-(U6-DIG_7-Pad8)*%
X95750000Y-113750000D03*
%TO.P,U6,9,GND*%
%TO.N,Earth*%
X95750000Y-111210000D03*
%TO.P,U6,10,DIG_5*%
%TO.N,Net-(U6-DIG_5)*%
X95750000Y-108670000D03*
%TO.P,U6,11,DIG_1*%
%TO.N,Net-(U6-DIG_1)*%
X95750000Y-106130000D03*
%TO.P,U6,12,LOAD*%
%TO.N,unconnected-(U6-LOAD-Pad12)*%
X95750000Y-103590000D03*
%TO.P,U6,13,CLK*%
%TO.N,Net-(U4-GPB0)*%
X103370000Y-103590000D03*
%TO.P,U6,14,SEG_A*%
%TO.N,Net-(U6-SEG_A)*%
X103370000Y-106130000D03*
%TO.P,U6,15,SEG_F*%
%TO.N,Net-(U6-SEG_F)*%
X103370000Y-108670000D03*
%TO.P,U6,16,SEG_B*%
%TO.N,Net-(U6-SEG_B)*%
X103370000Y-111210000D03*
%TO.P,U6,17,SEG_G*%
%TO.N,Net-(U6-SEG_G)*%
X103370000Y-113750000D03*
%TO.P,U6,18,ISET*%
%TO.N,unconnected-(U6-ISET-Pad18)*%
X103370000Y-116290000D03*
%TO.P,U6,19,V+*%
%TO.N,+5V*%
X103370000Y-118830000D03*
%TO.P,U6,20,SEG_C*%
%TO.N,Net-(U6-SEG_C)*%
X103370000Y-121370000D03*
%TO.P,U6,21,SEG_E*%
%TO.N,Net-(U6-SEG_E)*%
X103370000Y-123910000D03*
%TO.P,U6,22,SEG_DP*%
%TO.N,Net-(U6-SEG_DP)*%
X103370000Y-126450000D03*
%TO.P,U6,23,SEG_D*%
%TO.N,Net-(U6-SEG_D)*%
X103370000Y-128990000D03*
%TO.P,U6,24,DOUT*%
%TO.N,unconnected-(U6-DOUT-Pad24)*%
X103370000Y-131530000D03*
%TD*%
D15*
%TO.N,Net-(U6-DIG_2)*%
X89750000Y-144917500D02*
X96951000Y-137716500D01*
X96951000Y-137716500D02*
X96951000Y-128492529D01*
X96951000Y-128492529D02*
X96247471Y-127789000D01*
X94250000Y-126781480D02*
X94250000Y-120330000D01*
X96247471Y-127789000D02*
X95257520Y-127789000D01*
X95257520Y-127789000D02*
X94250000Y-126781480D01*
X94250000Y-120330000D02*
X95750000Y-118830000D01*
%TO.N,Net-(U6-DIG_1)*%
X89750000Y-123960000D02*
X88000000Y-122210000D01*
X88000000Y-122210000D02*
X88000000Y-102500000D01*
X88000000Y-102500000D02*
X88500000Y-102000000D01*
X94000000Y-104380000D02*
X95750000Y-106130000D01*
X88500000Y-102000000D02*
X93500000Y-102000000D01*
X93500000Y-102000000D02*
X94000000Y-102500000D01*
X94000000Y-102500000D02*
X94000000Y-104380000D01*
%TO.N,Net-(U6-DIG_5)*%
X117500000Y-145000000D02*
X119500000Y-143000000D01*
X115528520Y-101000000D02*
X115527520Y-100999000D01*
X96951000Y-107469000D02*
X95750000Y-108670000D01*
X119500000Y-143000000D02*
X119500000Y-103000000D01*
X119500000Y-103000000D02*
X117500000Y-101000000D01*
X117500000Y-101000000D02*
X115528520Y-101000000D01*
X98582959Y-101000000D02*
X98500000Y-101000000D01*
X115527520Y-100999000D02*
X114916042Y-100999000D01*
X114916042Y-100999000D02*
X114915040Y-100998000D01*
X114915040Y-100998000D02*
X98584960Y-100998000D01*
X98584960Y-100998000D02*
X98582959Y-101000000D01*
X98500000Y-101000000D02*
X96951000Y-102549000D01*
X96951000Y-102549000D02*
X96951000Y-107469000D01*
%TO.N,Net-(U6-DIG_3)*%
X117500000Y-103680000D02*
X115320000Y-101500000D01*
X114707521Y-101499000D02*
X98792480Y-101499000D01*
X115320000Y-101500000D02*
X114708520Y-101500000D01*
X97500000Y-102791480D02*
X97500000Y-114540000D01*
X114708520Y-101500000D02*
X114707521Y-101499000D01*
X98792480Y-101499000D02*
X97500000Y-102791480D01*
X97500000Y-114540000D02*
X95750000Y-116290000D01*
%TO.N,Net-(U6-DIG_4)*%
X117500000Y-124000000D02*
X115500000Y-122000000D01*
X115500000Y-122000000D02*
X115500000Y-103000000D01*
X115500000Y-103000000D02*
X114500000Y-102000000D01*
X114500000Y-102000000D02*
X99000000Y-102000000D01*
X99000000Y-102000000D02*
X98001000Y-102999000D01*
X98001000Y-102999000D02*
X98001000Y-124199000D01*
X98001000Y-124199000D02*
X95750000Y-126450000D01*
%TO.N,Net-(U6-DIG_0)*%
X89750000Y-121420000D02*
X89750000Y-122543000D01*
X89750000Y-122543000D02*
X90336941Y-122543000D01*
X90336941Y-122543000D02*
X91167000Y-123373059D01*
X91167000Y-123373059D02*
X91167000Y-124407000D01*
X91167000Y-124407000D02*
X95750000Y-128990000D01*
%TO.N,Net-(U6-DIG_2)*%
X89750000Y-144917500D02*
X89750000Y-152537500D01*
%TO.N,Net-(U6-DIG_1)*%
X89750000Y-123960000D02*
X89750000Y-142377500D01*
%TO.N,Net-(U6-DIG_0)*%
X89750000Y-103640000D02*
X89750000Y-121420000D01*
%TO.N,Net-(U6-DIG_4)*%
X117500000Y-142460000D02*
X117500000Y-124000000D01*
%TO.N,Net-(U6-DIG_3)*%
X117500000Y-103680000D02*
X117500000Y-121460000D01*
%TO.N,Net-(U6-DIG_5)*%
X117500000Y-152620000D02*
X117500000Y-145000000D01*
%TD*%
M02*
