%TF.GenerationSoftware,KiCad,Pcbnew,8.0.6*%
%TF.CreationDate,2024-12-09T18:37:17+11:00*%
%TF.ProjectId,mixer,6d697865-722e-46b6-9963-61645f706362,rev?*%
%TF.SameCoordinates,Original*%
%TF.FileFunction,Copper,L3,Inr*%
%TF.FilePolarity,Positive*%
%FSLAX46Y46*%
G04 Gerber Fmt 4.6, Leading zero omitted, Abs format (unit mm)*
G04 Created by KiCad (PCBNEW 8.0.6) date 2024-12-09 18:37:17*
%MOMM*%
%LPD*%
G01*
G04 APERTURE LIST*
%TA.AperFunction,ComponentPad*%
%ADD10C,1.524000*%
%TD*%
%TA.AperFunction,ComponentPad*%
%ADD11R,2.032000X2.032000*%
%TD*%
%TA.AperFunction,ComponentPad*%
%ADD12C,2.032000*%
%TD*%
%TA.AperFunction,ComponentPad*%
%ADD13C,1.600000*%
%TD*%
%TA.AperFunction,ComponentPad*%
%ADD14O,1.600000X1.600000*%
%TD*%
%TA.AperFunction,ComponentPad*%
%ADD15R,1.700000X1.700000*%
%TD*%
%TA.AperFunction,ComponentPad*%
%ADD16O,1.700000X1.700000*%
%TD*%
%TA.AperFunction,ComponentPad*%
%ADD17R,1.600000X1.600000*%
%TD*%
%TA.AperFunction,ViaPad*%
%ADD18C,0.600000*%
%TD*%
%TA.AperFunction,Conductor*%
%ADD19C,0.200000*%
%TD*%
G04 APERTURE END LIST*
D10*
%TO.N,Net-(U6-I3)*%
%TO.C,solo4*%
X172000000Y-136420000D03*
%TO.N,GND*%
X166000000Y-136420000D03*
%TO.N,Net-(U4-SEG_D)*%
X166000000Y-141420000D03*
%TO.N,Net-(U4-DIG_1)*%
X172000000Y-141420000D03*
%TO.N,N/C*%
X172000000Y-138920000D03*
X166000000Y-138920000D03*
%TD*%
%TO.N,Net-(SW4-C)*%
%TO.C,SW4*%
X174500000Y-64170000D03*
%TO.N,Net-(SW4-B)*%
X174500000Y-54170000D03*
%TO.N,GND*%
X174500000Y-59170000D03*
%TD*%
%TO.N,Net-(U6-I6)*%
%TO.C,solo7*%
X256000000Y-136420000D03*
%TO.N,GND*%
X250000000Y-136420000D03*
%TO.N,Net-(U4-SEG_G)*%
X250000000Y-141420000D03*
%TO.N,Net-(U4-DIG_1)*%
X256000000Y-141420000D03*
%TO.N,N/C*%
X256000000Y-138920000D03*
X250000000Y-138920000D03*
%TD*%
%TO.N,GND*%
%TO.C,oled7*%
X250000000Y-174420000D03*
%TO.N,+5V*%
X252000000Y-174420000D03*
%TO.N,Net-(U7-SC6)*%
X254000000Y-174420000D03*
%TO.N,Net-(U7-SD6)*%
X256000000Y-174420000D03*
%TD*%
%TO.N,Net-(U6-I4)*%
%TO.C,solo5*%
X200000000Y-136420000D03*
%TO.N,GND*%
X194000000Y-136420000D03*
%TO.N,Net-(U4-SEG_E)*%
X194000000Y-141420000D03*
%TO.N,Net-(U4-DIG_1)*%
X200000000Y-141420000D03*
%TO.N,N/C*%
X200000000Y-138920000D03*
X194000000Y-138920000D03*
%TD*%
%TO.N,Net-(SW7-C)*%
%TO.C,SW7*%
X258500000Y-64170000D03*
%TO.N,Net-(SW7-B)*%
X258500000Y-54170000D03*
%TO.N,GND*%
X258500000Y-59170000D03*
%TD*%
D11*
%TO.N,Net-(U9-DIG_7)*%
%TO.C,BAR14*%
X221297500Y-101420000D03*
D12*
X221297500Y-103960000D03*
X221297500Y-106500000D03*
X221297500Y-109040000D03*
X221297500Y-111580000D03*
%TO.N,Net-(U10-DIG_7)*%
X221297500Y-114120000D03*
X221297500Y-116660000D03*
X221297500Y-119200000D03*
X221297500Y-121740000D03*
X221297500Y-124280000D03*
%TO.N,Net-(U10-SEG_E)*%
X228917500Y-124280000D03*
%TO.N,Net-(U10-SEG_D)*%
X228917500Y-121740000D03*
%TO.N,Net-(U10-SEG_C)*%
X228917500Y-119200000D03*
%TO.N,Net-(U10-SEG_B)*%
X228917500Y-116660000D03*
%TO.N,Net-(U10-SEG_A)*%
X228917500Y-114120000D03*
%TO.N,Net-(U9-SEG_E)*%
X228917500Y-111580000D03*
%TO.N,Net-(U9-SEG_D)*%
X228917500Y-109040000D03*
%TO.N,Net-(U9-SEG_C)*%
X228917500Y-106500000D03*
%TO.N,Net-(U9-SEG_B)*%
X228917500Y-103960000D03*
%TO.N,Net-(U9-SEG_A)*%
X228917500Y-101420000D03*
%TD*%
D11*
%TO.N,Net-(U9-DIG_4)*%
%TO.C,BAR10*%
X109297500Y-101420000D03*
D12*
X109297500Y-103960000D03*
X109297500Y-106500000D03*
X109297500Y-109040000D03*
X109297500Y-111580000D03*
%TO.N,Net-(U10-DIG_4)*%
X109297500Y-114120000D03*
X109297500Y-116660000D03*
X109297500Y-119200000D03*
X109297500Y-121740000D03*
X109297500Y-124280000D03*
%TO.N,Net-(U10-SEG_E)*%
X116917500Y-124280000D03*
%TO.N,Net-(U10-SEG_D)*%
X116917500Y-121740000D03*
%TO.N,Net-(U10-SEG_C)*%
X116917500Y-119200000D03*
%TO.N,Net-(U10-SEG_B)*%
X116917500Y-116660000D03*
%TO.N,Net-(U10-SEG_A)*%
X116917500Y-114120000D03*
%TO.N,Net-(U9-SEG_E)*%
X116917500Y-111580000D03*
%TO.N,Net-(U9-SEG_D)*%
X116917500Y-109040000D03*
%TO.N,Net-(U9-SEG_C)*%
X116917500Y-106500000D03*
%TO.N,Net-(U9-SEG_B)*%
X116917500Y-103960000D03*
%TO.N,Net-(U9-SEG_A)*%
X116917500Y-101420000D03*
%TD*%
D10*
%TO.N,Net-(SW8-B)*%
%TO.C,SW8*%
X286500000Y-64170000D03*
%TO.N,Net-(SW8-A)*%
X286500000Y-54170000D03*
%TO.N,GND*%
X286500000Y-59170000D03*
%TD*%
%TO.N,GND*%
%TO.C,oled3*%
X138000000Y-174420000D03*
%TO.N,+5V*%
X140000000Y-174420000D03*
%TO.N,Net-(U7-SC2)*%
X142000000Y-174420000D03*
%TO.N,Net-(U7-SD2)*%
X144000000Y-174420000D03*
%TD*%
%TO.N,GND*%
%TO.C,oled8*%
X278000000Y-174420000D03*
%TO.N,+5V*%
X280000000Y-174420000D03*
%TO.N,Net-(U7-SC7)*%
X282000000Y-174420000D03*
%TO.N,Net-(U7-SD7)*%
X284000000Y-174420000D03*
%TD*%
%TO.N,GND*%
%TO.C,oled1*%
X82000000Y-174420000D03*
%TO.N,+5V*%
X84000000Y-174420000D03*
%TO.N,Net-(U7-SC0)*%
X86000000Y-174420000D03*
%TO.N,Net-(U7-SD0)*%
X88000000Y-174420000D03*
%TD*%
%TO.N,Net-(SW5-A)*%
%TO.C,SW5*%
X202500000Y-64170000D03*
%TO.N,Net-(SW5-C)*%
X202500000Y-54170000D03*
%TO.N,GND*%
X202500000Y-59170000D03*
%TD*%
%TO.N,Net-(U6-I8)*%
%TO.C,mute9*%
X88000000Y-155920000D03*
%TO.N,GND*%
X82000000Y-155920000D03*
%TO.N,Net-(U4-SEG_A)*%
X82000000Y-160920000D03*
%TO.N,Net-(U4-DIG_0)*%
X88000000Y-160920000D03*
%TO.N,N/C*%
X88000000Y-158420000D03*
X82000000Y-158420000D03*
%TD*%
%TO.N,Net-(U6-I11)*%
%TO.C,mute12*%
X172000000Y-155920000D03*
%TO.N,GND*%
X166000000Y-155920000D03*
%TO.N,Net-(U4-SEG_D)*%
X166000000Y-160920000D03*
%TO.N,Net-(U4-DIG_0)*%
X172000000Y-160920000D03*
%TO.N,N/C*%
X172000000Y-158420000D03*
X166000000Y-158420000D03*
%TD*%
D11*
%TO.N,Net-(U9-DIG_1)*%
%TO.C,BAR16*%
X277297500Y-101420000D03*
D12*
X277297500Y-103960000D03*
X277297500Y-106500000D03*
X277297500Y-109040000D03*
X277297500Y-111580000D03*
%TO.N,Net-(U10-DIG_1)*%
X277297500Y-114120000D03*
X277297500Y-116660000D03*
X277297500Y-119200000D03*
X277297500Y-121740000D03*
X277297500Y-124280000D03*
%TO.N,Net-(U10-SEG_E)*%
X284917500Y-124280000D03*
%TO.N,Net-(U10-SEG_D)*%
X284917500Y-121740000D03*
%TO.N,Net-(U10-SEG_C)*%
X284917500Y-119200000D03*
%TO.N,Net-(U10-SEG_B)*%
X284917500Y-116660000D03*
%TO.N,Net-(U10-SEG_A)*%
X284917500Y-114120000D03*
%TO.N,Net-(U9-SEG_E)*%
X284917500Y-111580000D03*
%TO.N,Net-(U9-SEG_D)*%
X284917500Y-109040000D03*
%TO.N,Net-(U9-SEG_C)*%
X284917500Y-106500000D03*
%TO.N,Net-(U9-SEG_B)*%
X284917500Y-103960000D03*
%TO.N,Net-(U9-SEG_A)*%
X284917500Y-101420000D03*
%TD*%
D13*
%TO.N,GND*%
%TO.C,C1*%
X300670000Y-96750000D03*
D14*
%TO.N,+5V*%
X308170000Y-96750000D03*
%TD*%
D13*
%TO.N,GND*%
%TO.C,C2*%
X314000000Y-78750000D03*
D14*
%TO.N,+5V*%
X321500000Y-78750000D03*
%TD*%
D10*
%TO.N,Net-(U6-I7)*%
%TO.C,solo8*%
X284000000Y-136420000D03*
%TO.N,GND*%
X278000000Y-136420000D03*
%TO.N,Net-(U4-SEG_DP)*%
X278000000Y-141420000D03*
%TO.N,Net-(U4-DIG_1)*%
X284000000Y-141420000D03*
%TO.N,N/C*%
X284000000Y-138920000D03*
X278000000Y-138920000D03*
%TD*%
%TO.N,GND*%
%TO.C,oled6*%
X222000000Y-174420000D03*
%TO.N,+5V*%
X224000000Y-174420000D03*
%TO.N,Net-(U7-SC5)*%
X226000000Y-174420000D03*
%TO.N,Net-(U7-SD5)*%
X228000000Y-174420000D03*
%TD*%
D11*
%TO.N,Net-(U9-DIG_0)*%
%TO.C,BAR9*%
X81297500Y-101420000D03*
D12*
X81297500Y-103960000D03*
X81297500Y-106500000D03*
X81297500Y-109040000D03*
X81297500Y-111580000D03*
%TO.N,Net-(U10-DIG_0)*%
X81297500Y-114120000D03*
X81297500Y-116660000D03*
X81297500Y-119200000D03*
X81297500Y-121740000D03*
X81297500Y-124280000D03*
%TO.N,Net-(U10-SEG_E)*%
X88917500Y-124280000D03*
%TO.N,Net-(U10-SEG_D)*%
X88917500Y-121740000D03*
%TO.N,Net-(U10-SEG_C)*%
X88917500Y-119200000D03*
%TO.N,Net-(U10-SEG_B)*%
X88917500Y-116660000D03*
%TO.N,Net-(U10-SEG_A)*%
X88917500Y-114120000D03*
%TO.N,Net-(U9-SEG_E)*%
X88917500Y-111580000D03*
%TO.N,Net-(U9-SEG_D)*%
X88917500Y-109040000D03*
%TO.N,Net-(U9-SEG_C)*%
X88917500Y-106500000D03*
%TO.N,Net-(U9-SEG_B)*%
X88917500Y-103960000D03*
%TO.N,Net-(U9-SEG_A)*%
X88917500Y-101420000D03*
%TD*%
D11*
%TO.N,Net-(U9-DIG_5)*%
%TO.C,BAR15*%
X249297500Y-101420000D03*
D12*
X249297500Y-103960000D03*
X249297500Y-106500000D03*
X249297500Y-109040000D03*
X249297500Y-111580000D03*
%TO.N,Net-(U10-DIG_5)*%
X249297500Y-114120000D03*
X249297500Y-116660000D03*
X249297500Y-119200000D03*
X249297500Y-121740000D03*
X249297500Y-124280000D03*
%TO.N,Net-(U10-SEG_E)*%
X256917500Y-124280000D03*
%TO.N,Net-(U10-SEG_D)*%
X256917500Y-121740000D03*
%TO.N,Net-(U10-SEG_C)*%
X256917500Y-119200000D03*
%TO.N,Net-(U10-SEG_B)*%
X256917500Y-116660000D03*
%TO.N,Net-(U10-SEG_A)*%
X256917500Y-114120000D03*
%TO.N,Net-(U9-SEG_E)*%
X256917500Y-111580000D03*
%TO.N,Net-(U9-SEG_D)*%
X256917500Y-109040000D03*
%TO.N,Net-(U9-SEG_C)*%
X256917500Y-106500000D03*
%TO.N,Net-(U9-SEG_B)*%
X256917500Y-103960000D03*
%TO.N,Net-(U9-SEG_A)*%
X256917500Y-101420000D03*
%TD*%
D10*
%TO.N,GND*%
%TO.C,oled2*%
X110000000Y-174420000D03*
%TO.N,+5V*%
X112000000Y-174420000D03*
%TO.N,Net-(U7-SC1)*%
X114000000Y-174420000D03*
%TO.N,Net-(U7-SD1)*%
X116000000Y-174420000D03*
%TD*%
D11*
%TO.N,Net-(U9-DIG_6)*%
%TO.C,BAR11*%
X137297500Y-101420000D03*
D12*
X137297500Y-103960000D03*
X137297500Y-106500000D03*
X137297500Y-109040000D03*
X137297500Y-111580000D03*
%TO.N,Net-(U10-DIG_6)*%
X137297500Y-114120000D03*
X137297500Y-116660000D03*
X137297500Y-119200000D03*
X137297500Y-121740000D03*
X137297500Y-124280000D03*
%TO.N,Net-(U10-SEG_E)*%
X144917500Y-124280000D03*
%TO.N,Net-(U10-SEG_D)*%
X144917500Y-121740000D03*
%TO.N,Net-(U10-SEG_C)*%
X144917500Y-119200000D03*
%TO.N,Net-(U10-SEG_B)*%
X144917500Y-116660000D03*
%TO.N,Net-(U10-SEG_A)*%
X144917500Y-114120000D03*
%TO.N,Net-(U9-SEG_E)*%
X144917500Y-111580000D03*
%TO.N,Net-(U9-SEG_D)*%
X144917500Y-109040000D03*
%TO.N,Net-(U9-SEG_C)*%
X144917500Y-106500000D03*
%TO.N,Net-(U9-SEG_B)*%
X144917500Y-103960000D03*
%TO.N,Net-(U9-SEG_A)*%
X144917500Y-101420000D03*
%TD*%
D15*
%TO.N,/display/SDA*%
%TO.C, 111*%
X314250000Y-176170000D03*
D16*
%TO.N,unconnected-( 111-Pad2)*%
X314250000Y-178710000D03*
%TO.N,unconnected-( 111-Pad3)*%
X314250000Y-181250000D03*
%TO.N,unconnected-( 111-Pad4)*%
X314250000Y-183790000D03*
%TO.N,unconnected-( 111-Pad5)*%
X314250000Y-186330000D03*
%TO.N,unconnected-( 111-Pad6)*%
X314250000Y-188870000D03*
%TO.N,unconnected-( 111-Pad7)*%
X314250000Y-191410000D03*
%TO.N,unconnected-( 111-Pad8)*%
X314250000Y-193950000D03*
%TO.N,unconnected-( 111-Pad9)*%
X314250000Y-196490000D03*
%TO.N,unconnected-( 111-Pad10)*%
X314250000Y-199030000D03*
%TD*%
D11*
%TO.N,Net-(U11-DIG_2)*%
%TO.C,BAR4*%
X165297500Y-75420000D03*
D12*
X165297500Y-77960000D03*
X165297500Y-80500000D03*
X165297500Y-83040000D03*
X165297500Y-85580000D03*
%TO.N,Net-(U12-DIG_2)*%
X165297500Y-88120000D03*
X165297500Y-90660000D03*
X165297500Y-93200000D03*
X165297500Y-95740000D03*
X165297500Y-98280000D03*
%TO.N,Net-(U12-SEG_E)*%
X172917500Y-98280000D03*
%TO.N,Net-(U12-SEG_D)*%
X172917500Y-95740000D03*
%TO.N,Net-(U12-SEG_C)*%
X172917500Y-93200000D03*
%TO.N,Net-(U12-SEG_B)*%
X172917500Y-90660000D03*
%TO.N,Net-(U12-SEG_A)*%
X172917500Y-88120000D03*
%TO.N,Net-(U11-SEG_E)*%
X172917500Y-85580000D03*
%TO.N,Net-(U11-SEG_D)*%
X172917500Y-83040000D03*
%TO.N,Net-(U11-SEG_C)*%
X172917500Y-80500000D03*
%TO.N,Net-(U11-SEG_B)*%
X172917500Y-77960000D03*
%TO.N,Net-(U11-SEG_A)*%
X172917500Y-75420000D03*
%TD*%
D10*
%TO.N,Net-(SW3-A)*%
%TO.C,SW3*%
X146500000Y-64170000D03*
%TO.N,Net-(SW3-B)*%
X146500000Y-54170000D03*
%TO.N,GND*%
X146500000Y-59170000D03*
%TD*%
D13*
%TO.N,GND*%
%TO.C,R1*%
X146170000Y-204500000D03*
D14*
%TO.N,Net-(U9-ISET)*%
X156330000Y-204500000D03*
%TD*%
D11*
%TO.N,Net-(U9-DIG_2)*%
%TO.C,BAR12*%
X165297500Y-101420000D03*
D12*
X165297500Y-103960000D03*
X165297500Y-106500000D03*
X165297500Y-109040000D03*
X165297500Y-111580000D03*
%TO.N,Net-(U10-DIG_2)*%
X165297500Y-114120000D03*
X165297500Y-116660000D03*
X165297500Y-119200000D03*
X165297500Y-121740000D03*
X165297500Y-124280000D03*
%TO.N,Net-(U10-SEG_E)*%
X172917500Y-124280000D03*
%TO.N,Net-(U10-SEG_D)*%
X172917500Y-121740000D03*
%TO.N,Net-(U10-SEG_C)*%
X172917500Y-119200000D03*
%TO.N,Net-(U10-SEG_B)*%
X172917500Y-116660000D03*
%TO.N,Net-(U10-SEG_A)*%
X172917500Y-114120000D03*
%TO.N,Net-(U9-SEG_E)*%
X172917500Y-111580000D03*
%TO.N,Net-(U9-SEG_D)*%
X172917500Y-109040000D03*
%TO.N,Net-(U9-SEG_C)*%
X172917500Y-106500000D03*
%TO.N,Net-(U9-SEG_B)*%
X172917500Y-103960000D03*
%TO.N,Net-(U9-SEG_A)*%
X172917500Y-101420000D03*
%TD*%
D13*
%TO.N,GND*%
%TO.C,R2*%
X297920000Y-85250000D03*
D14*
%TO.N,Net-(U10-ISET)*%
X308080000Y-85250000D03*
%TD*%
D10*
%TO.N,Net-(U6-I1)*%
%TO.C,solo2*%
X116000000Y-136420000D03*
%TO.N,GND*%
X110000000Y-136420000D03*
%TO.N,Net-(U4-SEG_B)*%
X110000000Y-141420000D03*
%TO.N,Net-(U4-DIG_1)*%
X116000000Y-141420000D03*
%TO.N,N/C*%
X116000000Y-138920000D03*
X110000000Y-138920000D03*
%TD*%
D11*
%TO.N,Net-(U11-DIG_3)*%
%TO.C,BAR5*%
X193297500Y-75420000D03*
D12*
X193297500Y-77960000D03*
X193297500Y-80500000D03*
X193297500Y-83040000D03*
X193297500Y-85580000D03*
%TO.N,Net-(U12-DIG_3)*%
X193297500Y-88120000D03*
X193297500Y-90660000D03*
X193297500Y-93200000D03*
X193297500Y-95740000D03*
X193297500Y-98280000D03*
%TO.N,Net-(U12-SEG_E)*%
X200917500Y-98280000D03*
%TO.N,Net-(U12-SEG_D)*%
X200917500Y-95740000D03*
%TO.N,Net-(U12-SEG_C)*%
X200917500Y-93200000D03*
%TO.N,Net-(U12-SEG_B)*%
X200917500Y-90660000D03*
%TO.N,Net-(U12-SEG_A)*%
X200917500Y-88120000D03*
%TO.N,Net-(U11-SEG_E)*%
X200917500Y-85580000D03*
%TO.N,Net-(U11-SEG_D)*%
X200917500Y-83040000D03*
%TO.N,Net-(U11-SEG_C)*%
X200917500Y-80500000D03*
%TO.N,Net-(U11-SEG_B)*%
X200917500Y-77960000D03*
%TO.N,Net-(U11-SEG_A)*%
X200917500Y-75420000D03*
%TD*%
D13*
%TO.N,GND*%
%TO.C,R3*%
X298340000Y-103750000D03*
D14*
%TO.N,Net-(U11-ISET)*%
X308500000Y-103750000D03*
%TD*%
D10*
%TO.N,Net-(U6-I9)*%
%TO.C,mute10*%
X116000000Y-155920000D03*
%TO.N,GND*%
X110000000Y-155920000D03*
%TO.N,Net-(U4-SEG_B)*%
X110000000Y-160920000D03*
%TO.N,Net-(U4-DIG_0)*%
X116000000Y-160920000D03*
%TO.N,N/C*%
X116000000Y-158420000D03*
X110000000Y-158420000D03*
%TD*%
D13*
%TO.N,GND*%
%TO.C,C12*%
X313750000Y-117500000D03*
D14*
%TO.N,+5V*%
X321250000Y-117500000D03*
%TD*%
D15*
%TO.N,/display/SCL*%
%TO.C, 11*%
X314250000Y-126130000D03*
D16*
%TO.N,/display/A0*%
X314250000Y-128670000D03*
%TO.N,/display/A1*%
X314250000Y-131210000D03*
%TO.N,/display/A2*%
X314250000Y-133750000D03*
%TO.N,/gain/COM*%
X314250000Y-136290000D03*
%TO.N,/gain/S0*%
X314250000Y-138830000D03*
%TO.N,/gain/S1*%
X314250000Y-141370000D03*
%TO.N,/gain/S2*%
X314250000Y-143910000D03*
%TO.N,/gain/S3*%
X314250000Y-146450000D03*
%TO.N,/buttons/COM*%
X314250000Y-148990000D03*
%TD*%
D13*
%TO.N,+5V*%
%TO.C,R5*%
X270340000Y-205750000D03*
D14*
%TO.N,Net-(U4-ISET)*%
X280500000Y-205750000D03*
%TD*%
D11*
%TO.N,Net-(U11-DIG_6)*%
%TO.C,BAR3*%
X137297500Y-75420000D03*
D12*
X137297500Y-77960000D03*
X137297500Y-80500000D03*
X137297500Y-83040000D03*
X137297500Y-85580000D03*
%TO.N,Net-(U12-DIG_6)*%
X137297500Y-88120000D03*
X137297500Y-90660000D03*
X137297500Y-93200000D03*
X137297500Y-95740000D03*
X137297500Y-98280000D03*
%TO.N,Net-(U12-SEG_E)*%
X144917500Y-98280000D03*
%TO.N,Net-(U12-SEG_D)*%
X144917500Y-95740000D03*
%TO.N,Net-(U12-SEG_C)*%
X144917500Y-93200000D03*
%TO.N,Net-(U12-SEG_B)*%
X144917500Y-90660000D03*
%TO.N,Net-(U12-SEG_A)*%
X144917500Y-88120000D03*
%TO.N,Net-(U11-SEG_E)*%
X144917500Y-85580000D03*
%TO.N,Net-(U11-SEG_D)*%
X144917500Y-83040000D03*
%TO.N,Net-(U11-SEG_C)*%
X144917500Y-80500000D03*
%TO.N,Net-(U11-SEG_B)*%
X144917500Y-77960000D03*
%TO.N,Net-(U11-SEG_A)*%
X144917500Y-75420000D03*
%TD*%
D10*
%TO.N,Net-(U6-I10)*%
%TO.C,mute11*%
X144000000Y-155920000D03*
%TO.N,GND*%
X138000000Y-155920000D03*
%TO.N,Net-(U4-SEG_C)*%
X138000000Y-160920000D03*
%TO.N,Net-(U4-DIG_0)*%
X144000000Y-160920000D03*
%TO.N,N/C*%
X144000000Y-158420000D03*
X138000000Y-158420000D03*
%TD*%
%TO.N,Net-(U6-I2)*%
%TO.C,solo3*%
X144000000Y-136420000D03*
%TO.N,GND*%
X138000000Y-136420000D03*
%TO.N,Net-(U4-SEG_C)*%
X138000000Y-141420000D03*
%TO.N,Net-(U4-DIG_1)*%
X144000000Y-141420000D03*
%TO.N,N/C*%
X144000000Y-138920000D03*
X138000000Y-138920000D03*
%TD*%
D11*
%TO.N,Net-(U11-DIG_1)*%
%TO.C,BAR8*%
X277297500Y-75420000D03*
D12*
X277297500Y-77960000D03*
X277297500Y-80500000D03*
X277297500Y-83040000D03*
X277297500Y-85580000D03*
%TO.N,Net-(U12-DIG_1)*%
X277297500Y-88120000D03*
X277297500Y-90660000D03*
X277297500Y-93200000D03*
X277297500Y-95740000D03*
X277297500Y-98280000D03*
%TO.N,Net-(U12-SEG_E)*%
X284917500Y-98280000D03*
%TO.N,Net-(U12-SEG_D)*%
X284917500Y-95740000D03*
%TO.N,Net-(U12-SEG_C)*%
X284917500Y-93200000D03*
%TO.N,Net-(U12-SEG_B)*%
X284917500Y-90660000D03*
%TO.N,Net-(U12-SEG_A)*%
X284917500Y-88120000D03*
%TO.N,Net-(U11-SEG_E)*%
X284917500Y-85580000D03*
%TO.N,Net-(U11-SEG_D)*%
X284917500Y-83040000D03*
%TO.N,Net-(U11-SEG_C)*%
X284917500Y-80500000D03*
%TO.N,Net-(U11-SEG_B)*%
X284917500Y-77960000D03*
%TO.N,Net-(U11-SEG_A)*%
X284917500Y-75420000D03*
%TD*%
D10*
%TO.N,Net-(U6-I12)*%
%TO.C,mute13*%
X200000000Y-155920000D03*
%TO.N,GND*%
X194000000Y-155920000D03*
%TO.N,Net-(U4-SEG_E)*%
X194000000Y-160920000D03*
%TO.N,Net-(U4-DIG_0)*%
X200000000Y-160920000D03*
%TO.N,N/C*%
X200000000Y-158420000D03*
X194000000Y-158420000D03*
%TD*%
%TO.N,GND*%
%TO.C,oled5*%
X194000000Y-174420000D03*
%TO.N,+5V*%
X196000000Y-174420000D03*
%TO.N,Net-(U7-SC4)*%
X198000000Y-174420000D03*
%TO.N,Net-(U7-SD4)*%
X200000000Y-174420000D03*
%TD*%
D13*
%TO.N,GND*%
%TO.C,R4*%
X226340000Y-206000000D03*
D14*
%TO.N,Net-(U12-ISET)*%
X236500000Y-206000000D03*
%TD*%
D11*
%TO.N,Net-(U11-DIG_7)*%
%TO.C,BAR6*%
X221297500Y-75420000D03*
D12*
X221297500Y-77960000D03*
X221297500Y-80500000D03*
X221297500Y-83040000D03*
X221297500Y-85580000D03*
%TO.N,Net-(U12-DIG_7)*%
X221297500Y-88120000D03*
X221297500Y-90660000D03*
X221297500Y-93200000D03*
X221297500Y-95740000D03*
X221297500Y-98280000D03*
%TO.N,Net-(U12-SEG_E)*%
X228917500Y-98280000D03*
%TO.N,Net-(U12-SEG_D)*%
X228917500Y-95740000D03*
%TO.N,Net-(U12-SEG_C)*%
X228917500Y-93200000D03*
%TO.N,Net-(U12-SEG_B)*%
X228917500Y-90660000D03*
%TO.N,Net-(U12-SEG_A)*%
X228917500Y-88120000D03*
%TO.N,Net-(U11-SEG_E)*%
X228917500Y-85580000D03*
%TO.N,Net-(U11-SEG_D)*%
X228917500Y-83040000D03*
%TO.N,Net-(U11-SEG_C)*%
X228917500Y-80500000D03*
%TO.N,Net-(U11-SEG_B)*%
X228917500Y-77960000D03*
%TO.N,Net-(U11-SEG_A)*%
X228917500Y-75420000D03*
%TD*%
D11*
%TO.N,Net-(U11-DIG_5)*%
%TO.C,BAR7*%
X249297500Y-75420000D03*
D12*
X249297500Y-77960000D03*
X249297500Y-80500000D03*
X249297500Y-83040000D03*
X249297500Y-85580000D03*
%TO.N,Net-(U12-DIG_5)*%
X249297500Y-88120000D03*
X249297500Y-90660000D03*
X249297500Y-93200000D03*
X249297500Y-95740000D03*
X249297500Y-98280000D03*
%TO.N,Net-(U12-SEG_E)*%
X256917500Y-98280000D03*
%TO.N,Net-(U12-SEG_D)*%
X256917500Y-95740000D03*
%TO.N,Net-(U12-SEG_C)*%
X256917500Y-93200000D03*
%TO.N,Net-(U12-SEG_B)*%
X256917500Y-90660000D03*
%TO.N,Net-(U12-SEG_A)*%
X256917500Y-88120000D03*
%TO.N,Net-(U11-SEG_E)*%
X256917500Y-85580000D03*
%TO.N,Net-(U11-SEG_D)*%
X256917500Y-83040000D03*
%TO.N,Net-(U11-SEG_C)*%
X256917500Y-80500000D03*
%TO.N,Net-(U11-SEG_B)*%
X256917500Y-77960000D03*
%TO.N,Net-(U11-SEG_A)*%
X256917500Y-75420000D03*
%TD*%
D13*
%TO.N,GND*%
%TO.C,C10*%
X314750000Y-169000000D03*
D14*
%TO.N,+5V*%
X322250000Y-169000000D03*
%TD*%
D11*
%TO.N,Net-(U11-DIG_0)*%
%TO.C,BAR1*%
X81297500Y-75420000D03*
D12*
X81297500Y-77960000D03*
X81297500Y-80500000D03*
X81297500Y-83040000D03*
X81297500Y-85580000D03*
%TO.N,Net-(U12-DIG_0)*%
X81297500Y-88120000D03*
X81297500Y-90660000D03*
X81297500Y-93200000D03*
X81297500Y-95740000D03*
X81297500Y-98280000D03*
%TO.N,Net-(U12-SEG_E)*%
X88917500Y-98280000D03*
%TO.N,Net-(U12-SEG_D)*%
X88917500Y-95740000D03*
%TO.N,Net-(U12-SEG_C)*%
X88917500Y-93200000D03*
%TO.N,Net-(U12-SEG_B)*%
X88917500Y-90660000D03*
%TO.N,Net-(U12-SEG_A)*%
X88917500Y-88120000D03*
%TO.N,Net-(U11-SEG_E)*%
X88917500Y-85580000D03*
%TO.N,Net-(U11-SEG_D)*%
X88917500Y-83040000D03*
%TO.N,Net-(U11-SEG_C)*%
X88917500Y-80500000D03*
%TO.N,Net-(U11-SEG_B)*%
X88917500Y-77960000D03*
%TO.N,Net-(U11-SEG_A)*%
X88917500Y-75420000D03*
%TD*%
D10*
%TO.N,Net-(SW2-C)*%
%TO.C,SW2*%
X118500000Y-64170000D03*
%TO.N,Net-(SW2-B)*%
X118500000Y-54170000D03*
%TO.N,GND*%
X118500000Y-59170000D03*
%TD*%
%TO.N,Net-(SW1-B)*%
%TO.C,SW1*%
X90500000Y-64170000D03*
%TO.N,Net-(SW1-C)*%
X90500000Y-54170000D03*
%TO.N,GND*%
X90500000Y-59170000D03*
%TD*%
%TO.N,Net-(U6-I0)*%
%TO.C,solo1*%
X88000000Y-136420000D03*
%TO.N,GND*%
X82000000Y-136420000D03*
%TO.N,Net-(U4-SEG_A)*%
X82000000Y-141420000D03*
%TO.N,Net-(U4-DIG_1)*%
X88000000Y-141420000D03*
%TO.N,N/C*%
X88000000Y-138920000D03*
X82000000Y-138920000D03*
%TD*%
D13*
%TO.N,GND*%
%TO.C,C13*%
X300250000Y-78250000D03*
D14*
%TO.N,+5V*%
X307750000Y-78250000D03*
%TD*%
D10*
%TO.N,Net-(U6-I15)*%
%TO.C,mute16*%
X284000000Y-155920000D03*
%TO.N,GND*%
X278000000Y-155920000D03*
%TO.N,Net-(U4-SEG_DP)*%
X278000000Y-160920000D03*
%TO.N,Net-(U4-DIG_0)*%
X284000000Y-160920000D03*
%TO.N,N/C*%
X284000000Y-158420000D03*
X278000000Y-158420000D03*
%TD*%
%TO.N,GND*%
%TO.C,oled4*%
X166000000Y-174420000D03*
%TO.N,+5V*%
X168000000Y-174420000D03*
%TO.N,Net-(U7-SC3)*%
X170000000Y-174420000D03*
%TO.N,Net-(U7-SD3)*%
X172000000Y-174420000D03*
%TD*%
D13*
%TO.N,+5V*%
%TO.C,C11*%
X313750000Y-159750000D03*
D14*
%TO.N,GND*%
X321250000Y-159750000D03*
%TD*%
D10*
%TO.N,Net-(U6-I5)*%
%TO.C,solo6*%
X228000000Y-136420000D03*
%TO.N,GND*%
X222000000Y-136420000D03*
%TO.N,Net-(U4-SEG_F)*%
X222000000Y-141420000D03*
%TO.N,Net-(U4-DIG_1)*%
X228000000Y-141420000D03*
%TO.N,N/C*%
X228000000Y-138920000D03*
X222000000Y-138920000D03*
%TD*%
D14*
%TO.N,+5V*%
%TO.C,C9*%
X306250000Y-118500000D03*
D13*
%TO.N,GND*%
X298750000Y-118500000D03*
%TD*%
%TO.N,GND*%
%TO.C,C8*%
X298250000Y-133000000D03*
D14*
%TO.N,+5V*%
X305750000Y-133000000D03*
%TD*%
D10*
%TO.N,Net-(U6-I13)*%
%TO.C,mute14*%
X228000000Y-155920000D03*
%TO.N,GND*%
X222000000Y-155920000D03*
%TO.N,Net-(U4-SEG_F)*%
X222000000Y-160920000D03*
%TO.N,Net-(U4-DIG_0)*%
X228000000Y-160920000D03*
%TO.N,N/C*%
X228000000Y-158420000D03*
X222000000Y-158420000D03*
%TD*%
%TO.N,Net-(SW6-C)*%
%TO.C,SW6*%
X230500000Y-64170000D03*
%TO.N,Net-(SW6-B)*%
X230500000Y-54170000D03*
%TO.N,GND*%
X230500000Y-59170000D03*
%TD*%
%TO.N,Net-(U6-I14)*%
%TO.C,mute15*%
X256000000Y-155920000D03*
%TO.N,GND*%
X250000000Y-155920000D03*
%TO.N,Net-(U4-SEG_G)*%
X250000000Y-160920000D03*
%TO.N,Net-(U4-DIG_0)*%
X256000000Y-160920000D03*
%TO.N,N/C*%
X256000000Y-158420000D03*
X250000000Y-158420000D03*
%TD*%
D11*
%TO.N,Net-(U11-DIG_4)*%
%TO.C,BAR2*%
X109297500Y-75420000D03*
D12*
X109297500Y-77960000D03*
X109297500Y-80500000D03*
X109297500Y-83040000D03*
X109297500Y-85580000D03*
%TO.N,Net-(U12-DIG_4)*%
X109297500Y-88120000D03*
X109297500Y-90660000D03*
X109297500Y-93200000D03*
X109297500Y-95740000D03*
X109297500Y-98280000D03*
%TO.N,Net-(U12-SEG_E)*%
X116917500Y-98280000D03*
%TO.N,Net-(U12-SEG_D)*%
X116917500Y-95740000D03*
%TO.N,Net-(U12-SEG_C)*%
X116917500Y-93200000D03*
%TO.N,Net-(U12-SEG_B)*%
X116917500Y-90660000D03*
%TO.N,Net-(U12-SEG_A)*%
X116917500Y-88120000D03*
%TO.N,Net-(U11-SEG_E)*%
X116917500Y-85580000D03*
%TO.N,Net-(U11-SEG_D)*%
X116917500Y-83040000D03*
%TO.N,Net-(U11-SEG_C)*%
X116917500Y-80500000D03*
%TO.N,Net-(U11-SEG_B)*%
X116917500Y-77960000D03*
%TO.N,Net-(U11-SEG_A)*%
X116917500Y-75420000D03*
%TD*%
D11*
%TO.N,Net-(U9-DIG_3)*%
%TO.C,BAR13*%
X193297500Y-101420000D03*
D12*
X193297500Y-103960000D03*
X193297500Y-106500000D03*
X193297500Y-109040000D03*
X193297500Y-111580000D03*
%TO.N,Net-(U10-DIG_3)*%
X193297500Y-114120000D03*
X193297500Y-116660000D03*
X193297500Y-119200000D03*
X193297500Y-121740000D03*
X193297500Y-124280000D03*
%TO.N,Net-(U10-SEG_E)*%
X200917500Y-124280000D03*
%TO.N,Net-(U10-SEG_D)*%
X200917500Y-121740000D03*
%TO.N,Net-(U10-SEG_C)*%
X200917500Y-119200000D03*
%TO.N,Net-(U10-SEG_B)*%
X200917500Y-116660000D03*
%TO.N,Net-(U10-SEG_A)*%
X200917500Y-114120000D03*
%TO.N,Net-(U9-SEG_E)*%
X200917500Y-111580000D03*
%TO.N,Net-(U9-SEG_D)*%
X200917500Y-109040000D03*
%TO.N,Net-(U9-SEG_C)*%
X200917500Y-106500000D03*
%TO.N,Net-(U9-SEG_B)*%
X200917500Y-103960000D03*
%TO.N,Net-(U9-SEG_A)*%
X200917500Y-101420000D03*
%TD*%
D15*
%TO.N,/buttons/S0*%
%TO.C, 1*%
X298375000Y-176325000D03*
D16*
%TO.N,/buttons/S1*%
X298375000Y-178865000D03*
%TO.N,/buttons/S2*%
X298375000Y-181405000D03*
%TO.N,/buttons/S3*%
X298375000Y-183945000D03*
%TO.N,/buttons/DIN*%
X298375000Y-186485000D03*
%TO.N,/buttons/CLK*%
X298375000Y-189025000D03*
%TO.N,/buttons/LOAD*%
X298375000Y-191565000D03*
%TO.N,/meter/DIN*%
X298375000Y-194105000D03*
%TO.N,/meter/LOAD*%
X298375000Y-196645000D03*
%TO.N,/meter/CLK*%
X298375000Y-199185000D03*
%TD*%
D17*
%TO.N,/buttons/DIN*%
%TO.C,U4*%
X253025000Y-186050000D03*
D14*
%TO.N,Net-(U4-DIG_0)*%
X255565000Y-186050000D03*
%TO.N,unconnected-(U4-DIG_4-Pad3)*%
X258105000Y-186050000D03*
%TO.N,GND*%
X260645000Y-186050000D03*
%TO.N,unconnected-(U4-DIG_6-Pad5)*%
X263185000Y-186050000D03*
%TO.N,unconnected-(U4-DIG_2-Pad6)*%
X265725000Y-186050000D03*
%TO.N,unconnected-(U4-DIG_3-Pad7)*%
X268265000Y-186050000D03*
%TO.N,unconnected-(U4-DIG_7-Pad8)*%
X270805000Y-186050000D03*
%TO.N,GND*%
X273345000Y-186050000D03*
%TO.N,unconnected-(U4-DIG_5-Pad10)*%
X275885000Y-186050000D03*
%TO.N,Net-(U4-DIG_1)*%
X278425000Y-186050000D03*
%TO.N,/buttons/LOAD*%
X280965000Y-186050000D03*
%TO.N,/buttons/CLK*%
X280965000Y-193670000D03*
%TO.N,Net-(U4-SEG_A)*%
X278425000Y-193670000D03*
%TO.N,Net-(U4-SEG_F)*%
X275885000Y-193670000D03*
%TO.N,Net-(U4-SEG_B)*%
X273345000Y-193670000D03*
%TO.N,Net-(U4-SEG_G)*%
X270805000Y-193670000D03*
%TO.N,Net-(U4-ISET)*%
X268265000Y-193670000D03*
%TO.N,+5V*%
X265725000Y-193670000D03*
%TO.N,Net-(U4-SEG_C)*%
X263185000Y-193670000D03*
%TO.N,Net-(U4-SEG_E)*%
X260645000Y-193670000D03*
%TO.N,Net-(U4-SEG_DP)*%
X258105000Y-193670000D03*
%TO.N,Net-(U4-SEG_D)*%
X255565000Y-193670000D03*
%TO.N,unconnected-(U4-DOUT-Pad24)*%
X253025000Y-193670000D03*
%TD*%
D17*
%TO.N,Net-(U10-DIN)*%
%TO.C,U10*%
X82720000Y-186050000D03*
D14*
%TO.N,Net-(U10-DIG_0)*%
X85260000Y-186050000D03*
%TO.N,Net-(U10-DIG_4)*%
X87800000Y-186050000D03*
%TO.N,GND*%
X90340000Y-186050000D03*
%TO.N,Net-(U10-DIG_6)*%
X92880000Y-186050000D03*
%TO.N,Net-(U10-DIG_2)*%
X95420000Y-186050000D03*
%TO.N,Net-(U10-DIG_3)*%
X97960000Y-186050000D03*
%TO.N,Net-(U10-DIG_7)*%
X100500000Y-186050000D03*
%TO.N,GND*%
X103040000Y-186050000D03*
%TO.N,Net-(U10-DIG_5)*%
X105580000Y-186050000D03*
%TO.N,Net-(U10-DIG_1)*%
X108120000Y-186050000D03*
%TO.N,/meter/LOAD*%
X110660000Y-186050000D03*
%TO.N,/meter/CLK*%
X110660000Y-193670000D03*
%TO.N,Net-(U10-SEG_A)*%
X108120000Y-193670000D03*
%TO.N,unconnected-(U10-SEG_F-Pad15)*%
X105580000Y-193670000D03*
%TO.N,Net-(U10-SEG_B)*%
X103040000Y-193670000D03*
%TO.N,unconnected-(U10-SEG_G-Pad17)*%
X100500000Y-193670000D03*
%TO.N,Net-(U10-ISET)*%
X97960000Y-193670000D03*
%TO.N,+5V*%
X95420000Y-193670000D03*
%TO.N,Net-(U10-SEG_C)*%
X92880000Y-193670000D03*
%TO.N,Net-(U10-SEG_E)*%
X90340000Y-193670000D03*
%TO.N,unconnected-(U10-SEG_DP-Pad22)*%
X87800000Y-193670000D03*
%TO.N,Net-(U10-SEG_D)*%
X85260000Y-193670000D03*
%TO.N,unconnected-(U10-DOUT-Pad24)*%
X82720000Y-193670000D03*
%TD*%
D17*
%TO.N,/meter/DIN*%
%TO.C,U11*%
X169025000Y-186000000D03*
D14*
%TO.N,Net-(U11-DIG_0)*%
X171565000Y-186000000D03*
%TO.N,Net-(U11-DIG_4)*%
X174105000Y-186000000D03*
%TO.N,GND*%
X176645000Y-186000000D03*
%TO.N,Net-(U11-DIG_6)*%
X179185000Y-186000000D03*
%TO.N,Net-(U11-DIG_2)*%
X181725000Y-186000000D03*
%TO.N,Net-(U11-DIG_3)*%
X184265000Y-186000000D03*
%TO.N,Net-(U11-DIG_7)*%
X186805000Y-186000000D03*
%TO.N,GND*%
X189345000Y-186000000D03*
%TO.N,Net-(U11-DIG_5)*%
X191885000Y-186000000D03*
%TO.N,Net-(U11-DIG_1)*%
X194425000Y-186000000D03*
%TO.N,/meter/LOAD*%
X196965000Y-186000000D03*
%TO.N,/meter/CLK*%
X196965000Y-193620000D03*
%TO.N,Net-(U11-SEG_A)*%
X194425000Y-193620000D03*
%TO.N,unconnected-(U11-SEG_F-Pad15)*%
X191885000Y-193620000D03*
%TO.N,Net-(U11-SEG_B)*%
X189345000Y-193620000D03*
%TO.N,unconnected-(U11-SEG_G-Pad17)*%
X186805000Y-193620000D03*
%TO.N,Net-(U11-ISET)*%
X184265000Y-193620000D03*
%TO.N,+5V*%
X181725000Y-193620000D03*
%TO.N,Net-(U11-SEG_C)*%
X179185000Y-193620000D03*
%TO.N,Net-(U11-SEG_E)*%
X176645000Y-193620000D03*
%TO.N,unconnected-(U11-SEG_DP-Pad22)*%
X174105000Y-193620000D03*
%TO.N,Net-(U11-SEG_D)*%
X171565000Y-193620000D03*
%TO.N,Net-(U11-DOUT)*%
X169025000Y-193620000D03*
%TD*%
D17*
%TO.N,Net-(U11-DOUT)*%
%TO.C,U12*%
X212180000Y-186050000D03*
D14*
%TO.N,Net-(U12-DIG_0)*%
X214720000Y-186050000D03*
%TO.N,Net-(U12-DIG_4)*%
X217260000Y-186050000D03*
%TO.N,GND*%
X219800000Y-186050000D03*
%TO.N,Net-(U12-DIG_6)*%
X222340000Y-186050000D03*
%TO.N,Net-(U12-DIG_2)*%
X224880000Y-186050000D03*
%TO.N,Net-(U12-DIG_3)*%
X227420000Y-186050000D03*
%TO.N,Net-(U12-DIG_7)*%
X229960000Y-186050000D03*
%TO.N,GND*%
X232500000Y-186050000D03*
%TO.N,Net-(U12-DIG_5)*%
X235040000Y-186050000D03*
%TO.N,Net-(U12-DIG_1)*%
X237580000Y-186050000D03*
%TO.N,/meter/LOAD*%
X240120000Y-186050000D03*
%TO.N,/meter/CLK*%
X240120000Y-193670000D03*
%TO.N,Net-(U12-SEG_A)*%
X237580000Y-193670000D03*
%TO.N,unconnected-(U12-SEG_F-Pad15)*%
X235040000Y-193670000D03*
%TO.N,Net-(U12-SEG_B)*%
X232500000Y-193670000D03*
%TO.N,unconnected-(U12-SEG_G-Pad17)*%
X229960000Y-193670000D03*
%TO.N,Net-(U12-ISET)*%
X227420000Y-193670000D03*
%TO.N,+5V*%
X224880000Y-193670000D03*
%TO.N,Net-(U12-SEG_C)*%
X222340000Y-193670000D03*
%TO.N,Net-(U12-SEG_E)*%
X219800000Y-193670000D03*
%TO.N,unconnected-(U12-SEG_DP-Pad22)*%
X217260000Y-193670000D03*
%TO.N,Net-(U12-SEG_D)*%
X214720000Y-193670000D03*
%TO.N,Net-(U12-DOUT)*%
X212180000Y-193670000D03*
%TD*%
D17*
%TO.N,Net-(U12-DOUT)*%
%TO.C,U9*%
X125600000Y-186050000D03*
D14*
%TO.N,Net-(U9-DIG_0)*%
X128140000Y-186050000D03*
%TO.N,Net-(U9-DIG_4)*%
X130680000Y-186050000D03*
%TO.N,GND*%
X133220000Y-186050000D03*
%TO.N,Net-(U9-DIG_6)*%
X135760000Y-186050000D03*
%TO.N,Net-(U9-DIG_2)*%
X138300000Y-186050000D03*
%TO.N,Net-(U9-DIG_3)*%
X140840000Y-186050000D03*
%TO.N,Net-(U9-DIG_7)*%
X143380000Y-186050000D03*
%TO.N,GND*%
X145920000Y-186050000D03*
%TO.N,Net-(U9-DIG_5)*%
X148460000Y-186050000D03*
%TO.N,Net-(U9-DIG_1)*%
X151000000Y-186050000D03*
%TO.N,/meter/LOAD*%
X153540000Y-186050000D03*
%TO.N,/meter/CLK*%
X153540000Y-193670000D03*
%TO.N,Net-(U9-SEG_A)*%
X151000000Y-193670000D03*
%TO.N,unconnected-(U9-SEG_F-Pad15)*%
X148460000Y-193670000D03*
%TO.N,Net-(U9-SEG_B)*%
X145920000Y-193670000D03*
%TO.N,unconnected-(U9-SEG_G-Pad17)*%
X143380000Y-193670000D03*
%TO.N,Net-(U9-ISET)*%
X140840000Y-193670000D03*
%TO.N,+5V*%
X138300000Y-193670000D03*
%TO.N,Net-(U9-SEG_C)*%
X135760000Y-193670000D03*
%TO.N,Net-(U9-SEG_E)*%
X133220000Y-193670000D03*
%TO.N,unconnected-(U9-SEG_DP-Pad22)*%
X130680000Y-193670000D03*
%TO.N,Net-(U9-SEG_D)*%
X128140000Y-193670000D03*
%TO.N,Net-(U10-DIN)*%
X125600000Y-193670000D03*
%TD*%
D18*
%TO.N,Net-(U12-DIG_6)*%
X214486221Y-119493681D03*
%TO.N,Net-(U12-DIG_0)*%
X214500000Y-117500000D03*
%TO.N,Net-(U12-DIG_4)*%
X214491859Y-118498092D03*
%TO.N,Net-(U12-DIG_2)*%
X214500000Y-120500000D03*
%TO.N,Net-(U12-DIG_3)*%
X214500000Y-121500000D03*
%TO.N,Net-(U12-DIG_7)*%
X217500000Y-115000000D03*
%TO.N,Net-(U12-DIG_5)*%
X217500000Y-116000000D03*
%TO.N,Net-(U12-DIG_1)*%
X217500000Y-117000000D03*
%TO.N,Net-(U11-DIG_0)*%
X186750000Y-120000000D03*
%TO.N,Net-(U11-DIG_4)*%
X186750000Y-121000000D03*
%TO.N,Net-(U11-DIG_6)*%
X186750000Y-122000000D03*
%TO.N,Net-(U11-DIG_2)*%
X186750001Y-122989949D03*
%TO.N,Net-(U11-DIG_1)*%
X190000000Y-118000000D03*
%TO.N,Net-(U11-DIG_5)*%
X190000000Y-117000000D03*
%TO.N,Net-(U11-DIG_7)*%
X190000000Y-116000000D03*
%TO.N,Net-(U11-DIG_3)*%
X190000000Y-115000000D03*
%TO.N,Net-(U9-DIG_6)*%
X133750000Y-120500000D03*
%TO.N,Net-(U9-DIG_2)*%
X133750000Y-121500000D03*
%TO.N,Net-(U9-DIG_3)*%
X133750000Y-122500000D03*
%TO.N,Net-(U9-DIG_7)*%
X133750000Y-123500000D03*
%TO.N,Net-(U9-DIG_5)*%
X133750000Y-124500000D03*
%TO.N,Net-(U9-DIG_1)*%
X133750000Y-125500000D03*
%TO.N,Net-(U9-DIG_0)*%
X129250000Y-123750000D03*
%TO.N,Net-(U9-DIG_4)*%
X129250000Y-125000000D03*
%TO.N,Net-(U10-DIG_5)*%
X107500000Y-184250000D03*
%TO.N,Net-(U10-DIG_7)*%
X107500000Y-183250000D03*
%TO.N,Net-(U10-DIG_3)*%
X107500000Y-182250000D03*
%TO.N,Net-(U10-DIG_2)*%
X107500000Y-181250000D03*
%TO.N,Net-(U10-DIG_6)*%
X107500000Y-180250000D03*
%TO.N,Net-(U10-DIG_4)*%
X107500000Y-179250000D03*
%TO.N,Net-(U12-SEG_A)*%
X285795225Y-133204775D03*
%TO.N,Net-(U12-SEG_B)*%
X285500000Y-132100000D03*
%TO.N,Net-(U12-SEG_C)*%
X284934316Y-131400000D03*
%TO.N,Net-(U11-SEG_D)*%
X290750000Y-129250000D03*
%TO.N,Net-(U11-SEG_E)*%
X289505025Y-128994975D03*
%TO.N,Net-(U11-SEG_C)*%
X290385050Y-130864950D03*
%TO.N,Net-(U11-SEG_B)*%
X290450000Y-132000000D03*
%TO.N,Net-(U11-SEG_A)*%
X289750000Y-134000000D03*
%TO.N,Net-(U12-SEG_D)*%
X284500000Y-130000000D03*
%TO.N,Net-(U12-SEG_E)*%
X283250000Y-130700000D03*
%TO.N,Net-(U11-SEG_E)*%
X262750000Y-127200000D03*
%TO.N,Net-(U11-SEG_A)*%
X265750000Y-129300000D03*
%TO.N,Net-(U11-SEG_C)*%
X264250000Y-127900000D03*
%TO.N,Net-(U12-SEG_C)*%
X260500000Y-131400000D03*
%TO.N,Net-(U12-SEG_A)*%
X262000000Y-132800000D03*
%TO.N,Net-(U12-SEG_D)*%
X259750000Y-130000000D03*
%TO.N,Net-(U11-SEG_D)*%
X263500000Y-126500000D03*
%TO.N,Net-(U11-SEG_B)*%
X265000000Y-128600000D03*
%TO.N,Net-(U12-SEG_E)*%
X259000000Y-130700000D03*
%TO.N,Net-(U12-SEG_B)*%
X261250000Y-132100000D03*
%TO.N,Net-(U11-SEG_E)*%
X234750000Y-127200000D03*
%TO.N,Net-(U11-SEG_A)*%
X237750000Y-129300000D03*
%TO.N,Net-(U11-SEG_C)*%
X236250000Y-127900000D03*
%TO.N,Net-(U12-SEG_C)*%
X232500000Y-131400000D03*
%TO.N,Net-(U12-SEG_A)*%
X234000000Y-132800000D03*
%TO.N,Net-(U12-SEG_D)*%
X231750000Y-130000000D03*
%TO.N,Net-(U11-SEG_D)*%
X235500000Y-126500000D03*
%TO.N,Net-(U11-SEG_B)*%
X237000000Y-128600000D03*
%TO.N,Net-(U12-SEG_E)*%
X231000000Y-130700000D03*
%TO.N,Net-(U12-SEG_B)*%
X233250000Y-132100000D03*
%TO.N,Net-(U11-SEG_E)*%
X206750000Y-127200000D03*
%TO.N,Net-(U11-SEG_A)*%
X209750000Y-129300000D03*
%TO.N,Net-(U11-SEG_C)*%
X208250000Y-127900000D03*
%TO.N,Net-(U12-SEG_C)*%
X204500000Y-131400000D03*
%TO.N,Net-(U12-SEG_A)*%
X206000000Y-132800000D03*
%TO.N,Net-(U12-SEG_D)*%
X203750000Y-130000000D03*
%TO.N,Net-(U11-SEG_D)*%
X207500000Y-126500000D03*
%TO.N,Net-(U11-SEG_B)*%
X209000000Y-128600000D03*
%TO.N,Net-(U12-SEG_E)*%
X203000000Y-130700000D03*
%TO.N,Net-(U12-SEG_B)*%
X205250000Y-132100000D03*
%TO.N,Net-(U11-SEG_E)*%
X178750000Y-127200000D03*
%TO.N,Net-(U11-SEG_A)*%
X181750000Y-129300000D03*
%TO.N,Net-(U11-SEG_C)*%
X180250000Y-127900000D03*
%TO.N,Net-(U12-SEG_C)*%
X176500000Y-131400000D03*
%TO.N,Net-(U12-SEG_A)*%
X178000000Y-132800000D03*
%TO.N,Net-(U12-SEG_D)*%
X175750000Y-130000000D03*
%TO.N,Net-(U11-SEG_D)*%
X179500000Y-126500000D03*
%TO.N,Net-(U11-SEG_B)*%
X181000000Y-128600000D03*
%TO.N,Net-(U12-SEG_E)*%
X175000000Y-130700000D03*
%TO.N,Net-(U12-SEG_B)*%
X177250000Y-132100000D03*
%TO.N,Net-(U11-SEG_E)*%
X150750000Y-127200000D03*
%TO.N,Net-(U11-SEG_A)*%
X153750000Y-129300000D03*
%TO.N,Net-(U11-SEG_C)*%
X152250000Y-127900000D03*
%TO.N,Net-(U12-SEG_C)*%
X148500000Y-131400000D03*
%TO.N,Net-(U12-SEG_A)*%
X150000000Y-132800000D03*
%TO.N,Net-(U12-SEG_D)*%
X147750000Y-130000000D03*
%TO.N,Net-(U11-SEG_D)*%
X151500000Y-126500000D03*
%TO.N,Net-(U11-SEG_B)*%
X153000000Y-128600000D03*
%TO.N,Net-(U12-SEG_E)*%
X147000000Y-130700000D03*
%TO.N,Net-(U12-SEG_B)*%
X149250000Y-132100000D03*
%TO.N,Net-(U11-SEG_E)*%
X122500000Y-127200000D03*
%TO.N,Net-(U11-SEG_A)*%
X125500000Y-129300000D03*
%TO.N,Net-(U11-SEG_C)*%
X124000000Y-127900000D03*
%TO.N,Net-(U12-SEG_C)*%
X120250000Y-131400000D03*
%TO.N,Net-(U12-SEG_A)*%
X121750000Y-132800000D03*
%TO.N,Net-(U12-SEG_D)*%
X119500000Y-130000000D03*
%TO.N,Net-(U11-SEG_D)*%
X123250000Y-126500000D03*
%TO.N,Net-(U11-SEG_B)*%
X124750000Y-128600000D03*
%TO.N,Net-(U12-SEG_E)*%
X118750000Y-130700000D03*
%TO.N,Net-(U12-SEG_B)*%
X121000000Y-132100000D03*
%TO.N,Net-(U11-SEG_A)*%
X97500000Y-129300000D03*
%TO.N,Net-(U11-SEG_B)*%
X96750000Y-128600000D03*
%TO.N,Net-(U11-SEG_C)*%
X96000000Y-127900000D03*
%TO.N,Net-(U11-SEG_D)*%
X95250000Y-126500000D03*
%TO.N,Net-(U11-SEG_E)*%
X94500000Y-127200000D03*
%TO.N,Net-(U12-SEG_A)*%
X93750000Y-132800000D03*
%TO.N,Net-(U12-SEG_B)*%
X93000000Y-132100000D03*
%TO.N,Net-(U12-SEG_C)*%
X92250000Y-131400000D03*
%TO.N,Net-(U12-SEG_D)*%
X91500000Y-130000000D03*
%TO.N,Net-(U12-SEG_E)*%
X90750000Y-130700000D03*
%TO.N,Net-(SW1-C)*%
X315250000Y-58500000D03*
%TO.N,Net-(SW1-B)*%
X315250000Y-57250000D03*
%TO.N,Net-(SW2-B)*%
X315250000Y-61000000D03*
%TO.N,Net-(SW3-B)*%
X315250000Y-63500000D03*
%TO.N,Net-(SW2-C)*%
X315250000Y-59750000D03*
%TO.N,Net-(SW4-B)*%
X315250000Y-66000000D03*
%TO.N,Net-(SW3-A)*%
X315250000Y-62250000D03*
%TO.N,Net-(SW4-C)*%
X315250000Y-64750000D03*
%TD*%
D19*
%TO.N,Net-(U9-DIG_7)*%
X133750000Y-123500000D02*
X129750000Y-119500000D01*
X214250000Y-72250000D02*
X218500000Y-76500000D01*
X129750000Y-119500000D02*
X129750000Y-76664212D01*
X218500000Y-98622500D02*
X221297500Y-101420000D01*
X129750000Y-76664212D02*
X134164212Y-72250000D01*
X134164212Y-72250000D02*
X214250000Y-72250000D01*
X218500000Y-76500000D02*
X218500000Y-98622500D01*
%TO.N,Net-(U9-DIG_2)*%
X133750000Y-121500000D02*
X130750000Y-118500000D01*
X130750000Y-118500000D02*
X130750000Y-77078424D01*
X159500000Y-73250000D02*
X161500000Y-75250000D01*
X130750000Y-77078424D02*
X134578424Y-73250000D01*
X134578424Y-73250000D02*
X159500000Y-73250000D01*
X161500000Y-75250000D02*
X161500000Y-97622500D01*
X161500000Y-97622500D02*
X165297500Y-101420000D01*
%TO.N,Net-(U9-DIG_3)*%
X133750000Y-122500000D02*
X130250000Y-119000000D01*
X187000000Y-72750000D02*
X189500000Y-75250000D01*
X189500000Y-75250000D02*
X189500000Y-97622500D01*
X130250000Y-119000000D02*
X130250000Y-76871318D01*
X130250000Y-76871318D02*
X134371318Y-72750000D01*
X134371318Y-72750000D02*
X187000000Y-72750000D01*
X189500000Y-97622500D02*
X193297500Y-101420000D01*
%TO.N,Net-(U9-DIG_5)*%
X133750000Y-124500000D02*
X129250000Y-120000000D01*
X133957106Y-71750000D02*
X242250000Y-71750000D01*
X245000000Y-97122500D02*
X249297500Y-101420000D01*
X129250000Y-120000000D02*
X129250000Y-76457106D01*
X129250000Y-76457106D02*
X133957106Y-71750000D01*
X242250000Y-71750000D02*
X245000000Y-74500000D01*
X245000000Y-74500000D02*
X245000000Y-97122500D01*
%TO.N,Net-(U9-DIG_1)*%
X133750000Y-125500000D02*
X128750000Y-120500000D01*
X273500000Y-97622500D02*
X277297500Y-101420000D01*
X128750000Y-120500000D02*
X128750000Y-76250000D01*
X128750000Y-76250000D02*
X133750000Y-71250000D01*
X133750000Y-71250000D02*
X268000000Y-71250000D01*
X268000000Y-71250000D02*
X273500000Y-76750000D01*
X273500000Y-76750000D02*
X273500000Y-97622500D01*
%TO.N,Net-(U9-DIG_6)*%
X133750000Y-120500000D02*
X131250000Y-118000000D01*
X131250000Y-118000000D02*
X131250000Y-107467500D01*
X131250000Y-107467500D02*
X137297500Y-101420000D01*
%TO.N,Net-(U9-DIG_4)*%
X129250000Y-125000000D02*
X127750000Y-123500000D01*
X127750000Y-123500000D02*
X127750000Y-77207106D01*
X105500000Y-76250000D02*
X105500000Y-97622500D01*
X127750000Y-77207106D02*
X124042894Y-73500000D01*
X124042894Y-73500000D02*
X108250000Y-73500000D01*
X108250000Y-73500000D02*
X105500000Y-76250000D01*
X105500000Y-97622500D02*
X109297500Y-101420000D01*
%TO.N,Net-(U9-DIG_0)*%
X78250000Y-74250000D02*
X78250000Y-98372500D01*
X129250000Y-123750000D02*
X128250000Y-122750000D01*
X128250000Y-122750000D02*
X128250000Y-77000000D01*
X128250000Y-77000000D02*
X124250000Y-73000000D01*
X124250000Y-73000000D02*
X79500000Y-73000000D01*
X79500000Y-73000000D02*
X78250000Y-74250000D01*
X78250000Y-98372500D02*
X81297500Y-101420000D01*
%TO.N,Net-(U9-DIG_6)*%
X137297500Y-101420000D02*
X137297500Y-111580000D01*
%TO.N,Net-(U9-DIG_2)*%
X165297500Y-111580000D02*
X165297500Y-101420000D01*
%TO.N,Net-(U9-DIG_3)*%
X193297500Y-111580000D02*
X193297500Y-101420000D01*
%TO.N,Net-(U9-DIG_7)*%
X221297500Y-111580000D02*
X221297500Y-101420000D01*
%TO.N,Net-(U9-DIG_5)*%
X249297500Y-111580000D02*
X249297500Y-101420000D01*
%TO.N,Net-(U9-DIG_1)*%
X277297500Y-111580000D02*
X277297500Y-101420000D01*
%TO.N,Net-(U9-DIG_4)*%
X109297500Y-111580000D02*
X109297500Y-101420000D01*
%TO.N,Net-(U9-DIG_0)*%
X81297500Y-111580000D02*
X81297500Y-101420000D01*
%TO.N,Net-(U10-DIG_4)*%
X107500000Y-179250000D02*
X94600000Y-179250000D01*
X94600000Y-179250000D02*
X87800000Y-186050000D01*
%TO.N,Net-(U10-DIG_6)*%
X107500000Y-180250000D02*
X98680000Y-180250000D01*
X98680000Y-180250000D02*
X92880000Y-186050000D01*
%TO.N,Net-(U10-DIG_2)*%
X107500000Y-181250000D02*
X100220000Y-181250000D01*
X100220000Y-181250000D02*
X95420000Y-186050000D01*
%TO.N,Net-(U10-DIG_3)*%
X107500000Y-182250000D02*
X101760000Y-182250000D01*
X101760000Y-182250000D02*
X97960000Y-186050000D01*
%TO.N,Net-(U10-DIG_7)*%
X107500000Y-183250000D02*
X103300000Y-183250000D01*
X103300000Y-183250000D02*
X100500000Y-186050000D01*
%TO.N,Net-(U10-DIG_5)*%
X107500000Y-184250000D02*
X107380000Y-184250000D01*
X107380000Y-184250000D02*
X105580000Y-186050000D01*
%TO.N,Net-(U11-SEG_D)*%
X95250000Y-126500000D02*
X288000000Y-126500000D01*
X287200000Y-202100000D02*
X180045000Y-202100000D01*
X288000000Y-126500000D02*
X292550000Y-131050000D01*
X292550000Y-131050000D02*
X292550000Y-196750000D01*
X180045000Y-202100000D02*
X171565000Y-193620000D01*
X292550000Y-196750000D02*
X287200000Y-202100000D01*
%TO.N,Net-(U11-SEG_E)*%
X289505025Y-128994975D02*
X291850000Y-131339950D01*
X291850000Y-131339950D02*
X291850000Y-196450000D01*
X184425000Y-201400000D02*
X176645000Y-193620000D01*
X291850000Y-196450000D02*
X286900000Y-201400000D01*
X286900000Y-201400000D02*
X184425000Y-201400000D01*
%TO.N,Net-(U11-SEG_C)*%
X96000000Y-127900000D02*
X287420100Y-127900000D01*
X287420100Y-127900000D02*
X291150000Y-131629900D01*
X291150000Y-131629900D02*
X291150000Y-196139950D01*
X291150000Y-196139950D02*
X286589950Y-200700000D01*
X286589950Y-200700000D02*
X186265000Y-200700000D01*
X186265000Y-200700000D02*
X179185000Y-193620000D01*
%TO.N,Net-(U11-SEG_B)*%
X96750000Y-128600000D02*
X287130150Y-128600000D01*
X287130150Y-128600000D02*
X290450000Y-131919850D01*
X290450000Y-131919850D02*
X290450000Y-195850000D01*
X195725000Y-200000000D02*
X189345000Y-193620000D01*
X290450000Y-195850000D02*
X286300000Y-200000000D01*
X286300000Y-200000000D02*
X195725000Y-200000000D01*
%TO.N,Net-(U11-SEG_A)*%
X97500000Y-129300000D02*
X286840200Y-129300000D01*
X286840200Y-129300000D02*
X289750000Y-132209800D01*
X289750000Y-132209800D02*
X289750000Y-195550000D01*
X289750000Y-195550000D02*
X286000000Y-199300000D01*
X200105000Y-199300000D02*
X194425000Y-193620000D01*
X286000000Y-199300000D02*
X200105000Y-199300000D01*
%TO.N,Net-(U12-SEG_D)*%
X91500000Y-130000000D02*
X286550250Y-130000000D01*
X285700000Y-198600000D02*
X219650000Y-198600000D01*
X286550250Y-130000000D02*
X289050000Y-132499750D01*
X289050000Y-132499750D02*
X289050000Y-195250000D01*
X289050000Y-195250000D02*
X285700000Y-198600000D01*
X219650000Y-198600000D02*
X214720000Y-193670000D01*
%TO.N,Net-(U12-SEG_E)*%
X90750000Y-130700000D02*
X286260300Y-130700000D01*
X288350000Y-132789700D02*
X288350000Y-194950000D01*
X286260300Y-130700000D02*
X288350000Y-132789700D01*
X288350000Y-194950000D02*
X285400000Y-197900000D01*
X285400000Y-197900000D02*
X224030000Y-197900000D01*
X224030000Y-197900000D02*
X219800000Y-193670000D01*
%TO.N,Net-(U12-SEG_C)*%
X92250000Y-131400000D02*
X285970350Y-131400000D01*
X285970350Y-131400000D02*
X287650000Y-133079650D01*
X287650000Y-133079650D02*
X287650000Y-194660050D01*
X287650000Y-194660050D02*
X285110050Y-197200000D01*
X285110050Y-197200000D02*
X225900000Y-197200000D01*
X225900000Y-197200000D02*
X225000000Y-196300000D01*
X225000000Y-196300000D02*
X224970000Y-196300000D01*
X224970000Y-196300000D02*
X222340000Y-193670000D01*
%TO.N,Net-(U12-SEG_B)*%
X93000000Y-132100000D02*
X285680400Y-132100000D01*
X235330000Y-196500000D02*
X232500000Y-193670000D01*
X285680400Y-132100000D02*
X286950000Y-133369600D01*
X286950000Y-194370100D02*
X284820100Y-196500000D01*
X286950000Y-133369600D02*
X286950000Y-194370100D01*
X284820100Y-196500000D02*
X235330000Y-196500000D01*
%TO.N,Net-(U12-SEG_A)*%
X93750000Y-132800000D02*
X285390450Y-132800000D01*
X285390450Y-132800000D02*
X286250000Y-133659550D01*
X286250000Y-133659550D02*
X286250000Y-194080150D01*
X286250000Y-194080150D02*
X284530150Y-195800000D01*
X239710000Y-195800000D02*
X237580000Y-193670000D01*
X284530150Y-195800000D02*
X239710000Y-195800000D01*
%TO.N,Net-(U11-SEG_E)*%
X289505025Y-128994975D02*
X287710050Y-127200000D01*
X287710050Y-127200000D02*
X94500000Y-127200000D01*
%TO.N,Net-(U9-SEG_D)*%
X89215000Y-108920000D02*
X88917500Y-109217500D01*
%TO.N,Net-(U9-SEG_C)*%
X89175000Y-106420000D02*
X88917500Y-106677500D01*
%TO.N,Net-(U9-SEG_B)*%
X89135000Y-103920000D02*
X88917500Y-104137500D01*
%TO.N,Net-(U9-SEG_A)*%
X88997500Y-101420000D02*
X88917500Y-101340000D01*
%TD*%
M02*
