%TF.GenerationSoftware,KiCad,Pcbnew,9.0.2*%
%TF.CreationDate,2025-06-22T15:51:31+10:00*%
%TF.ProjectId,mixer,6d697865-722e-46b6-9963-61645f706362,rev?*%
%TF.SameCoordinates,Original*%
%TF.FileFunction,Soldermask,Bot*%
%TF.FilePolarity,Negative*%
%FSLAX46Y46*%
G04 Gerber Fmt 4.6, Leading zero omitted, Abs format (unit mm)*
G04 Created by KiCad (PCBNEW 9.0.2) date 2025-06-22 15:51:31*
%MOMM*%
%LPD*%
G01*
G04 APERTURE LIST*
G04 Aperture macros list*
%AMRoundRect*
0 Rectangle with rounded corners*
0 $1 Rounding radius*
0 $2 $3 $4 $5 $6 $7 $8 $9 X,Y pos of 4 corners*
0 Add a 4 corners polygon primitive as box body*
4,1,4,$2,$3,$4,$5,$6,$7,$8,$9,$2,$3,0*
0 Add four circle primitives for the rounded corners*
1,1,$1+$1,$2,$3*
1,1,$1+$1,$4,$5*
1,1,$1+$1,$6,$7*
1,1,$1+$1,$8,$9*
0 Add four rect primitives between the rounded corners*
20,1,$1+$1,$2,$3,$4,$5,0*
20,1,$1+$1,$4,$5,$6,$7,0*
20,1,$1+$1,$6,$7,$8,$9,0*
20,1,$1+$1,$8,$9,$2,$3,0*%
G04 Aperture macros list end*
%ADD10C,1.524000*%
%ADD11R,2.032000X2.032000*%
%ADD12C,2.032000*%
%ADD13RoundRect,0.250000X-0.550000X-0.550000X0.550000X-0.550000X0.550000X0.550000X-0.550000X0.550000X0*%
%ADD14C,1.600000*%
G04 APERTURE END LIST*
D10*
%TO.C,SW9*%
X81000000Y-93250000D03*
X91000000Y-93250000D03*
X86000000Y-93250000D03*
%TD*%
D11*
%TO.C,LowerLED1*%
X82130000Y-129677500D03*
D12*
X82130000Y-132217500D03*
X82130000Y-134757500D03*
X82130000Y-137297500D03*
X82130000Y-139837500D03*
X82130000Y-142377500D03*
X82130000Y-144917500D03*
X82130000Y-147457500D03*
X82130000Y-149997500D03*
X82130000Y-152537500D03*
X89750000Y-152537500D03*
X89750000Y-149997500D03*
X89750000Y-147457500D03*
X89750000Y-144917500D03*
X89750000Y-142377500D03*
X89750000Y-139837500D03*
X89750000Y-137297500D03*
X89750000Y-134757500D03*
X89750000Y-132217500D03*
X89750000Y-129677500D03*
%TD*%
D10*
%TO.C,oled1*%
X83000000Y-199500000D03*
X85000000Y-199500000D03*
X87000000Y-199500000D03*
X89000000Y-199500000D03*
%TD*%
D11*
%TO.C,UpperLED1*%
X82130000Y-103640000D03*
D12*
X82130000Y-106180000D03*
X82130000Y-108720000D03*
X82130000Y-111260000D03*
X82130000Y-113800000D03*
X82130000Y-116340000D03*
X82130000Y-118880000D03*
X82130000Y-121420000D03*
X82130000Y-123960000D03*
X82130000Y-126500000D03*
X89750000Y-126500000D03*
X89750000Y-123960000D03*
X89750000Y-121420000D03*
X89750000Y-118880000D03*
X89750000Y-116340000D03*
X89750000Y-113800000D03*
X89750000Y-111260000D03*
X89750000Y-108720000D03*
X89750000Y-106180000D03*
X89750000Y-103640000D03*
%TD*%
D10*
%TO.C,oled2*%
X111000000Y-199500000D03*
X113000000Y-199500000D03*
X115000000Y-199500000D03*
X117000000Y-199500000D03*
%TD*%
%TO.C,mute1*%
X89000000Y-183500000D03*
X83000000Y-183500000D03*
X83000000Y-188500000D03*
X89000000Y-188500000D03*
X89000000Y-186000000D03*
X83000000Y-186000000D03*
%TD*%
D11*
%TO.C,LowerLED2*%
X109880000Y-129760000D03*
D12*
X109880000Y-132300000D03*
X109880000Y-134840000D03*
X109880000Y-137380000D03*
X109880000Y-139920000D03*
X109880000Y-142460000D03*
X109880000Y-145000000D03*
X109880000Y-147540000D03*
X109880000Y-150080000D03*
X109880000Y-152620000D03*
X117500000Y-152620000D03*
X117500000Y-150080000D03*
X117500000Y-147540000D03*
X117500000Y-145000000D03*
X117500000Y-142460000D03*
X117500000Y-139920000D03*
X117500000Y-137380000D03*
X117500000Y-134840000D03*
X117500000Y-132300000D03*
X117500000Y-129760000D03*
%TD*%
D10*
%TO.C,SW10*%
X108750000Y-93000000D03*
X118750000Y-93000000D03*
X113750000Y-93000000D03*
%TD*%
%TO.C,solo2*%
X116750000Y-161750000D03*
X110750000Y-161750000D03*
X110750000Y-166750000D03*
X116750000Y-166750000D03*
X116750000Y-164250000D03*
X110750000Y-164250000D03*
%TD*%
D11*
%TO.C,UpperLED2*%
X109880000Y-103680000D03*
D12*
X109880000Y-106220000D03*
X109880000Y-108760000D03*
X109880000Y-111300000D03*
X109880000Y-113840000D03*
X109880000Y-116380000D03*
X109880000Y-118920000D03*
X109880000Y-121460000D03*
X109880000Y-124000000D03*
X109880000Y-126540000D03*
X117500000Y-126540000D03*
X117500000Y-124000000D03*
X117500000Y-121460000D03*
X117500000Y-118920000D03*
X117500000Y-116380000D03*
X117500000Y-113840000D03*
X117500000Y-111300000D03*
X117500000Y-108760000D03*
X117500000Y-106220000D03*
X117500000Y-103680000D03*
%TD*%
D10*
%TO.C,mute2*%
X117000000Y-183500000D03*
X111000000Y-183500000D03*
X111000000Y-188500000D03*
X117000000Y-188500000D03*
X117000000Y-186000000D03*
X111000000Y-186000000D03*
%TD*%
%TO.C,solo1*%
X89000000Y-161750000D03*
X83000000Y-161750000D03*
X83000000Y-166750000D03*
X89000000Y-166750000D03*
X89000000Y-164250000D03*
X83000000Y-164250000D03*
%TD*%
D13*
%TO.C,U4*%
X95880000Y-189110000D03*
D14*
X95880000Y-186570000D03*
X95880000Y-184030000D03*
X95880000Y-181490000D03*
X95880000Y-178950000D03*
X95880000Y-176410000D03*
X95880000Y-173870000D03*
X95880000Y-171330000D03*
X95880000Y-168790000D03*
X95880000Y-166250000D03*
X95880000Y-163710000D03*
X95880000Y-161170000D03*
X95880000Y-158630000D03*
X95880000Y-156090000D03*
X103500000Y-156090000D03*
X103500000Y-158630000D03*
X103500000Y-161170000D03*
X103500000Y-163710000D03*
X103500000Y-166250000D03*
X103500000Y-168790000D03*
X103500000Y-171330000D03*
X103500000Y-173870000D03*
X103500000Y-176410000D03*
X103500000Y-178950000D03*
X103500000Y-181490000D03*
X103500000Y-184030000D03*
X103500000Y-186570000D03*
X103500000Y-189110000D03*
%TD*%
D13*
%TO.C,U6*%
X95750000Y-131530000D03*
D14*
X95750000Y-128990000D03*
X95750000Y-126450000D03*
X95750000Y-123910000D03*
X95750000Y-121370000D03*
X95750000Y-118830000D03*
X95750000Y-116290000D03*
X95750000Y-113750000D03*
X95750000Y-111210000D03*
X95750000Y-108670000D03*
X95750000Y-106130000D03*
X95750000Y-103590000D03*
X103370000Y-103590000D03*
X103370000Y-106130000D03*
X103370000Y-108670000D03*
X103370000Y-111210000D03*
X103370000Y-113750000D03*
X103370000Y-116290000D03*
X103370000Y-118830000D03*
X103370000Y-121370000D03*
X103370000Y-123910000D03*
X103370000Y-126450000D03*
X103370000Y-128990000D03*
X103370000Y-131530000D03*
%TD*%
M02*
