%TF.GenerationSoftware,KiCad,Pcbnew,8.0.6*%
%TF.CreationDate,2024-12-09T18:37:17+11:00*%
%TF.ProjectId,mixer,6d697865-722e-46b6-9963-61645f706362,rev?*%
%TF.SameCoordinates,Original*%
%TF.FileFunction,Paste,Top*%
%TF.FilePolarity,Positive*%
%FSLAX46Y46*%
G04 Gerber Fmt 4.6, Leading zero omitted, Abs format (unit mm)*
G04 Created by KiCad (PCBNEW 8.0.6) date 2024-12-09 18:37:17*
%MOMM*%
%LPD*%
G01*
G04 APERTURE LIST*
G04 Aperture macros list*
%AMRoundRect*
0 Rectangle with rounded corners*
0 $1 Rounding radius*
0 $2 $3 $4 $5 $6 $7 $8 $9 X,Y pos of 4 corners*
0 Add a 4 corners polygon primitive as box body*
4,1,4,$2,$3,$4,$5,$6,$7,$8,$9,$2,$3,0*
0 Add four circle primitives for the rounded corners*
1,1,$1+$1,$2,$3*
1,1,$1+$1,$4,$5*
1,1,$1+$1,$6,$7*
1,1,$1+$1,$8,$9*
0 Add four rect primitives between the rounded corners*
20,1,$1+$1,$2,$3,$4,$5,0*
20,1,$1+$1,$4,$5,$6,$7,0*
20,1,$1+$1,$6,$7,$8,$9,0*
20,1,$1+$1,$8,$9,$2,$3,0*%
G04 Aperture macros list end*
%ADD10R,0.300000X1.600000*%
%ADD11R,2.000000X0.600000*%
%ADD12RoundRect,0.150000X-0.875000X-0.150000X0.875000X-0.150000X0.875000X0.150000X-0.875000X0.150000X0*%
G04 APERTURE END LIST*
D10*
%TO.C,U7*%
X299175000Y-169050000D03*
X299825000Y-169050000D03*
X300475000Y-169050000D03*
X301125000Y-169050000D03*
X301775000Y-169050000D03*
X302425000Y-169050000D03*
X303075000Y-169050000D03*
X303725000Y-169050000D03*
X304375000Y-169050000D03*
X305025000Y-169050000D03*
X305675000Y-169050000D03*
X306325000Y-169050000D03*
X306325000Y-163450000D03*
X305675000Y-163450000D03*
X305025000Y-163450000D03*
X304375000Y-163450000D03*
X303725000Y-163450000D03*
X303075000Y-163450000D03*
X302425000Y-163450000D03*
X301775000Y-163450000D03*
X301125000Y-163450000D03*
X300475000Y-163450000D03*
X299825000Y-163450000D03*
X299175000Y-163450000D03*
%TD*%
D11*
%TO.C,U13*%
X307450000Y-67485000D03*
X307450000Y-66215000D03*
X307450000Y-64945000D03*
X307450000Y-63675000D03*
X307450000Y-62405000D03*
X307450000Y-61135000D03*
X307450000Y-59865000D03*
X307450000Y-58595000D03*
X307450000Y-57325000D03*
X307450000Y-56055000D03*
X307450000Y-54785000D03*
X307450000Y-53515000D03*
X298050000Y-53515000D03*
X298050000Y-54785000D03*
X298050000Y-56055000D03*
X298050000Y-57325000D03*
X298050000Y-58595000D03*
X298050000Y-59865000D03*
X298050000Y-61135000D03*
X298050000Y-62405000D03*
X298050000Y-63675000D03*
X298050000Y-64945000D03*
X298050000Y-66215000D03*
X298050000Y-67485000D03*
%TD*%
D12*
%TO.C,U6*%
X299000000Y-141480000D03*
X299000000Y-142750000D03*
X299000000Y-144020000D03*
X299000000Y-145290000D03*
X299000000Y-146560000D03*
X299000000Y-147830000D03*
X299000000Y-149100000D03*
X299000000Y-150370000D03*
X299000000Y-151640000D03*
X299000000Y-152910000D03*
X299000000Y-154180000D03*
X299000000Y-155450000D03*
X308300000Y-155450000D03*
X308300000Y-154180000D03*
X308300000Y-152910000D03*
X308300000Y-151640000D03*
X308300000Y-150370000D03*
X308300000Y-149100000D03*
X308300000Y-147830000D03*
X308300000Y-146560000D03*
X308300000Y-145290000D03*
X308300000Y-144020000D03*
X308300000Y-142750000D03*
X308300000Y-141480000D03*
%TD*%
M02*
