%TF.GenerationSoftware,KiCad,Pcbnew,8.0.6*%
%TF.CreationDate,2024-12-09T18:37:17+11:00*%
%TF.ProjectId,mixer,6d697865-722e-46b6-9963-61645f706362,rev?*%
%TF.SameCoordinates,Original*%
%TF.FileFunction,Copper,L4,Bot*%
%TF.FilePolarity,Positive*%
%FSLAX46Y46*%
G04 Gerber Fmt 4.6, Leading zero omitted, Abs format (unit mm)*
G04 Created by KiCad (PCBNEW 8.0.6) date 2024-12-09 18:37:17*
%MOMM*%
%LPD*%
G01*
G04 APERTURE LIST*
%TA.AperFunction,ComponentPad*%
%ADD10C,1.524000*%
%TD*%
%TA.AperFunction,ComponentPad*%
%ADD11R,2.032000X2.032000*%
%TD*%
%TA.AperFunction,ComponentPad*%
%ADD12C,2.032000*%
%TD*%
%TA.AperFunction,ComponentPad*%
%ADD13C,1.600000*%
%TD*%
%TA.AperFunction,ComponentPad*%
%ADD14O,1.600000X1.600000*%
%TD*%
%TA.AperFunction,ComponentPad*%
%ADD15R,1.700000X1.700000*%
%TD*%
%TA.AperFunction,ComponentPad*%
%ADD16O,1.700000X1.700000*%
%TD*%
%TA.AperFunction,ComponentPad*%
%ADD17R,1.600000X1.600000*%
%TD*%
%TA.AperFunction,ViaPad*%
%ADD18C,0.600000*%
%TD*%
%TA.AperFunction,Conductor*%
%ADD19C,0.200000*%
%TD*%
G04 APERTURE END LIST*
D10*
%TO.P,solo4,1,1*%
%TO.N,Net-(U6-I3)*%
X172000000Y-136420000D03*
%TO.P,solo4,2,2*%
%TO.N,GND*%
X166000000Y-136420000D03*
%TO.P,solo4,3,K*%
%TO.N,Net-(U4-SEG_D)*%
X166000000Y-141420000D03*
%TO.P,solo4,4,A*%
%TO.N,Net-(U4-DIG_1)*%
X172000000Y-141420000D03*
%TO.P,solo4,5*%
%TO.N,N/C*%
X172000000Y-138920000D03*
%TO.P,solo4,6*%
X166000000Y-138920000D03*
%TD*%
%TO.P,SW4,1,A*%
%TO.N,Net-(SW4-C)*%
X174500000Y-64170000D03*
%TO.P,SW4,2,B*%
%TO.N,Net-(SW4-B)*%
X174500000Y-54170000D03*
%TO.P,SW4,3,C*%
%TO.N,GND*%
X174500000Y-59170000D03*
%TD*%
%TO.P,solo7,1,1*%
%TO.N,Net-(U6-I6)*%
X256000000Y-136420000D03*
%TO.P,solo7,2,2*%
%TO.N,GND*%
X250000000Y-136420000D03*
%TO.P,solo7,3,K*%
%TO.N,Net-(U4-SEG_G)*%
X250000000Y-141420000D03*
%TO.P,solo7,4,A*%
%TO.N,Net-(U4-DIG_1)*%
X256000000Y-141420000D03*
%TO.P,solo7,5*%
%TO.N,N/C*%
X256000000Y-138920000D03*
%TO.P,solo7,6*%
X250000000Y-138920000D03*
%TD*%
%TO.P,oled7,1,GND*%
%TO.N,GND*%
X250000000Y-174420000D03*
%TO.P,oled7,2,VCC*%
%TO.N,+5V*%
X252000000Y-174420000D03*
%TO.P,oled7,3,SCL*%
%TO.N,Net-(U7-SC6)*%
X254000000Y-174420000D03*
%TO.P,oled7,4,SCA*%
%TO.N,Net-(U7-SD6)*%
X256000000Y-174420000D03*
%TD*%
%TO.P,solo5,1,1*%
%TO.N,Net-(U6-I4)*%
X200000000Y-136420000D03*
%TO.P,solo5,2,2*%
%TO.N,GND*%
X194000000Y-136420000D03*
%TO.P,solo5,3,K*%
%TO.N,Net-(U4-SEG_E)*%
X194000000Y-141420000D03*
%TO.P,solo5,4,A*%
%TO.N,Net-(U4-DIG_1)*%
X200000000Y-141420000D03*
%TO.P,solo5,5*%
%TO.N,N/C*%
X200000000Y-138920000D03*
%TO.P,solo5,6*%
X194000000Y-138920000D03*
%TD*%
%TO.P,SW7,1,A*%
%TO.N,Net-(SW7-C)*%
X258500000Y-64170000D03*
%TO.P,SW7,2,B*%
%TO.N,Net-(SW7-B)*%
X258500000Y-54170000D03*
%TO.P,SW7,3,C*%
%TO.N,GND*%
X258500000Y-59170000D03*
%TD*%
D11*
%TO.P,BAR14,1,A*%
%TO.N,Net-(U9-DIG_7)*%
X221297500Y-101420000D03*
D12*
%TO.P,BAR14,2,A*%
X221297500Y-103960000D03*
%TO.P,BAR14,3,A*%
X221297500Y-106500000D03*
%TO.P,BAR14,4,A*%
X221297500Y-109040000D03*
%TO.P,BAR14,5,A*%
X221297500Y-111580000D03*
%TO.P,BAR14,6,A*%
%TO.N,Net-(U10-DIG_7)*%
X221297500Y-114120000D03*
%TO.P,BAR14,7,A*%
X221297500Y-116660000D03*
%TO.P,BAR14,8,A*%
X221297500Y-119200000D03*
%TO.P,BAR14,9,A*%
X221297500Y-121740000D03*
%TO.P,BAR14,10,A*%
X221297500Y-124280000D03*
%TO.P,BAR14,11,K*%
%TO.N,Net-(U10-SEG_E)*%
X228917500Y-124280000D03*
%TO.P,BAR14,12,K*%
%TO.N,Net-(U10-SEG_D)*%
X228917500Y-121740000D03*
%TO.P,BAR14,13,K*%
%TO.N,Net-(U10-SEG_C)*%
X228917500Y-119200000D03*
%TO.P,BAR14,14,K*%
%TO.N,Net-(U10-SEG_B)*%
X228917500Y-116660000D03*
%TO.P,BAR14,15,K*%
%TO.N,Net-(U10-SEG_A)*%
X228917500Y-114120000D03*
%TO.P,BAR14,16,K*%
%TO.N,Net-(U9-SEG_E)*%
X228917500Y-111580000D03*
%TO.P,BAR14,17,K*%
%TO.N,Net-(U9-SEG_D)*%
X228917500Y-109040000D03*
%TO.P,BAR14,18,K*%
%TO.N,Net-(U9-SEG_C)*%
X228917500Y-106500000D03*
%TO.P,BAR14,19,K*%
%TO.N,Net-(U9-SEG_B)*%
X228917500Y-103960000D03*
%TO.P,BAR14,20,K*%
%TO.N,Net-(U9-SEG_A)*%
X228917500Y-101420000D03*
%TD*%
D11*
%TO.P,BAR10,1,A*%
%TO.N,Net-(U9-DIG_4)*%
X109297500Y-101420000D03*
D12*
%TO.P,BAR10,2,A*%
X109297500Y-103960000D03*
%TO.P,BAR10,3,A*%
X109297500Y-106500000D03*
%TO.P,BAR10,4,A*%
X109297500Y-109040000D03*
%TO.P,BAR10,5,A*%
X109297500Y-111580000D03*
%TO.P,BAR10,6,A*%
%TO.N,Net-(U10-DIG_4)*%
X109297500Y-114120000D03*
%TO.P,BAR10,7,A*%
X109297500Y-116660000D03*
%TO.P,BAR10,8,A*%
X109297500Y-119200000D03*
%TO.P,BAR10,9,A*%
X109297500Y-121740000D03*
%TO.P,BAR10,10,A*%
X109297500Y-124280000D03*
%TO.P,BAR10,11,K*%
%TO.N,Net-(U10-SEG_E)*%
X116917500Y-124280000D03*
%TO.P,BAR10,12,K*%
%TO.N,Net-(U10-SEG_D)*%
X116917500Y-121740000D03*
%TO.P,BAR10,13,K*%
%TO.N,Net-(U10-SEG_C)*%
X116917500Y-119200000D03*
%TO.P,BAR10,14,K*%
%TO.N,Net-(U10-SEG_B)*%
X116917500Y-116660000D03*
%TO.P,BAR10,15,K*%
%TO.N,Net-(U10-SEG_A)*%
X116917500Y-114120000D03*
%TO.P,BAR10,16,K*%
%TO.N,Net-(U9-SEG_E)*%
X116917500Y-111580000D03*
%TO.P,BAR10,17,K*%
%TO.N,Net-(U9-SEG_D)*%
X116917500Y-109040000D03*
%TO.P,BAR10,18,K*%
%TO.N,Net-(U9-SEG_C)*%
X116917500Y-106500000D03*
%TO.P,BAR10,19,K*%
%TO.N,Net-(U9-SEG_B)*%
X116917500Y-103960000D03*
%TO.P,BAR10,20,K*%
%TO.N,Net-(U9-SEG_A)*%
X116917500Y-101420000D03*
%TD*%
D10*
%TO.P,SW8,1,A*%
%TO.N,Net-(SW8-B)*%
X286500000Y-64170000D03*
%TO.P,SW8,2,B*%
%TO.N,Net-(SW8-A)*%
X286500000Y-54170000D03*
%TO.P,SW8,3,C*%
%TO.N,GND*%
X286500000Y-59170000D03*
%TD*%
%TO.P,oled3,1,GND*%
%TO.N,GND*%
X138000000Y-174420000D03*
%TO.P,oled3,2,VCC*%
%TO.N,+5V*%
X140000000Y-174420000D03*
%TO.P,oled3,3,SCL*%
%TO.N,Net-(U7-SC2)*%
X142000000Y-174420000D03*
%TO.P,oled3,4,SCA*%
%TO.N,Net-(U7-SD2)*%
X144000000Y-174420000D03*
%TD*%
%TO.P,oled8,1,GND*%
%TO.N,GND*%
X278000000Y-174420000D03*
%TO.P,oled8,2,VCC*%
%TO.N,+5V*%
X280000000Y-174420000D03*
%TO.P,oled8,3,SCL*%
%TO.N,Net-(U7-SC7)*%
X282000000Y-174420000D03*
%TO.P,oled8,4,SCA*%
%TO.N,Net-(U7-SD7)*%
X284000000Y-174420000D03*
%TD*%
%TO.P,oled1,1,GND*%
%TO.N,GND*%
X82000000Y-174420000D03*
%TO.P,oled1,2,VCC*%
%TO.N,+5V*%
X84000000Y-174420000D03*
%TO.P,oled1,3,SCL*%
%TO.N,Net-(U7-SC0)*%
X86000000Y-174420000D03*
%TO.P,oled1,4,SCA*%
%TO.N,Net-(U7-SD0)*%
X88000000Y-174420000D03*
%TD*%
%TO.P,SW5,1,A*%
%TO.N,Net-(SW5-A)*%
X202500000Y-64170000D03*
%TO.P,SW5,2,B*%
%TO.N,Net-(SW5-C)*%
X202500000Y-54170000D03*
%TO.P,SW5,3,C*%
%TO.N,GND*%
X202500000Y-59170000D03*
%TD*%
%TO.P,mute9,1,1*%
%TO.N,Net-(U6-I8)*%
X88000000Y-155920000D03*
%TO.P,mute9,2,2*%
%TO.N,GND*%
X82000000Y-155920000D03*
%TO.P,mute9,3,K*%
%TO.N,Net-(U4-SEG_A)*%
X82000000Y-160920000D03*
%TO.P,mute9,4,A*%
%TO.N,Net-(U4-DIG_0)*%
X88000000Y-160920000D03*
%TO.P,mute9,5*%
%TO.N,N/C*%
X88000000Y-158420000D03*
%TO.P,mute9,6*%
X82000000Y-158420000D03*
%TD*%
%TO.P,mute12,1,1*%
%TO.N,Net-(U6-I11)*%
X172000000Y-155920000D03*
%TO.P,mute12,2,2*%
%TO.N,GND*%
X166000000Y-155920000D03*
%TO.P,mute12,3,K*%
%TO.N,Net-(U4-SEG_D)*%
X166000000Y-160920000D03*
%TO.P,mute12,4,A*%
%TO.N,Net-(U4-DIG_0)*%
X172000000Y-160920000D03*
%TO.P,mute12,5*%
%TO.N,N/C*%
X172000000Y-158420000D03*
%TO.P,mute12,6*%
X166000000Y-158420000D03*
%TD*%
D11*
%TO.P,BAR16,1,A*%
%TO.N,Net-(U9-DIG_1)*%
X277297500Y-101420000D03*
D12*
%TO.P,BAR16,2,A*%
X277297500Y-103960000D03*
%TO.P,BAR16,3,A*%
X277297500Y-106500000D03*
%TO.P,BAR16,4,A*%
X277297500Y-109040000D03*
%TO.P,BAR16,5,A*%
X277297500Y-111580000D03*
%TO.P,BAR16,6,A*%
%TO.N,Net-(U10-DIG_1)*%
X277297500Y-114120000D03*
%TO.P,BAR16,7,A*%
X277297500Y-116660000D03*
%TO.P,BAR16,8,A*%
X277297500Y-119200000D03*
%TO.P,BAR16,9,A*%
X277297500Y-121740000D03*
%TO.P,BAR16,10,A*%
X277297500Y-124280000D03*
%TO.P,BAR16,11,K*%
%TO.N,Net-(U10-SEG_E)*%
X284917500Y-124280000D03*
%TO.P,BAR16,12,K*%
%TO.N,Net-(U10-SEG_D)*%
X284917500Y-121740000D03*
%TO.P,BAR16,13,K*%
%TO.N,Net-(U10-SEG_C)*%
X284917500Y-119200000D03*
%TO.P,BAR16,14,K*%
%TO.N,Net-(U10-SEG_B)*%
X284917500Y-116660000D03*
%TO.P,BAR16,15,K*%
%TO.N,Net-(U10-SEG_A)*%
X284917500Y-114120000D03*
%TO.P,BAR16,16,K*%
%TO.N,Net-(U9-SEG_E)*%
X284917500Y-111580000D03*
%TO.P,BAR16,17,K*%
%TO.N,Net-(U9-SEG_D)*%
X284917500Y-109040000D03*
%TO.P,BAR16,18,K*%
%TO.N,Net-(U9-SEG_C)*%
X284917500Y-106500000D03*
%TO.P,BAR16,19,K*%
%TO.N,Net-(U9-SEG_B)*%
X284917500Y-103960000D03*
%TO.P,BAR16,20,K*%
%TO.N,Net-(U9-SEG_A)*%
X284917500Y-101420000D03*
%TD*%
D13*
%TO.P,C1,1*%
%TO.N,GND*%
X300670000Y-96750000D03*
D14*
%TO.P,C1,2*%
%TO.N,+5V*%
X308170000Y-96750000D03*
%TD*%
D13*
%TO.P,C2,1*%
%TO.N,GND*%
X314000000Y-78750000D03*
D14*
%TO.P,C2,2*%
%TO.N,+5V*%
X321500000Y-78750000D03*
%TD*%
D10*
%TO.P,solo8,1,1*%
%TO.N,Net-(U6-I7)*%
X284000000Y-136420000D03*
%TO.P,solo8,2,2*%
%TO.N,GND*%
X278000000Y-136420000D03*
%TO.P,solo8,3,K*%
%TO.N,Net-(U4-SEG_DP)*%
X278000000Y-141420000D03*
%TO.P,solo8,4,A*%
%TO.N,Net-(U4-DIG_1)*%
X284000000Y-141420000D03*
%TO.P,solo8,5*%
%TO.N,N/C*%
X284000000Y-138920000D03*
%TO.P,solo8,6*%
X278000000Y-138920000D03*
%TD*%
%TO.P,oled6,1,GND*%
%TO.N,GND*%
X222000000Y-174420000D03*
%TO.P,oled6,2,VCC*%
%TO.N,+5V*%
X224000000Y-174420000D03*
%TO.P,oled6,3,SCL*%
%TO.N,Net-(U7-SC5)*%
X226000000Y-174420000D03*
%TO.P,oled6,4,SCA*%
%TO.N,Net-(U7-SD5)*%
X228000000Y-174420000D03*
%TD*%
D11*
%TO.P,BAR9,1,A*%
%TO.N,Net-(U9-DIG_0)*%
X81297500Y-101420000D03*
D12*
%TO.P,BAR9,2,A*%
X81297500Y-103960000D03*
%TO.P,BAR9,3,A*%
X81297500Y-106500000D03*
%TO.P,BAR9,4,A*%
X81297500Y-109040000D03*
%TO.P,BAR9,5,A*%
X81297500Y-111580000D03*
%TO.P,BAR9,6,A*%
%TO.N,Net-(U10-DIG_0)*%
X81297500Y-114120000D03*
%TO.P,BAR9,7,A*%
X81297500Y-116660000D03*
%TO.P,BAR9,8,A*%
X81297500Y-119200000D03*
%TO.P,BAR9,9,A*%
X81297500Y-121740000D03*
%TO.P,BAR9,10,A*%
X81297500Y-124280000D03*
%TO.P,BAR9,11,K*%
%TO.N,Net-(U10-SEG_E)*%
X88917500Y-124280000D03*
%TO.P,BAR9,12,K*%
%TO.N,Net-(U10-SEG_D)*%
X88917500Y-121740000D03*
%TO.P,BAR9,13,K*%
%TO.N,Net-(U10-SEG_C)*%
X88917500Y-119200000D03*
%TO.P,BAR9,14,K*%
%TO.N,Net-(U10-SEG_B)*%
X88917500Y-116660000D03*
%TO.P,BAR9,15,K*%
%TO.N,Net-(U10-SEG_A)*%
X88917500Y-114120000D03*
%TO.P,BAR9,16,K*%
%TO.N,Net-(U9-SEG_E)*%
X88917500Y-111580000D03*
%TO.P,BAR9,17,K*%
%TO.N,Net-(U9-SEG_D)*%
X88917500Y-109040000D03*
%TO.P,BAR9,18,K*%
%TO.N,Net-(U9-SEG_C)*%
X88917500Y-106500000D03*
%TO.P,BAR9,19,K*%
%TO.N,Net-(U9-SEG_B)*%
X88917500Y-103960000D03*
%TO.P,BAR9,20,K*%
%TO.N,Net-(U9-SEG_A)*%
X88917500Y-101420000D03*
%TD*%
D11*
%TO.P,BAR15,1,A*%
%TO.N,Net-(U9-DIG_5)*%
X249297500Y-101420000D03*
D12*
%TO.P,BAR15,2,A*%
X249297500Y-103960000D03*
%TO.P,BAR15,3,A*%
X249297500Y-106500000D03*
%TO.P,BAR15,4,A*%
X249297500Y-109040000D03*
%TO.P,BAR15,5,A*%
X249297500Y-111580000D03*
%TO.P,BAR15,6,A*%
%TO.N,Net-(U10-DIG_5)*%
X249297500Y-114120000D03*
%TO.P,BAR15,7,A*%
X249297500Y-116660000D03*
%TO.P,BAR15,8,A*%
X249297500Y-119200000D03*
%TO.P,BAR15,9,A*%
X249297500Y-121740000D03*
%TO.P,BAR15,10,A*%
X249297500Y-124280000D03*
%TO.P,BAR15,11,K*%
%TO.N,Net-(U10-SEG_E)*%
X256917500Y-124280000D03*
%TO.P,BAR15,12,K*%
%TO.N,Net-(U10-SEG_D)*%
X256917500Y-121740000D03*
%TO.P,BAR15,13,K*%
%TO.N,Net-(U10-SEG_C)*%
X256917500Y-119200000D03*
%TO.P,BAR15,14,K*%
%TO.N,Net-(U10-SEG_B)*%
X256917500Y-116660000D03*
%TO.P,BAR15,15,K*%
%TO.N,Net-(U10-SEG_A)*%
X256917500Y-114120000D03*
%TO.P,BAR15,16,K*%
%TO.N,Net-(U9-SEG_E)*%
X256917500Y-111580000D03*
%TO.P,BAR15,17,K*%
%TO.N,Net-(U9-SEG_D)*%
X256917500Y-109040000D03*
%TO.P,BAR15,18,K*%
%TO.N,Net-(U9-SEG_C)*%
X256917500Y-106500000D03*
%TO.P,BAR15,19,K*%
%TO.N,Net-(U9-SEG_B)*%
X256917500Y-103960000D03*
%TO.P,BAR15,20,K*%
%TO.N,Net-(U9-SEG_A)*%
X256917500Y-101420000D03*
%TD*%
D10*
%TO.P,oled2,1,GND*%
%TO.N,GND*%
X110000000Y-174420000D03*
%TO.P,oled2,2,VCC*%
%TO.N,+5V*%
X112000000Y-174420000D03*
%TO.P,oled2,3,SCL*%
%TO.N,Net-(U7-SC1)*%
X114000000Y-174420000D03*
%TO.P,oled2,4,SCA*%
%TO.N,Net-(U7-SD1)*%
X116000000Y-174420000D03*
%TD*%
D11*
%TO.P,BAR11,1,A*%
%TO.N,Net-(U9-DIG_6)*%
X137297500Y-101420000D03*
D12*
%TO.P,BAR11,2,A*%
X137297500Y-103960000D03*
%TO.P,BAR11,3,A*%
X137297500Y-106500000D03*
%TO.P,BAR11,4,A*%
X137297500Y-109040000D03*
%TO.P,BAR11,5,A*%
X137297500Y-111580000D03*
%TO.P,BAR11,6,A*%
%TO.N,Net-(U10-DIG_6)*%
X137297500Y-114120000D03*
%TO.P,BAR11,7,A*%
X137297500Y-116660000D03*
%TO.P,BAR11,8,A*%
X137297500Y-119200000D03*
%TO.P,BAR11,9,A*%
X137297500Y-121740000D03*
%TO.P,BAR11,10,A*%
X137297500Y-124280000D03*
%TO.P,BAR11,11,K*%
%TO.N,Net-(U10-SEG_E)*%
X144917500Y-124280000D03*
%TO.P,BAR11,12,K*%
%TO.N,Net-(U10-SEG_D)*%
X144917500Y-121740000D03*
%TO.P,BAR11,13,K*%
%TO.N,Net-(U10-SEG_C)*%
X144917500Y-119200000D03*
%TO.P,BAR11,14,K*%
%TO.N,Net-(U10-SEG_B)*%
X144917500Y-116660000D03*
%TO.P,BAR11,15,K*%
%TO.N,Net-(U10-SEG_A)*%
X144917500Y-114120000D03*
%TO.P,BAR11,16,K*%
%TO.N,Net-(U9-SEG_E)*%
X144917500Y-111580000D03*
%TO.P,BAR11,17,K*%
%TO.N,Net-(U9-SEG_D)*%
X144917500Y-109040000D03*
%TO.P,BAR11,18,K*%
%TO.N,Net-(U9-SEG_C)*%
X144917500Y-106500000D03*
%TO.P,BAR11,19,K*%
%TO.N,Net-(U9-SEG_B)*%
X144917500Y-103960000D03*
%TO.P,BAR11,20,K*%
%TO.N,Net-(U9-SEG_A)*%
X144917500Y-101420000D03*
%TD*%
D15*
%TO.P, 111,1*%
%TO.N,/display/SDA*%
X314250000Y-176170000D03*
D16*
%TO.P, 111,2*%
%TO.N,unconnected-( 111-Pad2)*%
X314250000Y-178710000D03*
%TO.P, 111,3*%
%TO.N,unconnected-( 111-Pad3)*%
X314250000Y-181250000D03*
%TO.P, 111,4*%
%TO.N,unconnected-( 111-Pad4)*%
X314250000Y-183790000D03*
%TO.P, 111,5*%
%TO.N,unconnected-( 111-Pad5)*%
X314250000Y-186330000D03*
%TO.P, 111,6*%
%TO.N,unconnected-( 111-Pad6)*%
X314250000Y-188870000D03*
%TO.P, 111,7*%
%TO.N,unconnected-( 111-Pad7)*%
X314250000Y-191410000D03*
%TO.P, 111,8*%
%TO.N,unconnected-( 111-Pad8)*%
X314250000Y-193950000D03*
%TO.P, 111,9*%
%TO.N,unconnected-( 111-Pad9)*%
X314250000Y-196490000D03*
%TO.P, 111,10*%
%TO.N,unconnected-( 111-Pad10)*%
X314250000Y-199030000D03*
%TD*%
D11*
%TO.P,BAR4,1,A*%
%TO.N,Net-(U11-DIG_2)*%
X165297500Y-75420000D03*
D12*
%TO.P,BAR4,2,A*%
X165297500Y-77960000D03*
%TO.P,BAR4,3,A*%
X165297500Y-80500000D03*
%TO.P,BAR4,4,A*%
X165297500Y-83040000D03*
%TO.P,BAR4,5,A*%
X165297500Y-85580000D03*
%TO.P,BAR4,6,A*%
%TO.N,Net-(U12-DIG_2)*%
X165297500Y-88120000D03*
%TO.P,BAR4,7,A*%
X165297500Y-90660000D03*
%TO.P,BAR4,8,A*%
X165297500Y-93200000D03*
%TO.P,BAR4,9,A*%
X165297500Y-95740000D03*
%TO.P,BAR4,10,A*%
X165297500Y-98280000D03*
%TO.P,BAR4,11,K*%
%TO.N,Net-(U12-SEG_E)*%
X172917500Y-98280000D03*
%TO.P,BAR4,12,K*%
%TO.N,Net-(U12-SEG_D)*%
X172917500Y-95740000D03*
%TO.P,BAR4,13,K*%
%TO.N,Net-(U12-SEG_C)*%
X172917500Y-93200000D03*
%TO.P,BAR4,14,K*%
%TO.N,Net-(U12-SEG_B)*%
X172917500Y-90660000D03*
%TO.P,BAR4,15,K*%
%TO.N,Net-(U12-SEG_A)*%
X172917500Y-88120000D03*
%TO.P,BAR4,16,K*%
%TO.N,Net-(U11-SEG_E)*%
X172917500Y-85580000D03*
%TO.P,BAR4,17,K*%
%TO.N,Net-(U11-SEG_D)*%
X172917500Y-83040000D03*
%TO.P,BAR4,18,K*%
%TO.N,Net-(U11-SEG_C)*%
X172917500Y-80500000D03*
%TO.P,BAR4,19,K*%
%TO.N,Net-(U11-SEG_B)*%
X172917500Y-77960000D03*
%TO.P,BAR4,20,K*%
%TO.N,Net-(U11-SEG_A)*%
X172917500Y-75420000D03*
%TD*%
D10*
%TO.P,SW3,1,A*%
%TO.N,Net-(SW3-A)*%
X146500000Y-64170000D03*
%TO.P,SW3,2,B*%
%TO.N,Net-(SW3-B)*%
X146500000Y-54170000D03*
%TO.P,SW3,3,C*%
%TO.N,GND*%
X146500000Y-59170000D03*
%TD*%
D13*
%TO.P,R1,1*%
%TO.N,GND*%
X146170000Y-204500000D03*
D14*
%TO.P,R1,2*%
%TO.N,Net-(U9-ISET)*%
X156330000Y-204500000D03*
%TD*%
D11*
%TO.P,BAR12,1,A*%
%TO.N,Net-(U9-DIG_2)*%
X165297500Y-101420000D03*
D12*
%TO.P,BAR12,2,A*%
X165297500Y-103960000D03*
%TO.P,BAR12,3,A*%
X165297500Y-106500000D03*
%TO.P,BAR12,4,A*%
X165297500Y-109040000D03*
%TO.P,BAR12,5,A*%
X165297500Y-111580000D03*
%TO.P,BAR12,6,A*%
%TO.N,Net-(U10-DIG_2)*%
X165297500Y-114120000D03*
%TO.P,BAR12,7,A*%
X165297500Y-116660000D03*
%TO.P,BAR12,8,A*%
X165297500Y-119200000D03*
%TO.P,BAR12,9,A*%
X165297500Y-121740000D03*
%TO.P,BAR12,10,A*%
X165297500Y-124280000D03*
%TO.P,BAR12,11,K*%
%TO.N,Net-(U10-SEG_E)*%
X172917500Y-124280000D03*
%TO.P,BAR12,12,K*%
%TO.N,Net-(U10-SEG_D)*%
X172917500Y-121740000D03*
%TO.P,BAR12,13,K*%
%TO.N,Net-(U10-SEG_C)*%
X172917500Y-119200000D03*
%TO.P,BAR12,14,K*%
%TO.N,Net-(U10-SEG_B)*%
X172917500Y-116660000D03*
%TO.P,BAR12,15,K*%
%TO.N,Net-(U10-SEG_A)*%
X172917500Y-114120000D03*
%TO.P,BAR12,16,K*%
%TO.N,Net-(U9-SEG_E)*%
X172917500Y-111580000D03*
%TO.P,BAR12,17,K*%
%TO.N,Net-(U9-SEG_D)*%
X172917500Y-109040000D03*
%TO.P,BAR12,18,K*%
%TO.N,Net-(U9-SEG_C)*%
X172917500Y-106500000D03*
%TO.P,BAR12,19,K*%
%TO.N,Net-(U9-SEG_B)*%
X172917500Y-103960000D03*
%TO.P,BAR12,20,K*%
%TO.N,Net-(U9-SEG_A)*%
X172917500Y-101420000D03*
%TD*%
D13*
%TO.P,R2,1*%
%TO.N,GND*%
X297920000Y-85250000D03*
D14*
%TO.P,R2,2*%
%TO.N,Net-(U10-ISET)*%
X308080000Y-85250000D03*
%TD*%
D10*
%TO.P,solo2,1,1*%
%TO.N,Net-(U6-I1)*%
X116000000Y-136420000D03*
%TO.P,solo2,2,2*%
%TO.N,GND*%
X110000000Y-136420000D03*
%TO.P,solo2,3,K*%
%TO.N,Net-(U4-SEG_B)*%
X110000000Y-141420000D03*
%TO.P,solo2,4,A*%
%TO.N,Net-(U4-DIG_1)*%
X116000000Y-141420000D03*
%TO.P,solo2,5*%
%TO.N,N/C*%
X116000000Y-138920000D03*
%TO.P,solo2,6*%
X110000000Y-138920000D03*
%TD*%
D11*
%TO.P,BAR5,1,A*%
%TO.N,Net-(U11-DIG_3)*%
X193297500Y-75420000D03*
D12*
%TO.P,BAR5,2,A*%
X193297500Y-77960000D03*
%TO.P,BAR5,3,A*%
X193297500Y-80500000D03*
%TO.P,BAR5,4,A*%
X193297500Y-83040000D03*
%TO.P,BAR5,5,A*%
X193297500Y-85580000D03*
%TO.P,BAR5,6,A*%
%TO.N,Net-(U12-DIG_3)*%
X193297500Y-88120000D03*
%TO.P,BAR5,7,A*%
X193297500Y-90660000D03*
%TO.P,BAR5,8,A*%
X193297500Y-93200000D03*
%TO.P,BAR5,9,A*%
X193297500Y-95740000D03*
%TO.P,BAR5,10,A*%
X193297500Y-98280000D03*
%TO.P,BAR5,11,K*%
%TO.N,Net-(U12-SEG_E)*%
X200917500Y-98280000D03*
%TO.P,BAR5,12,K*%
%TO.N,Net-(U12-SEG_D)*%
X200917500Y-95740000D03*
%TO.P,BAR5,13,K*%
%TO.N,Net-(U12-SEG_C)*%
X200917500Y-93200000D03*
%TO.P,BAR5,14,K*%
%TO.N,Net-(U12-SEG_B)*%
X200917500Y-90660000D03*
%TO.P,BAR5,15,K*%
%TO.N,Net-(U12-SEG_A)*%
X200917500Y-88120000D03*
%TO.P,BAR5,16,K*%
%TO.N,Net-(U11-SEG_E)*%
X200917500Y-85580000D03*
%TO.P,BAR5,17,K*%
%TO.N,Net-(U11-SEG_D)*%
X200917500Y-83040000D03*
%TO.P,BAR5,18,K*%
%TO.N,Net-(U11-SEG_C)*%
X200917500Y-80500000D03*
%TO.P,BAR5,19,K*%
%TO.N,Net-(U11-SEG_B)*%
X200917500Y-77960000D03*
%TO.P,BAR5,20,K*%
%TO.N,Net-(U11-SEG_A)*%
X200917500Y-75420000D03*
%TD*%
D13*
%TO.P,R3,1*%
%TO.N,GND*%
X298340000Y-103750000D03*
D14*
%TO.P,R3,2*%
%TO.N,Net-(U11-ISET)*%
X308500000Y-103750000D03*
%TD*%
D10*
%TO.P,mute10,1,1*%
%TO.N,Net-(U6-I9)*%
X116000000Y-155920000D03*
%TO.P,mute10,2,2*%
%TO.N,GND*%
X110000000Y-155920000D03*
%TO.P,mute10,3,K*%
%TO.N,Net-(U4-SEG_B)*%
X110000000Y-160920000D03*
%TO.P,mute10,4,A*%
%TO.N,Net-(U4-DIG_0)*%
X116000000Y-160920000D03*
%TO.P,mute10,5*%
%TO.N,N/C*%
X116000000Y-158420000D03*
%TO.P,mute10,6*%
X110000000Y-158420000D03*
%TD*%
D13*
%TO.P,C12,1*%
%TO.N,GND*%
X313750000Y-117500000D03*
D14*
%TO.P,C12,2*%
%TO.N,+5V*%
X321250000Y-117500000D03*
%TD*%
D15*
%TO.P, 11,1*%
%TO.N,/display/SCL*%
X314250000Y-126130000D03*
D16*
%TO.P, 11,2*%
%TO.N,/display/A0*%
X314250000Y-128670000D03*
%TO.P, 11,3*%
%TO.N,/display/A1*%
X314250000Y-131210000D03*
%TO.P, 11,4*%
%TO.N,/display/A2*%
X314250000Y-133750000D03*
%TO.P, 11,5*%
%TO.N,/gain/COM*%
X314250000Y-136290000D03*
%TO.P, 11,6*%
%TO.N,/gain/S0*%
X314250000Y-138830000D03*
%TO.P, 11,7*%
%TO.N,/gain/S1*%
X314250000Y-141370000D03*
%TO.P, 11,8*%
%TO.N,/gain/S2*%
X314250000Y-143910000D03*
%TO.P, 11,9*%
%TO.N,/gain/S3*%
X314250000Y-146450000D03*
%TO.P, 11,10*%
%TO.N,/buttons/COM*%
X314250000Y-148990000D03*
%TD*%
D13*
%TO.P,R5,1*%
%TO.N,+5V*%
X270340000Y-205750000D03*
D14*
%TO.P,R5,2*%
%TO.N,Net-(U4-ISET)*%
X280500000Y-205750000D03*
%TD*%
D11*
%TO.P,BAR3,1,A*%
%TO.N,Net-(U11-DIG_6)*%
X137297500Y-75420000D03*
D12*
%TO.P,BAR3,2,A*%
X137297500Y-77960000D03*
%TO.P,BAR3,3,A*%
X137297500Y-80500000D03*
%TO.P,BAR3,4,A*%
X137297500Y-83040000D03*
%TO.P,BAR3,5,A*%
X137297500Y-85580000D03*
%TO.P,BAR3,6,A*%
%TO.N,Net-(U12-DIG_6)*%
X137297500Y-88120000D03*
%TO.P,BAR3,7,A*%
X137297500Y-90660000D03*
%TO.P,BAR3,8,A*%
X137297500Y-93200000D03*
%TO.P,BAR3,9,A*%
X137297500Y-95740000D03*
%TO.P,BAR3,10,A*%
X137297500Y-98280000D03*
%TO.P,BAR3,11,K*%
%TO.N,Net-(U12-SEG_E)*%
X144917500Y-98280000D03*
%TO.P,BAR3,12,K*%
%TO.N,Net-(U12-SEG_D)*%
X144917500Y-95740000D03*
%TO.P,BAR3,13,K*%
%TO.N,Net-(U12-SEG_C)*%
X144917500Y-93200000D03*
%TO.P,BAR3,14,K*%
%TO.N,Net-(U12-SEG_B)*%
X144917500Y-90660000D03*
%TO.P,BAR3,15,K*%
%TO.N,Net-(U12-SEG_A)*%
X144917500Y-88120000D03*
%TO.P,BAR3,16,K*%
%TO.N,Net-(U11-SEG_E)*%
X144917500Y-85580000D03*
%TO.P,BAR3,17,K*%
%TO.N,Net-(U11-SEG_D)*%
X144917500Y-83040000D03*
%TO.P,BAR3,18,K*%
%TO.N,Net-(U11-SEG_C)*%
X144917500Y-80500000D03*
%TO.P,BAR3,19,K*%
%TO.N,Net-(U11-SEG_B)*%
X144917500Y-77960000D03*
%TO.P,BAR3,20,K*%
%TO.N,Net-(U11-SEG_A)*%
X144917500Y-75420000D03*
%TD*%
D10*
%TO.P,mute11,1,1*%
%TO.N,Net-(U6-I10)*%
X144000000Y-155920000D03*
%TO.P,mute11,2,2*%
%TO.N,GND*%
X138000000Y-155920000D03*
%TO.P,mute11,3,K*%
%TO.N,Net-(U4-SEG_C)*%
X138000000Y-160920000D03*
%TO.P,mute11,4,A*%
%TO.N,Net-(U4-DIG_0)*%
X144000000Y-160920000D03*
%TO.P,mute11,5*%
%TO.N,N/C*%
X144000000Y-158420000D03*
%TO.P,mute11,6*%
X138000000Y-158420000D03*
%TD*%
%TO.P,solo3,1,1*%
%TO.N,Net-(U6-I2)*%
X144000000Y-136420000D03*
%TO.P,solo3,2,2*%
%TO.N,GND*%
X138000000Y-136420000D03*
%TO.P,solo3,3,K*%
%TO.N,Net-(U4-SEG_C)*%
X138000000Y-141420000D03*
%TO.P,solo3,4,A*%
%TO.N,Net-(U4-DIG_1)*%
X144000000Y-141420000D03*
%TO.P,solo3,5*%
%TO.N,N/C*%
X144000000Y-138920000D03*
%TO.P,solo3,6*%
X138000000Y-138920000D03*
%TD*%
D11*
%TO.P,BAR8,1,A*%
%TO.N,Net-(U11-DIG_1)*%
X277297500Y-75420000D03*
D12*
%TO.P,BAR8,2,A*%
X277297500Y-77960000D03*
%TO.P,BAR8,3,A*%
X277297500Y-80500000D03*
%TO.P,BAR8,4,A*%
X277297500Y-83040000D03*
%TO.P,BAR8,5,A*%
X277297500Y-85580000D03*
%TO.P,BAR8,6,A*%
%TO.N,Net-(U12-DIG_1)*%
X277297500Y-88120000D03*
%TO.P,BAR8,7,A*%
X277297500Y-90660000D03*
%TO.P,BAR8,8,A*%
X277297500Y-93200000D03*
%TO.P,BAR8,9,A*%
X277297500Y-95740000D03*
%TO.P,BAR8,10,A*%
X277297500Y-98280000D03*
%TO.P,BAR8,11,K*%
%TO.N,Net-(U12-SEG_E)*%
X284917500Y-98280000D03*
%TO.P,BAR8,12,K*%
%TO.N,Net-(U12-SEG_D)*%
X284917500Y-95740000D03*
%TO.P,BAR8,13,K*%
%TO.N,Net-(U12-SEG_C)*%
X284917500Y-93200000D03*
%TO.P,BAR8,14,K*%
%TO.N,Net-(U12-SEG_B)*%
X284917500Y-90660000D03*
%TO.P,BAR8,15,K*%
%TO.N,Net-(U12-SEG_A)*%
X284917500Y-88120000D03*
%TO.P,BAR8,16,K*%
%TO.N,Net-(U11-SEG_E)*%
X284917500Y-85580000D03*
%TO.P,BAR8,17,K*%
%TO.N,Net-(U11-SEG_D)*%
X284917500Y-83040000D03*
%TO.P,BAR8,18,K*%
%TO.N,Net-(U11-SEG_C)*%
X284917500Y-80500000D03*
%TO.P,BAR8,19,K*%
%TO.N,Net-(U11-SEG_B)*%
X284917500Y-77960000D03*
%TO.P,BAR8,20,K*%
%TO.N,Net-(U11-SEG_A)*%
X284917500Y-75420000D03*
%TD*%
D10*
%TO.P,mute13,1,1*%
%TO.N,Net-(U6-I12)*%
X200000000Y-155920000D03*
%TO.P,mute13,2,2*%
%TO.N,GND*%
X194000000Y-155920000D03*
%TO.P,mute13,3,K*%
%TO.N,Net-(U4-SEG_E)*%
X194000000Y-160920000D03*
%TO.P,mute13,4,A*%
%TO.N,Net-(U4-DIG_0)*%
X200000000Y-160920000D03*
%TO.P,mute13,5*%
%TO.N,N/C*%
X200000000Y-158420000D03*
%TO.P,mute13,6*%
X194000000Y-158420000D03*
%TD*%
%TO.P,oled5,1,GND*%
%TO.N,GND*%
X194000000Y-174420000D03*
%TO.P,oled5,2,VCC*%
%TO.N,+5V*%
X196000000Y-174420000D03*
%TO.P,oled5,3,SCL*%
%TO.N,Net-(U7-SC4)*%
X198000000Y-174420000D03*
%TO.P,oled5,4,SCA*%
%TO.N,Net-(U7-SD4)*%
X200000000Y-174420000D03*
%TD*%
D13*
%TO.P,R4,1*%
%TO.N,GND*%
X226340000Y-206000000D03*
D14*
%TO.P,R4,2*%
%TO.N,Net-(U12-ISET)*%
X236500000Y-206000000D03*
%TD*%
D11*
%TO.P,BAR6,1,A*%
%TO.N,Net-(U11-DIG_7)*%
X221297500Y-75420000D03*
D12*
%TO.P,BAR6,2,A*%
X221297500Y-77960000D03*
%TO.P,BAR6,3,A*%
X221297500Y-80500000D03*
%TO.P,BAR6,4,A*%
X221297500Y-83040000D03*
%TO.P,BAR6,5,A*%
X221297500Y-85580000D03*
%TO.P,BAR6,6,A*%
%TO.N,Net-(U12-DIG_7)*%
X221297500Y-88120000D03*
%TO.P,BAR6,7,A*%
X221297500Y-90660000D03*
%TO.P,BAR6,8,A*%
X221297500Y-93200000D03*
%TO.P,BAR6,9,A*%
X221297500Y-95740000D03*
%TO.P,BAR6,10,A*%
X221297500Y-98280000D03*
%TO.P,BAR6,11,K*%
%TO.N,Net-(U12-SEG_E)*%
X228917500Y-98280000D03*
%TO.P,BAR6,12,K*%
%TO.N,Net-(U12-SEG_D)*%
X228917500Y-95740000D03*
%TO.P,BAR6,13,K*%
%TO.N,Net-(U12-SEG_C)*%
X228917500Y-93200000D03*
%TO.P,BAR6,14,K*%
%TO.N,Net-(U12-SEG_B)*%
X228917500Y-90660000D03*
%TO.P,BAR6,15,K*%
%TO.N,Net-(U12-SEG_A)*%
X228917500Y-88120000D03*
%TO.P,BAR6,16,K*%
%TO.N,Net-(U11-SEG_E)*%
X228917500Y-85580000D03*
%TO.P,BAR6,17,K*%
%TO.N,Net-(U11-SEG_D)*%
X228917500Y-83040000D03*
%TO.P,BAR6,18,K*%
%TO.N,Net-(U11-SEG_C)*%
X228917500Y-80500000D03*
%TO.P,BAR6,19,K*%
%TO.N,Net-(U11-SEG_B)*%
X228917500Y-77960000D03*
%TO.P,BAR6,20,K*%
%TO.N,Net-(U11-SEG_A)*%
X228917500Y-75420000D03*
%TD*%
D11*
%TO.P,BAR7,1,A*%
%TO.N,Net-(U11-DIG_5)*%
X249297500Y-75420000D03*
D12*
%TO.P,BAR7,2,A*%
X249297500Y-77960000D03*
%TO.P,BAR7,3,A*%
X249297500Y-80500000D03*
%TO.P,BAR7,4,A*%
X249297500Y-83040000D03*
%TO.P,BAR7,5,A*%
X249297500Y-85580000D03*
%TO.P,BAR7,6,A*%
%TO.N,Net-(U12-DIG_5)*%
X249297500Y-88120000D03*
%TO.P,BAR7,7,A*%
X249297500Y-90660000D03*
%TO.P,BAR7,8,A*%
X249297500Y-93200000D03*
%TO.P,BAR7,9,A*%
X249297500Y-95740000D03*
%TO.P,BAR7,10,A*%
X249297500Y-98280000D03*
%TO.P,BAR7,11,K*%
%TO.N,Net-(U12-SEG_E)*%
X256917500Y-98280000D03*
%TO.P,BAR7,12,K*%
%TO.N,Net-(U12-SEG_D)*%
X256917500Y-95740000D03*
%TO.P,BAR7,13,K*%
%TO.N,Net-(U12-SEG_C)*%
X256917500Y-93200000D03*
%TO.P,BAR7,14,K*%
%TO.N,Net-(U12-SEG_B)*%
X256917500Y-90660000D03*
%TO.P,BAR7,15,K*%
%TO.N,Net-(U12-SEG_A)*%
X256917500Y-88120000D03*
%TO.P,BAR7,16,K*%
%TO.N,Net-(U11-SEG_E)*%
X256917500Y-85580000D03*
%TO.P,BAR7,17,K*%
%TO.N,Net-(U11-SEG_D)*%
X256917500Y-83040000D03*
%TO.P,BAR7,18,K*%
%TO.N,Net-(U11-SEG_C)*%
X256917500Y-80500000D03*
%TO.P,BAR7,19,K*%
%TO.N,Net-(U11-SEG_B)*%
X256917500Y-77960000D03*
%TO.P,BAR7,20,K*%
%TO.N,Net-(U11-SEG_A)*%
X256917500Y-75420000D03*
%TD*%
D13*
%TO.P,C10,1*%
%TO.N,GND*%
X314750000Y-169000000D03*
D14*
%TO.P,C10,2*%
%TO.N,+5V*%
X322250000Y-169000000D03*
%TD*%
D11*
%TO.P,BAR1,1,A*%
%TO.N,Net-(U11-DIG_0)*%
X81297500Y-75420000D03*
D12*
%TO.P,BAR1,2,A*%
X81297500Y-77960000D03*
%TO.P,BAR1,3,A*%
X81297500Y-80500000D03*
%TO.P,BAR1,4,A*%
X81297500Y-83040000D03*
%TO.P,BAR1,5,A*%
X81297500Y-85580000D03*
%TO.P,BAR1,6,A*%
%TO.N,Net-(U12-DIG_0)*%
X81297500Y-88120000D03*
%TO.P,BAR1,7,A*%
X81297500Y-90660000D03*
%TO.P,BAR1,8,A*%
X81297500Y-93200000D03*
%TO.P,BAR1,9,A*%
X81297500Y-95740000D03*
%TO.P,BAR1,10,A*%
X81297500Y-98280000D03*
%TO.P,BAR1,11,K*%
%TO.N,Net-(U12-SEG_E)*%
X88917500Y-98280000D03*
%TO.P,BAR1,12,K*%
%TO.N,Net-(U12-SEG_D)*%
X88917500Y-95740000D03*
%TO.P,BAR1,13,K*%
%TO.N,Net-(U12-SEG_C)*%
X88917500Y-93200000D03*
%TO.P,BAR1,14,K*%
%TO.N,Net-(U12-SEG_B)*%
X88917500Y-90660000D03*
%TO.P,BAR1,15,K*%
%TO.N,Net-(U12-SEG_A)*%
X88917500Y-88120000D03*
%TO.P,BAR1,16,K*%
%TO.N,Net-(U11-SEG_E)*%
X88917500Y-85580000D03*
%TO.P,BAR1,17,K*%
%TO.N,Net-(U11-SEG_D)*%
X88917500Y-83040000D03*
%TO.P,BAR1,18,K*%
%TO.N,Net-(U11-SEG_C)*%
X88917500Y-80500000D03*
%TO.P,BAR1,19,K*%
%TO.N,Net-(U11-SEG_B)*%
X88917500Y-77960000D03*
%TO.P,BAR1,20,K*%
%TO.N,Net-(U11-SEG_A)*%
X88917500Y-75420000D03*
%TD*%
D10*
%TO.P,SW2,1,A*%
%TO.N,Net-(SW2-C)*%
X118500000Y-64170000D03*
%TO.P,SW2,2,B*%
%TO.N,Net-(SW2-B)*%
X118500000Y-54170000D03*
%TO.P,SW2,3,C*%
%TO.N,GND*%
X118500000Y-59170000D03*
%TD*%
%TO.P,SW1,1,A*%
%TO.N,Net-(SW1-B)*%
X90500000Y-64170000D03*
%TO.P,SW1,2,B*%
%TO.N,Net-(SW1-C)*%
X90500000Y-54170000D03*
%TO.P,SW1,3,C*%
%TO.N,GND*%
X90500000Y-59170000D03*
%TD*%
%TO.P,solo1,1,1*%
%TO.N,Net-(U6-I0)*%
X88000000Y-136420000D03*
%TO.P,solo1,2,2*%
%TO.N,GND*%
X82000000Y-136420000D03*
%TO.P,solo1,3,K*%
%TO.N,Net-(U4-SEG_A)*%
X82000000Y-141420000D03*
%TO.P,solo1,4,A*%
%TO.N,Net-(U4-DIG_1)*%
X88000000Y-141420000D03*
%TO.P,solo1,5*%
%TO.N,N/C*%
X88000000Y-138920000D03*
%TO.P,solo1,6*%
X82000000Y-138920000D03*
%TD*%
D13*
%TO.P,C13,1*%
%TO.N,GND*%
X300250000Y-78250000D03*
D14*
%TO.P,C13,2*%
%TO.N,+5V*%
X307750000Y-78250000D03*
%TD*%
D10*
%TO.P,mute16,1,1*%
%TO.N,Net-(U6-I15)*%
X284000000Y-155920000D03*
%TO.P,mute16,2,2*%
%TO.N,GND*%
X278000000Y-155920000D03*
%TO.P,mute16,3,K*%
%TO.N,Net-(U4-SEG_DP)*%
X278000000Y-160920000D03*
%TO.P,mute16,4,A*%
%TO.N,Net-(U4-DIG_0)*%
X284000000Y-160920000D03*
%TO.P,mute16,5*%
%TO.N,N/C*%
X284000000Y-158420000D03*
%TO.P,mute16,6*%
X278000000Y-158420000D03*
%TD*%
%TO.P,oled4,1,GND*%
%TO.N,GND*%
X166000000Y-174420000D03*
%TO.P,oled4,2,VCC*%
%TO.N,+5V*%
X168000000Y-174420000D03*
%TO.P,oled4,3,SCL*%
%TO.N,Net-(U7-SC3)*%
X170000000Y-174420000D03*
%TO.P,oled4,4,SCA*%
%TO.N,Net-(U7-SD3)*%
X172000000Y-174420000D03*
%TD*%
D13*
%TO.P,C11,1*%
%TO.N,+5V*%
X313750000Y-159750000D03*
D14*
%TO.P,C11,2*%
%TO.N,GND*%
X321250000Y-159750000D03*
%TD*%
D10*
%TO.P,solo6,1,1*%
%TO.N,Net-(U6-I5)*%
X228000000Y-136420000D03*
%TO.P,solo6,2,2*%
%TO.N,GND*%
X222000000Y-136420000D03*
%TO.P,solo6,3,K*%
%TO.N,Net-(U4-SEG_F)*%
X222000000Y-141420000D03*
%TO.P,solo6,4,A*%
%TO.N,Net-(U4-DIG_1)*%
X228000000Y-141420000D03*
%TO.P,solo6,5*%
%TO.N,N/C*%
X228000000Y-138920000D03*
%TO.P,solo6,6*%
X222000000Y-138920000D03*
%TD*%
D14*
%TO.P,C9,2*%
%TO.N,+5V*%
X306250000Y-118500000D03*
D13*
%TO.P,C9,1*%
%TO.N,GND*%
X298750000Y-118500000D03*
%TD*%
%TO.P,C8,1*%
%TO.N,GND*%
X298250000Y-133000000D03*
D14*
%TO.P,C8,2*%
%TO.N,+5V*%
X305750000Y-133000000D03*
%TD*%
D10*
%TO.P,mute14,1,1*%
%TO.N,Net-(U6-I13)*%
X228000000Y-155920000D03*
%TO.P,mute14,2,2*%
%TO.N,GND*%
X222000000Y-155920000D03*
%TO.P,mute14,3,K*%
%TO.N,Net-(U4-SEG_F)*%
X222000000Y-160920000D03*
%TO.P,mute14,4,A*%
%TO.N,Net-(U4-DIG_0)*%
X228000000Y-160920000D03*
%TO.P,mute14,5*%
%TO.N,N/C*%
X228000000Y-158420000D03*
%TO.P,mute14,6*%
X222000000Y-158420000D03*
%TD*%
%TO.P,SW6,1,A*%
%TO.N,Net-(SW6-C)*%
X230500000Y-64170000D03*
%TO.P,SW6,2,B*%
%TO.N,Net-(SW6-B)*%
X230500000Y-54170000D03*
%TO.P,SW6,3,C*%
%TO.N,GND*%
X230500000Y-59170000D03*
%TD*%
%TO.P,mute15,1,1*%
%TO.N,Net-(U6-I14)*%
X256000000Y-155920000D03*
%TO.P,mute15,2,2*%
%TO.N,GND*%
X250000000Y-155920000D03*
%TO.P,mute15,3,K*%
%TO.N,Net-(U4-SEG_G)*%
X250000000Y-160920000D03*
%TO.P,mute15,4,A*%
%TO.N,Net-(U4-DIG_0)*%
X256000000Y-160920000D03*
%TO.P,mute15,5*%
%TO.N,N/C*%
X256000000Y-158420000D03*
%TO.P,mute15,6*%
X250000000Y-158420000D03*
%TD*%
D11*
%TO.P,BAR2,1,A*%
%TO.N,Net-(U11-DIG_4)*%
X109297500Y-75420000D03*
D12*
%TO.P,BAR2,2,A*%
X109297500Y-77960000D03*
%TO.P,BAR2,3,A*%
X109297500Y-80500000D03*
%TO.P,BAR2,4,A*%
X109297500Y-83040000D03*
%TO.P,BAR2,5,A*%
X109297500Y-85580000D03*
%TO.P,BAR2,6,A*%
%TO.N,Net-(U12-DIG_4)*%
X109297500Y-88120000D03*
%TO.P,BAR2,7,A*%
X109297500Y-90660000D03*
%TO.P,BAR2,8,A*%
X109297500Y-93200000D03*
%TO.P,BAR2,9,A*%
X109297500Y-95740000D03*
%TO.P,BAR2,10,A*%
X109297500Y-98280000D03*
%TO.P,BAR2,11,K*%
%TO.N,Net-(U12-SEG_E)*%
X116917500Y-98280000D03*
%TO.P,BAR2,12,K*%
%TO.N,Net-(U12-SEG_D)*%
X116917500Y-95740000D03*
%TO.P,BAR2,13,K*%
%TO.N,Net-(U12-SEG_C)*%
X116917500Y-93200000D03*
%TO.P,BAR2,14,K*%
%TO.N,Net-(U12-SEG_B)*%
X116917500Y-90660000D03*
%TO.P,BAR2,15,K*%
%TO.N,Net-(U12-SEG_A)*%
X116917500Y-88120000D03*
%TO.P,BAR2,16,K*%
%TO.N,Net-(U11-SEG_E)*%
X116917500Y-85580000D03*
%TO.P,BAR2,17,K*%
%TO.N,Net-(U11-SEG_D)*%
X116917500Y-83040000D03*
%TO.P,BAR2,18,K*%
%TO.N,Net-(U11-SEG_C)*%
X116917500Y-80500000D03*
%TO.P,BAR2,19,K*%
%TO.N,Net-(U11-SEG_B)*%
X116917500Y-77960000D03*
%TO.P,BAR2,20,K*%
%TO.N,Net-(U11-SEG_A)*%
X116917500Y-75420000D03*
%TD*%
D11*
%TO.P,BAR13,1,A*%
%TO.N,Net-(U9-DIG_3)*%
X193297500Y-101420000D03*
D12*
%TO.P,BAR13,2,A*%
X193297500Y-103960000D03*
%TO.P,BAR13,3,A*%
X193297500Y-106500000D03*
%TO.P,BAR13,4,A*%
X193297500Y-109040000D03*
%TO.P,BAR13,5,A*%
X193297500Y-111580000D03*
%TO.P,BAR13,6,A*%
%TO.N,Net-(U10-DIG_3)*%
X193297500Y-114120000D03*
%TO.P,BAR13,7,A*%
X193297500Y-116660000D03*
%TO.P,BAR13,8,A*%
X193297500Y-119200000D03*
%TO.P,BAR13,9,A*%
X193297500Y-121740000D03*
%TO.P,BAR13,10,A*%
X193297500Y-124280000D03*
%TO.P,BAR13,11,K*%
%TO.N,Net-(U10-SEG_E)*%
X200917500Y-124280000D03*
%TO.P,BAR13,12,K*%
%TO.N,Net-(U10-SEG_D)*%
X200917500Y-121740000D03*
%TO.P,BAR13,13,K*%
%TO.N,Net-(U10-SEG_C)*%
X200917500Y-119200000D03*
%TO.P,BAR13,14,K*%
%TO.N,Net-(U10-SEG_B)*%
X200917500Y-116660000D03*
%TO.P,BAR13,15,K*%
%TO.N,Net-(U10-SEG_A)*%
X200917500Y-114120000D03*
%TO.P,BAR13,16,K*%
%TO.N,Net-(U9-SEG_E)*%
X200917500Y-111580000D03*
%TO.P,BAR13,17,K*%
%TO.N,Net-(U9-SEG_D)*%
X200917500Y-109040000D03*
%TO.P,BAR13,18,K*%
%TO.N,Net-(U9-SEG_C)*%
X200917500Y-106500000D03*
%TO.P,BAR13,19,K*%
%TO.N,Net-(U9-SEG_B)*%
X200917500Y-103960000D03*
%TO.P,BAR13,20,K*%
%TO.N,Net-(U9-SEG_A)*%
X200917500Y-101420000D03*
%TD*%
D15*
%TO.P, 1,1*%
%TO.N,/buttons/S0*%
X298375000Y-176325000D03*
D16*
%TO.P, 1,2*%
%TO.N,/buttons/S1*%
X298375000Y-178865000D03*
%TO.P, 1,3*%
%TO.N,/buttons/S2*%
X298375000Y-181405000D03*
%TO.P, 1,4*%
%TO.N,/buttons/S3*%
X298375000Y-183945000D03*
%TO.P, 1,5*%
%TO.N,/buttons/DIN*%
X298375000Y-186485000D03*
%TO.P, 1,6*%
%TO.N,/buttons/CLK*%
X298375000Y-189025000D03*
%TO.P, 1,7*%
%TO.N,/buttons/LOAD*%
X298375000Y-191565000D03*
%TO.P, 1,8*%
%TO.N,/meter/DIN*%
X298375000Y-194105000D03*
%TO.P, 1,9*%
%TO.N,/meter/LOAD*%
X298375000Y-196645000D03*
%TO.P, 1,10*%
%TO.N,/meter/CLK*%
X298375000Y-199185000D03*
%TD*%
D17*
%TO.P,U4,1,DIN*%
%TO.N,/buttons/DIN*%
X253025000Y-186050000D03*
D14*
%TO.P,U4,2,DIG_0*%
%TO.N,Net-(U4-DIG_0)*%
X255565000Y-186050000D03*
%TO.P,U4,3,DIG_4*%
%TO.N,unconnected-(U4-DIG_4-Pad3)*%
X258105000Y-186050000D03*
%TO.P,U4,4,GND*%
%TO.N,GND*%
X260645000Y-186050000D03*
%TO.P,U4,5,DIG_6*%
%TO.N,unconnected-(U4-DIG_6-Pad5)*%
X263185000Y-186050000D03*
%TO.P,U4,6,DIG_2*%
%TO.N,unconnected-(U4-DIG_2-Pad6)*%
X265725000Y-186050000D03*
%TO.P,U4,7,DIG_3*%
%TO.N,unconnected-(U4-DIG_3-Pad7)*%
X268265000Y-186050000D03*
%TO.P,U4,8,DIG_7*%
%TO.N,unconnected-(U4-DIG_7-Pad8)*%
X270805000Y-186050000D03*
%TO.P,U4,9,GND*%
%TO.N,GND*%
X273345000Y-186050000D03*
%TO.P,U4,10,DIG_5*%
%TO.N,unconnected-(U4-DIG_5-Pad10)*%
X275885000Y-186050000D03*
%TO.P,U4,11,DIG_1*%
%TO.N,Net-(U4-DIG_1)*%
X278425000Y-186050000D03*
%TO.P,U4,12,LOAD*%
%TO.N,/buttons/LOAD*%
X280965000Y-186050000D03*
%TO.P,U4,13,CLK*%
%TO.N,/buttons/CLK*%
X280965000Y-193670000D03*
%TO.P,U4,14,SEG_A*%
%TO.N,Net-(U4-SEG_A)*%
X278425000Y-193670000D03*
%TO.P,U4,15,SEG_F*%
%TO.N,Net-(U4-SEG_F)*%
X275885000Y-193670000D03*
%TO.P,U4,16,SEG_B*%
%TO.N,Net-(U4-SEG_B)*%
X273345000Y-193670000D03*
%TO.P,U4,17,SEG_G*%
%TO.N,Net-(U4-SEG_G)*%
X270805000Y-193670000D03*
%TO.P,U4,18,ISET*%
%TO.N,Net-(U4-ISET)*%
X268265000Y-193670000D03*
%TO.P,U4,19,V+*%
%TO.N,+5V*%
X265725000Y-193670000D03*
%TO.P,U4,20,SEG_C*%
%TO.N,Net-(U4-SEG_C)*%
X263185000Y-193670000D03*
%TO.P,U4,21,SEG_E*%
%TO.N,Net-(U4-SEG_E)*%
X260645000Y-193670000D03*
%TO.P,U4,22,SEG_DP*%
%TO.N,Net-(U4-SEG_DP)*%
X258105000Y-193670000D03*
%TO.P,U4,23,SEG_D*%
%TO.N,Net-(U4-SEG_D)*%
X255565000Y-193670000D03*
%TO.P,U4,24,DOUT*%
%TO.N,unconnected-(U4-DOUT-Pad24)*%
X253025000Y-193670000D03*
%TD*%
D17*
%TO.P,U10,1,DIN*%
%TO.N,Net-(U10-DIN)*%
X82720000Y-186050000D03*
D14*
%TO.P,U10,2,DIG_0*%
%TO.N,Net-(U10-DIG_0)*%
X85260000Y-186050000D03*
%TO.P,U10,3,DIG_4*%
%TO.N,Net-(U10-DIG_4)*%
X87800000Y-186050000D03*
%TO.P,U10,4,GND*%
%TO.N,GND*%
X90340000Y-186050000D03*
%TO.P,U10,5,DIG_6*%
%TO.N,Net-(U10-DIG_6)*%
X92880000Y-186050000D03*
%TO.P,U10,6,DIG_2*%
%TO.N,Net-(U10-DIG_2)*%
X95420000Y-186050000D03*
%TO.P,U10,7,DIG_3*%
%TO.N,Net-(U10-DIG_3)*%
X97960000Y-186050000D03*
%TO.P,U10,8,DIG_7*%
%TO.N,Net-(U10-DIG_7)*%
X100500000Y-186050000D03*
%TO.P,U10,9,GND*%
%TO.N,GND*%
X103040000Y-186050000D03*
%TO.P,U10,10,DIG_5*%
%TO.N,Net-(U10-DIG_5)*%
X105580000Y-186050000D03*
%TO.P,U10,11,DIG_1*%
%TO.N,Net-(U10-DIG_1)*%
X108120000Y-186050000D03*
%TO.P,U10,12,LOAD*%
%TO.N,/meter/LOAD*%
X110660000Y-186050000D03*
%TO.P,U10,13,CLK*%
%TO.N,/meter/CLK*%
X110660000Y-193670000D03*
%TO.P,U10,14,SEG_A*%
%TO.N,Net-(U10-SEG_A)*%
X108120000Y-193670000D03*
%TO.P,U10,15,SEG_F*%
%TO.N,unconnected-(U10-SEG_F-Pad15)*%
X105580000Y-193670000D03*
%TO.P,U10,16,SEG_B*%
%TO.N,Net-(U10-SEG_B)*%
X103040000Y-193670000D03*
%TO.P,U10,17,SEG_G*%
%TO.N,unconnected-(U10-SEG_G-Pad17)*%
X100500000Y-193670000D03*
%TO.P,U10,18,ISET*%
%TO.N,Net-(U10-ISET)*%
X97960000Y-193670000D03*
%TO.P,U10,19,V+*%
%TO.N,+5V*%
X95420000Y-193670000D03*
%TO.P,U10,20,SEG_C*%
%TO.N,Net-(U10-SEG_C)*%
X92880000Y-193670000D03*
%TO.P,U10,21,SEG_E*%
%TO.N,Net-(U10-SEG_E)*%
X90340000Y-193670000D03*
%TO.P,U10,22,SEG_DP*%
%TO.N,unconnected-(U10-SEG_DP-Pad22)*%
X87800000Y-193670000D03*
%TO.P,U10,23,SEG_D*%
%TO.N,Net-(U10-SEG_D)*%
X85260000Y-193670000D03*
%TO.P,U10,24,DOUT*%
%TO.N,unconnected-(U10-DOUT-Pad24)*%
X82720000Y-193670000D03*
%TD*%
D17*
%TO.P,U11,1,DIN*%
%TO.N,/meter/DIN*%
X169025000Y-186000000D03*
D14*
%TO.P,U11,2,DIG_0*%
%TO.N,Net-(U11-DIG_0)*%
X171565000Y-186000000D03*
%TO.P,U11,3,DIG_4*%
%TO.N,Net-(U11-DIG_4)*%
X174105000Y-186000000D03*
%TO.P,U11,4,GND*%
%TO.N,GND*%
X176645000Y-186000000D03*
%TO.P,U11,5,DIG_6*%
%TO.N,Net-(U11-DIG_6)*%
X179185000Y-186000000D03*
%TO.P,U11,6,DIG_2*%
%TO.N,Net-(U11-DIG_2)*%
X181725000Y-186000000D03*
%TO.P,U11,7,DIG_3*%
%TO.N,Net-(U11-DIG_3)*%
X184265000Y-186000000D03*
%TO.P,U11,8,DIG_7*%
%TO.N,Net-(U11-DIG_7)*%
X186805000Y-186000000D03*
%TO.P,U11,9,GND*%
%TO.N,GND*%
X189345000Y-186000000D03*
%TO.P,U11,10,DIG_5*%
%TO.N,Net-(U11-DIG_5)*%
X191885000Y-186000000D03*
%TO.P,U11,11,DIG_1*%
%TO.N,Net-(U11-DIG_1)*%
X194425000Y-186000000D03*
%TO.P,U11,12,LOAD*%
%TO.N,/meter/LOAD*%
X196965000Y-186000000D03*
%TO.P,U11,13,CLK*%
%TO.N,/meter/CLK*%
X196965000Y-193620000D03*
%TO.P,U11,14,SEG_A*%
%TO.N,Net-(U11-SEG_A)*%
X194425000Y-193620000D03*
%TO.P,U11,15,SEG_F*%
%TO.N,unconnected-(U11-SEG_F-Pad15)*%
X191885000Y-193620000D03*
%TO.P,U11,16,SEG_B*%
%TO.N,Net-(U11-SEG_B)*%
X189345000Y-193620000D03*
%TO.P,U11,17,SEG_G*%
%TO.N,unconnected-(U11-SEG_G-Pad17)*%
X186805000Y-193620000D03*
%TO.P,U11,18,ISET*%
%TO.N,Net-(U11-ISET)*%
X184265000Y-193620000D03*
%TO.P,U11,19,V+*%
%TO.N,+5V*%
X181725000Y-193620000D03*
%TO.P,U11,20,SEG_C*%
%TO.N,Net-(U11-SEG_C)*%
X179185000Y-193620000D03*
%TO.P,U11,21,SEG_E*%
%TO.N,Net-(U11-SEG_E)*%
X176645000Y-193620000D03*
%TO.P,U11,22,SEG_DP*%
%TO.N,unconnected-(U11-SEG_DP-Pad22)*%
X174105000Y-193620000D03*
%TO.P,U11,23,SEG_D*%
%TO.N,Net-(U11-SEG_D)*%
X171565000Y-193620000D03*
%TO.P,U11,24,DOUT*%
%TO.N,Net-(U11-DOUT)*%
X169025000Y-193620000D03*
%TD*%
D17*
%TO.P,U12,1,DIN*%
%TO.N,Net-(U11-DOUT)*%
X212180000Y-186050000D03*
D14*
%TO.P,U12,2,DIG_0*%
%TO.N,Net-(U12-DIG_0)*%
X214720000Y-186050000D03*
%TO.P,U12,3,DIG_4*%
%TO.N,Net-(U12-DIG_4)*%
X217260000Y-186050000D03*
%TO.P,U12,4,GND*%
%TO.N,GND*%
X219800000Y-186050000D03*
%TO.P,U12,5,DIG_6*%
%TO.N,Net-(U12-DIG_6)*%
X222340000Y-186050000D03*
%TO.P,U12,6,DIG_2*%
%TO.N,Net-(U12-DIG_2)*%
X224880000Y-186050000D03*
%TO.P,U12,7,DIG_3*%
%TO.N,Net-(U12-DIG_3)*%
X227420000Y-186050000D03*
%TO.P,U12,8,DIG_7*%
%TO.N,Net-(U12-DIG_7)*%
X229960000Y-186050000D03*
%TO.P,U12,9,GND*%
%TO.N,GND*%
X232500000Y-186050000D03*
%TO.P,U12,10,DIG_5*%
%TO.N,Net-(U12-DIG_5)*%
X235040000Y-186050000D03*
%TO.P,U12,11,DIG_1*%
%TO.N,Net-(U12-DIG_1)*%
X237580000Y-186050000D03*
%TO.P,U12,12,LOAD*%
%TO.N,/meter/LOAD*%
X240120000Y-186050000D03*
%TO.P,U12,13,CLK*%
%TO.N,/meter/CLK*%
X240120000Y-193670000D03*
%TO.P,U12,14,SEG_A*%
%TO.N,Net-(U12-SEG_A)*%
X237580000Y-193670000D03*
%TO.P,U12,15,SEG_F*%
%TO.N,unconnected-(U12-SEG_F-Pad15)*%
X235040000Y-193670000D03*
%TO.P,U12,16,SEG_B*%
%TO.N,Net-(U12-SEG_B)*%
X232500000Y-193670000D03*
%TO.P,U12,17,SEG_G*%
%TO.N,unconnected-(U12-SEG_G-Pad17)*%
X229960000Y-193670000D03*
%TO.P,U12,18,ISET*%
%TO.N,Net-(U12-ISET)*%
X227420000Y-193670000D03*
%TO.P,U12,19,V+*%
%TO.N,+5V*%
X224880000Y-193670000D03*
%TO.P,U12,20,SEG_C*%
%TO.N,Net-(U12-SEG_C)*%
X222340000Y-193670000D03*
%TO.P,U12,21,SEG_E*%
%TO.N,Net-(U12-SEG_E)*%
X219800000Y-193670000D03*
%TO.P,U12,22,SEG_DP*%
%TO.N,unconnected-(U12-SEG_DP-Pad22)*%
X217260000Y-193670000D03*
%TO.P,U12,23,SEG_D*%
%TO.N,Net-(U12-SEG_D)*%
X214720000Y-193670000D03*
%TO.P,U12,24,DOUT*%
%TO.N,Net-(U12-DOUT)*%
X212180000Y-193670000D03*
%TD*%
D17*
%TO.P,U9,1,DIN*%
%TO.N,Net-(U12-DOUT)*%
X125600000Y-186050000D03*
D14*
%TO.P,U9,2,DIG_0*%
%TO.N,Net-(U9-DIG_0)*%
X128140000Y-186050000D03*
%TO.P,U9,3,DIG_4*%
%TO.N,Net-(U9-DIG_4)*%
X130680000Y-186050000D03*
%TO.P,U9,4,GND*%
%TO.N,GND*%
X133220000Y-186050000D03*
%TO.P,U9,5,DIG_6*%
%TO.N,Net-(U9-DIG_6)*%
X135760000Y-186050000D03*
%TO.P,U9,6,DIG_2*%
%TO.N,Net-(U9-DIG_2)*%
X138300000Y-186050000D03*
%TO.P,U9,7,DIG_3*%
%TO.N,Net-(U9-DIG_3)*%
X140840000Y-186050000D03*
%TO.P,U9,8,DIG_7*%
%TO.N,Net-(U9-DIG_7)*%
X143380000Y-186050000D03*
%TO.P,U9,9,GND*%
%TO.N,GND*%
X145920000Y-186050000D03*
%TO.P,U9,10,DIG_5*%
%TO.N,Net-(U9-DIG_5)*%
X148460000Y-186050000D03*
%TO.P,U9,11,DIG_1*%
%TO.N,Net-(U9-DIG_1)*%
X151000000Y-186050000D03*
%TO.P,U9,12,LOAD*%
%TO.N,/meter/LOAD*%
X153540000Y-186050000D03*
%TO.P,U9,13,CLK*%
%TO.N,/meter/CLK*%
X153540000Y-193670000D03*
%TO.P,U9,14,SEG_A*%
%TO.N,Net-(U9-SEG_A)*%
X151000000Y-193670000D03*
%TO.P,U9,15,SEG_F*%
%TO.N,unconnected-(U9-SEG_F-Pad15)*%
X148460000Y-193670000D03*
%TO.P,U9,16,SEG_B*%
%TO.N,Net-(U9-SEG_B)*%
X145920000Y-193670000D03*
%TO.P,U9,17,SEG_G*%
%TO.N,unconnected-(U9-SEG_G-Pad17)*%
X143380000Y-193670000D03*
%TO.P,U9,18,ISET*%
%TO.N,Net-(U9-ISET)*%
X140840000Y-193670000D03*
%TO.P,U9,19,V+*%
%TO.N,+5V*%
X138300000Y-193670000D03*
%TO.P,U9,20,SEG_C*%
%TO.N,Net-(U9-SEG_C)*%
X135760000Y-193670000D03*
%TO.P,U9,21,SEG_E*%
%TO.N,Net-(U9-SEG_E)*%
X133220000Y-193670000D03*
%TO.P,U9,22,SEG_DP*%
%TO.N,unconnected-(U9-SEG_DP-Pad22)*%
X130680000Y-193670000D03*
%TO.P,U9,23,SEG_D*%
%TO.N,Net-(U9-SEG_D)*%
X128140000Y-193670000D03*
%TO.P,U9,24,DOUT*%
%TO.N,Net-(U10-DIN)*%
X125600000Y-193670000D03*
%TD*%
D18*
%TO.N,Net-(U12-DIG_6)*%
X214486221Y-119493681D03*
%TO.N,Net-(U12-DIG_0)*%
X214500000Y-117500000D03*
%TO.N,Net-(U12-DIG_4)*%
X214491859Y-118498092D03*
%TO.N,Net-(U12-DIG_2)*%
X214500000Y-120500000D03*
%TO.N,Net-(U12-DIG_3)*%
X214500000Y-121500000D03*
%TO.N,Net-(U12-DIG_7)*%
X217500000Y-115000000D03*
%TO.N,Net-(U12-DIG_5)*%
X217500000Y-116000000D03*
%TO.N,Net-(U12-DIG_1)*%
X217500000Y-117000000D03*
%TO.N,Net-(U11-DIG_0)*%
X186750000Y-120000000D03*
%TO.N,Net-(U11-DIG_4)*%
X186750000Y-121000000D03*
%TO.N,Net-(U11-DIG_6)*%
X186750000Y-122000000D03*
%TO.N,Net-(U11-DIG_2)*%
X186750001Y-122989949D03*
%TO.N,Net-(U11-DIG_1)*%
X190000000Y-118000000D03*
%TO.N,Net-(U11-DIG_5)*%
X190000000Y-117000000D03*
%TO.N,Net-(U11-DIG_7)*%
X190000000Y-116000000D03*
%TO.N,Net-(U11-DIG_3)*%
X190000000Y-115000000D03*
%TO.N,Net-(U9-DIG_6)*%
X133750000Y-120500000D03*
%TO.N,Net-(U9-DIG_2)*%
X133750000Y-121500000D03*
%TO.N,Net-(U9-DIG_3)*%
X133750000Y-122500000D03*
%TO.N,Net-(U9-DIG_7)*%
X133750000Y-123500000D03*
%TO.N,Net-(U9-DIG_5)*%
X133750000Y-124500000D03*
%TO.N,Net-(U9-DIG_1)*%
X133750000Y-125500000D03*
%TO.N,Net-(U9-DIG_0)*%
X129250000Y-123750000D03*
%TO.N,Net-(U9-DIG_4)*%
X129250000Y-125000000D03*
%TO.N,Net-(U10-DIG_5)*%
X107500000Y-184250000D03*
%TO.N,Net-(U10-DIG_7)*%
X107500000Y-183250000D03*
%TO.N,Net-(U10-DIG_3)*%
X107500000Y-182250000D03*
%TO.N,Net-(U10-DIG_2)*%
X107500000Y-181250000D03*
%TO.N,Net-(U10-DIG_6)*%
X107500000Y-180250000D03*
%TO.N,Net-(U10-DIG_4)*%
X107500000Y-179250000D03*
%TO.N,Net-(U12-SEG_A)*%
X285795225Y-133204775D03*
%TO.N,Net-(U12-SEG_B)*%
X285500000Y-132100000D03*
%TO.N,Net-(U12-SEG_C)*%
X284934316Y-131400000D03*
%TO.N,Net-(U11-SEG_D)*%
X290750000Y-129250000D03*
%TO.N,Net-(U11-SEG_E)*%
X289505025Y-128994975D03*
%TO.N,Net-(U11-SEG_C)*%
X290385050Y-130864950D03*
%TO.N,Net-(U11-SEG_B)*%
X290450000Y-132000000D03*
%TO.N,Net-(U11-SEG_A)*%
X289750000Y-134000000D03*
%TO.N,Net-(U12-SEG_D)*%
X284500000Y-130000000D03*
%TO.N,Net-(U12-SEG_E)*%
X283250000Y-130700000D03*
%TO.N,Net-(U11-SEG_E)*%
X262750000Y-127200000D03*
%TO.N,Net-(U11-SEG_A)*%
X265750000Y-129300000D03*
%TO.N,Net-(U11-SEG_C)*%
X264250000Y-127900000D03*
%TO.N,Net-(U12-SEG_C)*%
X260500000Y-131400000D03*
%TO.N,Net-(U12-SEG_A)*%
X262000000Y-132800000D03*
%TO.N,Net-(U12-SEG_D)*%
X259750000Y-130000000D03*
%TO.N,Net-(U11-SEG_D)*%
X263500000Y-126500000D03*
%TO.N,Net-(U11-SEG_B)*%
X265000000Y-128600000D03*
%TO.N,Net-(U12-SEG_E)*%
X259000000Y-130700000D03*
%TO.N,Net-(U12-SEG_B)*%
X261250000Y-132100000D03*
%TO.N,Net-(U11-SEG_E)*%
X234750000Y-127200000D03*
%TO.N,Net-(U11-SEG_A)*%
X237750000Y-129300000D03*
%TO.N,Net-(U11-SEG_C)*%
X236250000Y-127900000D03*
%TO.N,Net-(U12-SEG_C)*%
X232500000Y-131400000D03*
%TO.N,Net-(U12-SEG_A)*%
X234000000Y-132800000D03*
%TO.N,Net-(U12-SEG_D)*%
X231750000Y-130000000D03*
%TO.N,Net-(U11-SEG_D)*%
X235500000Y-126500000D03*
%TO.N,Net-(U11-SEG_B)*%
X237000000Y-128600000D03*
%TO.N,Net-(U12-SEG_E)*%
X231000000Y-130700000D03*
%TO.N,Net-(U12-SEG_B)*%
X233250000Y-132100000D03*
%TO.N,Net-(U11-SEG_E)*%
X206750000Y-127200000D03*
%TO.N,Net-(U11-SEG_A)*%
X209750000Y-129300000D03*
%TO.N,Net-(U11-SEG_C)*%
X208250000Y-127900000D03*
%TO.N,Net-(U12-SEG_C)*%
X204500000Y-131400000D03*
%TO.N,Net-(U12-SEG_A)*%
X206000000Y-132800000D03*
%TO.N,Net-(U12-SEG_D)*%
X203750000Y-130000000D03*
%TO.N,Net-(U11-SEG_D)*%
X207500000Y-126500000D03*
%TO.N,Net-(U11-SEG_B)*%
X209000000Y-128600000D03*
%TO.N,Net-(U12-SEG_E)*%
X203000000Y-130700000D03*
%TO.N,Net-(U12-SEG_B)*%
X205250000Y-132100000D03*
%TO.N,Net-(U11-SEG_E)*%
X178750000Y-127200000D03*
%TO.N,Net-(U11-SEG_A)*%
X181750000Y-129300000D03*
%TO.N,Net-(U11-SEG_C)*%
X180250000Y-127900000D03*
%TO.N,Net-(U12-SEG_C)*%
X176500000Y-131400000D03*
%TO.N,Net-(U12-SEG_A)*%
X178000000Y-132800000D03*
%TO.N,Net-(U12-SEG_D)*%
X175750000Y-130000000D03*
%TO.N,Net-(U11-SEG_D)*%
X179500000Y-126500000D03*
%TO.N,Net-(U11-SEG_B)*%
X181000000Y-128600000D03*
%TO.N,Net-(U12-SEG_E)*%
X175000000Y-130700000D03*
%TO.N,Net-(U12-SEG_B)*%
X177250000Y-132100000D03*
%TO.N,Net-(U11-SEG_E)*%
X150750000Y-127200000D03*
%TO.N,Net-(U11-SEG_A)*%
X153750000Y-129300000D03*
%TO.N,Net-(U11-SEG_C)*%
X152250000Y-127900000D03*
%TO.N,Net-(U12-SEG_C)*%
X148500000Y-131400000D03*
%TO.N,Net-(U12-SEG_A)*%
X150000000Y-132800000D03*
%TO.N,Net-(U12-SEG_D)*%
X147750000Y-130000000D03*
%TO.N,Net-(U11-SEG_D)*%
X151500000Y-126500000D03*
%TO.N,Net-(U11-SEG_B)*%
X153000000Y-128600000D03*
%TO.N,Net-(U12-SEG_E)*%
X147000000Y-130700000D03*
%TO.N,Net-(U12-SEG_B)*%
X149250000Y-132100000D03*
%TO.N,Net-(U11-SEG_E)*%
X122500000Y-127200000D03*
%TO.N,Net-(U11-SEG_A)*%
X125500000Y-129300000D03*
%TO.N,Net-(U11-SEG_C)*%
X124000000Y-127900000D03*
%TO.N,Net-(U12-SEG_C)*%
X120250000Y-131400000D03*
%TO.N,Net-(U12-SEG_A)*%
X121750000Y-132800000D03*
%TO.N,Net-(U12-SEG_D)*%
X119500000Y-130000000D03*
%TO.N,Net-(U11-SEG_D)*%
X123250000Y-126500000D03*
%TO.N,Net-(U11-SEG_B)*%
X124750000Y-128600000D03*
%TO.N,Net-(U12-SEG_E)*%
X118750000Y-130700000D03*
%TO.N,Net-(U12-SEG_B)*%
X121000000Y-132100000D03*
%TO.N,Net-(U11-SEG_A)*%
X97500000Y-129300000D03*
%TO.N,Net-(U11-SEG_B)*%
X96750000Y-128600000D03*
%TO.N,Net-(U11-SEG_C)*%
X96000000Y-127900000D03*
%TO.N,Net-(U11-SEG_D)*%
X95250000Y-126500000D03*
%TO.N,Net-(U11-SEG_E)*%
X94500000Y-127200000D03*
%TO.N,Net-(U12-SEG_A)*%
X93750000Y-132800000D03*
%TO.N,Net-(U12-SEG_B)*%
X93000000Y-132100000D03*
%TO.N,Net-(U12-SEG_C)*%
X92250000Y-131400000D03*
%TO.N,Net-(U12-SEG_D)*%
X91500000Y-130000000D03*
%TO.N,Net-(U12-SEG_E)*%
X90750000Y-130700000D03*
%TO.N,Net-(SW1-C)*%
X315250000Y-58500000D03*
%TO.N,Net-(SW1-B)*%
X315250000Y-57250000D03*
%TO.N,Net-(SW2-B)*%
X315250000Y-61000000D03*
%TO.N,Net-(SW3-B)*%
X315250000Y-63500000D03*
%TO.N,Net-(SW2-C)*%
X315250000Y-59750000D03*
%TO.N,Net-(SW4-B)*%
X315250000Y-66000000D03*
%TO.N,Net-(SW3-A)*%
X315250000Y-62250000D03*
%TO.N,Net-(SW4-C)*%
X315250000Y-64750000D03*
%TD*%
D19*
%TO.N,Net-(U10-DIG_7)*%
X107500000Y-183250000D02*
X100500000Y-176250000D01*
X100500000Y-176250000D02*
X100500000Y-74707106D01*
X100500000Y-74707106D02*
X103207106Y-72000000D01*
X103207106Y-72000000D02*
X212250000Y-72000000D01*
X212250000Y-72000000D02*
X217500000Y-77250000D01*
X217500000Y-77250000D02*
X217500000Y-110500000D01*
X217500000Y-110500000D02*
X221120000Y-114120000D01*
X221120000Y-114120000D02*
X221297500Y-114120000D01*
%TO.N,Net-(U10-DIG_6)*%
X137297500Y-114120000D02*
X133750000Y-110572500D01*
X103828424Y-73500000D02*
X102000000Y-75328424D01*
X133750000Y-110572500D02*
X133750000Y-82750000D01*
X133750000Y-82750000D02*
X124500000Y-73500000D01*
X124500000Y-73500000D02*
X103828424Y-73500000D01*
X102000000Y-75328424D02*
X102000000Y-136250000D01*
%TO.N,Net-(U10-DIG_2)*%
X165297500Y-114120000D02*
X160000000Y-108822500D01*
X160000000Y-108822500D02*
X160000000Y-75500000D01*
X160000000Y-75500000D02*
X157500000Y-73000000D01*
X157500000Y-73000000D02*
X103621318Y-73000000D01*
X103621318Y-73000000D02*
X101500000Y-75121318D01*
X101500000Y-75121318D02*
X101500000Y-92000000D01*
%TO.N,Net-(U10-DIG_3)*%
X107500000Y-182250000D02*
X101000000Y-175750000D01*
X101000000Y-175750000D02*
X101000000Y-74914212D01*
X101000000Y-74914212D02*
X103414212Y-72500000D01*
X103414212Y-72500000D02*
X185250000Y-72500000D01*
X185250000Y-72500000D02*
X188000000Y-75250000D01*
X188000000Y-75250000D02*
X188000000Y-108822500D01*
X188000000Y-108822500D02*
X193297500Y-114120000D01*
%TO.N,Net-(U10-DIG_5)*%
X107500000Y-184250000D02*
X100000000Y-176750000D01*
X100000000Y-176750000D02*
X100000000Y-74500000D01*
X100000000Y-74500000D02*
X103000000Y-71500000D01*
X103000000Y-71500000D02*
X239750000Y-71500000D01*
X239750000Y-71500000D02*
X243750000Y-75500000D01*
X243750000Y-75500000D02*
X243750000Y-108572500D01*
X243750000Y-108572500D02*
X249297500Y-114120000D01*
%TO.N,Net-(U10-DIG_1)*%
X277297500Y-114120000D02*
X271750000Y-108572500D01*
X271750000Y-108572500D02*
X271750000Y-76750000D01*
X271750000Y-76750000D02*
X266000000Y-71000000D01*
X266000000Y-71000000D02*
X102792893Y-71000000D01*
X102792893Y-71000000D02*
X99500000Y-74292893D01*
X99500000Y-74292893D02*
X99500000Y-96000000D01*
%TO.N,Net-(U12-DIG_1)*%
X217500000Y-117000000D02*
X216500000Y-118000000D01*
X216500000Y-118000000D02*
X216500000Y-178000000D01*
X216500000Y-178000000D02*
X218750000Y-180250000D01*
X218750000Y-180250000D02*
X231780000Y-180250000D01*
X231780000Y-180250000D02*
X237580000Y-186050000D01*
%TO.N,Net-(U12-DIG_5)*%
X217500000Y-116000000D02*
X216000000Y-117500000D01*
X216000000Y-178750000D02*
X218250000Y-181000000D01*
X229990000Y-181000000D02*
X235040000Y-186050000D01*
X216000000Y-117500000D02*
X216000000Y-178750000D01*
X218250000Y-181000000D02*
X229990000Y-181000000D01*
%TO.N,Net-(U12-DIG_2)*%
X214500000Y-120500000D02*
X213750000Y-121250000D01*
X213750000Y-121250000D02*
X213750000Y-180500000D01*
X222080000Y-183250000D02*
X224880000Y-186050000D01*
X213750000Y-180500000D02*
X216500000Y-183250000D01*
X216500000Y-183250000D02*
X222080000Y-183250000D01*
%TO.N,Net-(U12-DIG_6)*%
X214486221Y-119493681D02*
X213250000Y-120729902D01*
X213250000Y-120729902D02*
X213250000Y-181000000D01*
X213250000Y-181000000D02*
X216250000Y-184000000D01*
X216250000Y-184000000D02*
X220290000Y-184000000D01*
X220290000Y-184000000D02*
X222340000Y-186050000D01*
%TO.N,Net-(U12-DIG_3)*%
X214500000Y-121500000D02*
X214250000Y-121750000D01*
X214250000Y-121750000D02*
X214250000Y-179750000D01*
X214250000Y-179750000D02*
X217000000Y-182500000D01*
X217000000Y-182500000D02*
X223870000Y-182500000D01*
X223870000Y-182500000D02*
X227420000Y-186050000D01*
%TO.N,Net-(U12-DIG_7)*%
X217500000Y-115000000D02*
X215500000Y-117000000D01*
X215500000Y-117000000D02*
X215500000Y-179750000D01*
X217500000Y-181750000D02*
X225660000Y-181750000D01*
X225660000Y-181750000D02*
X229960000Y-186050000D01*
X215500000Y-179750000D02*
X217500000Y-181750000D01*
%TO.N,Net-(U12-DIG_0)*%
X214500000Y-117500000D02*
X212250000Y-119750000D01*
X212250000Y-183580000D02*
X214720000Y-186050000D01*
X212250000Y-119750000D02*
X212250000Y-183580000D01*
%TO.N,Net-(U12-DIG_4)*%
X214491859Y-118498092D02*
X214491860Y-118498092D01*
X214491860Y-118498092D02*
X212750000Y-120239952D01*
X212750000Y-120239952D02*
X212750000Y-181540000D01*
X212750000Y-181540000D02*
X217260000Y-186050000D01*
%TO.N,Net-(U11-DIG_4)*%
X186750000Y-121000000D02*
X185000000Y-122750000D01*
X185000000Y-122750000D02*
X185000000Y-180750000D01*
X185000000Y-180750000D02*
X182500000Y-183250000D01*
X182500000Y-183250000D02*
X176855000Y-183250000D01*
X176855000Y-183250000D02*
X174105000Y-186000000D01*
%TO.N,Net-(U11-DIG_0)*%
X186750000Y-120000000D02*
X184500000Y-122250000D01*
X184500000Y-122250000D02*
X184500000Y-180250000D01*
X175065000Y-182500000D02*
X171565000Y-186000000D01*
X184500000Y-180250000D02*
X182250000Y-182500000D01*
X182250000Y-182500000D02*
X175065000Y-182500000D01*
%TO.N,Net-(U11-DIG_6)*%
X186750000Y-122000000D02*
X185500000Y-123250000D01*
X185500000Y-123250000D02*
X185500000Y-181250000D01*
X185500000Y-181250000D02*
X182750000Y-184000000D01*
X182750000Y-184000000D02*
X181185000Y-184000000D01*
X181185000Y-184000000D02*
X179185000Y-186000000D01*
%TO.N,Net-(U11-DIG_2)*%
X186750001Y-122989949D02*
X186000000Y-123739950D01*
X186000000Y-181725000D02*
X181725000Y-186000000D01*
X186000000Y-123739950D02*
X186000000Y-181725000D01*
%TO.N,Net-(U11-DIG_1)*%
X190000000Y-118000000D02*
X188950000Y-119050000D01*
X188950000Y-119050000D02*
X188950000Y-180525000D01*
X188950000Y-180525000D02*
X194425000Y-186000000D01*
%TO.N,Net-(U11-DIG_5)*%
X190000000Y-117000000D02*
X188450000Y-118550000D01*
X188450000Y-118550000D02*
X188450000Y-182565000D01*
X188450000Y-182565000D02*
X191885000Y-186000000D01*
%TO.N,Net-(U11-DIG_7)*%
X190000000Y-116000000D02*
X187950000Y-118050000D01*
X187950000Y-118050000D02*
X187950000Y-184855000D01*
X187950000Y-184855000D02*
X186805000Y-186000000D01*
%TO.N,Net-(U11-DIG_3)*%
X190000000Y-115000000D02*
X187450000Y-117550000D01*
X187450000Y-117550000D02*
X187450000Y-182815000D01*
X187450000Y-182815000D02*
X184265000Y-186000000D01*
%TO.N,Net-(U9-DIG_1)*%
X133750000Y-125500000D02*
X133750000Y-178500000D01*
X133750000Y-178500000D02*
X135500000Y-180250000D01*
X135500000Y-180250000D02*
X145200000Y-180250000D01*
X145200000Y-180250000D02*
X151000000Y-186050000D01*
%TO.N,Net-(U9-DIG_5)*%
X133750000Y-124500000D02*
X133000000Y-125250000D01*
X133000000Y-125250000D02*
X133000000Y-178750000D01*
X133000000Y-178750000D02*
X135250000Y-181000000D01*
X135250000Y-181000000D02*
X143410000Y-181000000D01*
X143410000Y-181000000D02*
X148460000Y-186050000D01*
%TO.N,Net-(U9-DIG_7)*%
X133750000Y-123500000D02*
X133552944Y-123500000D01*
X133552944Y-123500000D02*
X132250000Y-124802944D01*
X132250000Y-124802944D02*
X132250000Y-179250000D01*
X132250000Y-179250000D02*
X134750000Y-181750000D01*
X134750000Y-181750000D02*
X139080000Y-181750000D01*
X139080000Y-181750000D02*
X143380000Y-186050000D01*
%TO.N,Net-(U9-DIG_3)*%
X133750000Y-122500000D02*
X131500000Y-124750000D01*
X131500000Y-179500000D02*
X134500000Y-182500000D01*
X131500000Y-124750000D02*
X131500000Y-179500000D01*
X134500000Y-182500000D02*
X137290000Y-182500000D01*
X137290000Y-182500000D02*
X140840000Y-186050000D01*
%TO.N,Net-(U9-DIG_2)*%
X133750000Y-121500000D02*
X130750000Y-124500000D01*
X134000000Y-183250000D02*
X135500000Y-183250000D01*
X130750000Y-124500000D02*
X130750000Y-180000000D01*
X130750000Y-180000000D02*
X134000000Y-183250000D01*
X135500000Y-183250000D02*
X138300000Y-186050000D01*
%TO.N,Net-(U9-DIG_6)*%
X133750000Y-120500000D02*
X130000000Y-124250000D01*
X130000000Y-124250000D02*
X130000000Y-180290000D01*
X130000000Y-180290000D02*
X135760000Y-186050000D01*
%TO.N,Net-(U9-DIG_0)*%
X129250000Y-123750000D02*
X128500000Y-124500000D01*
X128500000Y-185690000D02*
X128140000Y-186050000D01*
X128500000Y-124500000D02*
X128500000Y-185690000D01*
%TO.N,Net-(U9-DIG_4)*%
X129250000Y-125000000D02*
X129250000Y-184620000D01*
X129250000Y-184620000D02*
X130680000Y-186050000D01*
%TO.N,Net-(U10-DIG_0)*%
X81297500Y-114120000D02*
X77750000Y-110572500D01*
X77750000Y-110572500D02*
X77750000Y-74250000D01*
X77750000Y-74250000D02*
X78750000Y-73250000D01*
X78750000Y-73250000D02*
X97000000Y-73250000D01*
X97000000Y-73250000D02*
X99000000Y-75250000D01*
X99000000Y-75250000D02*
X99000000Y-168350000D01*
X99000000Y-168350000D02*
X85260000Y-182090000D01*
X85260000Y-182090000D02*
X85260000Y-186050000D01*
%TO.N,Net-(U10-DIG_4)*%
X107500000Y-179250000D02*
X102500000Y-174250000D01*
X102500000Y-174250000D02*
X102500000Y-131077500D01*
X102500000Y-131077500D02*
X109297500Y-124280000D01*
%TO.N,Net-(U10-DIG_6)*%
X107500000Y-180250000D02*
X102000000Y-174750000D01*
X102000000Y-174750000D02*
X102000000Y-136250000D01*
%TO.N,Net-(U10-DIG_2)*%
X107500000Y-181250000D02*
X101500000Y-175250000D01*
X101500000Y-175250000D02*
X101500000Y-92000000D01*
%TO.N,Net-(U10-DIG_1)*%
X99500000Y-139000000D02*
X99500000Y-177457107D01*
X99500000Y-177457107D02*
X108092893Y-186050000D01*
X108092893Y-186050000D02*
X108120000Y-186050000D01*
X99500000Y-96000000D02*
X99500000Y-139000000D01*
X99500000Y-139000000D02*
X99500000Y-139250000D01*
%TO.N,Net-(U10-DIG_2)*%
X101500000Y-92000000D02*
X101500000Y-92250000D01*
%TO.N,Net-(U10-DIG_1)*%
X99500000Y-96000000D02*
X99500000Y-96250000D01*
%TO.N,Net-(U9-SEG_C)*%
X145124000Y-105376000D02*
X145250000Y-105376000D01*
X144917500Y-105582500D02*
X145124000Y-105376000D01*
X144917500Y-106500000D02*
X144917500Y-105582500D01*
%TO.N,Net-(U10-DIG_1)*%
X277297500Y-124280000D02*
X277297500Y-114120000D01*
%TO.N,Net-(U10-DIG_5)*%
X249297500Y-124280000D02*
X249297500Y-114120000D01*
%TO.N,Net-(U10-DIG_7)*%
X221297500Y-124280000D02*
X221297500Y-114120000D01*
%TO.N,Net-(U10-DIG_3)*%
X193297500Y-124280000D02*
X193297500Y-114120000D01*
%TO.N,Net-(U10-DIG_2)*%
X165297500Y-124280000D02*
X165297500Y-114120000D01*
%TO.N,Net-(U10-DIG_6)*%
X137297500Y-124280000D02*
X137297500Y-114120000D01*
%TO.N,Net-(U10-DIG_4)*%
X109297500Y-124280000D02*
X109297500Y-114120000D01*
%TO.N,Net-(U10-DIG_0)*%
X81297500Y-114120000D02*
X81297500Y-124280000D01*
%TO.N,Net-(U11-SEG_C)*%
X292000000Y-129250000D02*
X292000000Y-87582500D01*
X290385050Y-130864950D02*
X292000000Y-129250000D01*
X292000000Y-87582500D02*
X284917500Y-80500000D01*
%TO.N,Net-(U11-SEG_B)*%
X292750000Y-85792500D02*
X284917500Y-77960000D01*
X290450000Y-132000000D02*
X290500000Y-132000000D01*
X290500000Y-132000000D02*
X292750000Y-129750000D01*
X292750000Y-129750000D02*
X292750000Y-85792500D01*
%TO.N,Net-(U11-SEG_A)*%
X293500000Y-130250000D02*
X293500000Y-84002500D01*
X293500000Y-84002500D02*
X284917500Y-75420000D01*
X289750000Y-134000000D02*
X293500000Y-130250000D01*
%TO.N,Net-(U12-SEG_E)*%
X283250000Y-130700000D02*
X283250000Y-129500000D01*
X283250000Y-129500000D02*
X286750000Y-126000000D01*
X286750000Y-100112500D02*
X284917500Y-98280000D01*
X286750000Y-126000000D02*
X286750000Y-100112500D01*
%TO.N,Net-(U12-SEG_D)*%
X284500000Y-130000000D02*
X284500000Y-129500000D01*
X284500000Y-129500000D02*
X287500000Y-126500000D01*
X287500000Y-126500000D02*
X287500000Y-98322500D01*
X287500000Y-98322500D02*
X284917500Y-95740000D01*
%TO.N,Net-(U12-SEG_C)*%
X284934316Y-131400000D02*
X284934316Y-130565684D01*
X284934316Y-130565684D02*
X288250000Y-127250000D01*
X288250000Y-127250000D02*
X288250000Y-96532500D01*
X288250000Y-96532500D02*
X284917500Y-93200000D01*
%TO.N,Net-(U12-SEG_B)*%
X285500000Y-132100000D02*
X285700000Y-131900000D01*
X285700000Y-131900000D02*
X285700000Y-130800000D01*
X285700000Y-130800000D02*
X289000000Y-127500000D01*
X289000000Y-127500000D02*
X289000000Y-94742500D01*
X289000000Y-94742500D02*
X284917500Y-90660000D01*
%TO.N,Net-(U11-SEG_D)*%
X290750000Y-129250000D02*
X291250000Y-128750000D01*
X291250000Y-128750000D02*
X291250000Y-89372500D01*
X291250000Y-89372500D02*
X284917500Y-83040000D01*
%TO.N,Net-(U11-SEG_E)*%
X289505025Y-128994975D02*
X290500000Y-128000000D01*
X290500000Y-128000000D02*
X290500000Y-91162500D01*
X290500000Y-91162500D02*
X284917500Y-85580000D01*
%TO.N,Net-(U12-SEG_A)*%
X285795225Y-133204775D02*
X287000000Y-132000000D01*
X289750000Y-92952500D02*
X284917500Y-88120000D01*
X287000000Y-132000000D02*
X287000000Y-130500000D01*
X287000000Y-130500000D02*
X289750000Y-127750000D01*
X289750000Y-127750000D02*
X289750000Y-92952500D01*
%TO.N,Net-(U11-SEG_A)*%
X265750000Y-129300000D02*
X265750000Y-84252500D01*
X265750000Y-84252500D02*
X256917500Y-75420000D01*
%TO.N,Net-(U11-SEG_B)*%
X265000000Y-128600000D02*
X265000000Y-86042500D01*
X265000000Y-86042500D02*
X256917500Y-77960000D01*
%TO.N,Net-(U11-SEG_C)*%
X264250000Y-127900000D02*
X264250000Y-87832500D01*
X264250000Y-87832500D02*
X256917500Y-80500000D01*
%TO.N,Net-(U11-SEG_D)*%
X263500000Y-126500000D02*
X263500000Y-89622500D01*
X263500000Y-89622500D02*
X256917500Y-83040000D01*
%TO.N,Net-(U11-SEG_E)*%
X262750000Y-127200000D02*
X262750000Y-91412500D01*
X262750000Y-91412500D02*
X256917500Y-85580000D01*
%TO.N,Net-(U12-SEG_A)*%
X262000000Y-132800000D02*
X262000000Y-93202500D01*
X262000000Y-93202500D02*
X256917500Y-88120000D01*
%TO.N,Net-(U12-SEG_B)*%
X261250000Y-132100000D02*
X261250000Y-94992500D01*
X261250000Y-94992500D02*
X256917500Y-90660000D01*
%TO.N,Net-(U12-SEG_C)*%
X260500000Y-131400000D02*
X260500000Y-96782500D01*
X260500000Y-96782500D02*
X256917500Y-93200000D01*
%TO.N,Net-(U12-SEG_D)*%
X259750000Y-130000000D02*
X259750000Y-98572500D01*
X259750000Y-98572500D02*
X256917500Y-95740000D01*
%TO.N,Net-(U12-SEG_E)*%
X259000000Y-130700000D02*
X259000000Y-100362500D01*
X259000000Y-100362500D02*
X256917500Y-98280000D01*
%TO.N,Net-(U11-SEG_A)*%
X237750000Y-129300000D02*
X237750000Y-84252500D01*
X237750000Y-84252500D02*
X228917500Y-75420000D01*
%TO.N,Net-(U11-SEG_B)*%
X237000000Y-128600000D02*
X237000000Y-86042500D01*
X237000000Y-86042500D02*
X228917500Y-77960000D01*
%TO.N,Net-(U11-SEG_C)*%
X236250000Y-127900000D02*
X236250000Y-87832500D01*
X236250000Y-87832500D02*
X228917500Y-80500000D01*
%TO.N,Net-(U11-SEG_D)*%
X235500000Y-126500000D02*
X235500000Y-89622500D01*
X235500000Y-89622500D02*
X228917500Y-83040000D01*
%TO.N,Net-(U11-SEG_E)*%
X234750000Y-127200000D02*
X234750000Y-91412500D01*
X234750000Y-91412500D02*
X228917500Y-85580000D01*
%TO.N,Net-(U12-SEG_A)*%
X234000000Y-132800000D02*
X234000000Y-93202500D01*
X234000000Y-93202500D02*
X228917500Y-88120000D01*
%TO.N,Net-(U12-SEG_B)*%
X233250000Y-132100000D02*
X233250000Y-94992500D01*
X233250000Y-94992500D02*
X228917500Y-90660000D01*
%TO.N,Net-(U12-SEG_C)*%
X232500000Y-131400000D02*
X232500000Y-96782500D01*
X232500000Y-96782500D02*
X228917500Y-93200000D01*
%TO.N,Net-(U12-SEG_D)*%
X231750000Y-130000000D02*
X231750000Y-98572500D01*
X231750000Y-98572500D02*
X228917500Y-95740000D01*
%TO.N,Net-(U12-SEG_E)*%
X231000000Y-130700000D02*
X231000000Y-100362500D01*
X231000000Y-100362500D02*
X228917500Y-98280000D01*
%TO.N,Net-(U11-SEG_A)*%
X209750000Y-129300000D02*
X209750000Y-84252500D01*
X209750000Y-84252500D02*
X200917500Y-75420000D01*
%TO.N,Net-(U11-SEG_B)*%
X209000000Y-128600000D02*
X209000000Y-86042500D01*
X209000000Y-86042500D02*
X200917500Y-77960000D01*
%TO.N,Net-(U11-SEG_C)*%
X208250000Y-127900000D02*
X208250000Y-87832500D01*
X208250000Y-87832500D02*
X200917500Y-80500000D01*
%TO.N,Net-(U11-SEG_D)*%
X207500000Y-126500000D02*
X207500000Y-89622500D01*
X207500000Y-89622500D02*
X200917500Y-83040000D01*
%TO.N,Net-(U11-SEG_E)*%
X206750000Y-127200000D02*
X206750000Y-91412500D01*
X206750000Y-91412500D02*
X200917500Y-85580000D01*
%TO.N,Net-(U12-SEG_A)*%
X206000000Y-132800000D02*
X206000000Y-93202500D01*
X206000000Y-93202500D02*
X200917500Y-88120000D01*
%TO.N,Net-(U12-SEG_B)*%
X205250000Y-132100000D02*
X205250000Y-94992500D01*
X205250000Y-94992500D02*
X200917500Y-90660000D01*
%TO.N,Net-(U12-SEG_C)*%
X204500000Y-131400000D02*
X204500000Y-96782500D01*
X204500000Y-96782500D02*
X200917500Y-93200000D01*
%TO.N,Net-(U12-SEG_D)*%
X203750000Y-130000000D02*
X203750000Y-98572500D01*
X203750000Y-98572500D02*
X200917500Y-95740000D01*
%TO.N,Net-(U12-SEG_E)*%
X203000000Y-130700000D02*
X203000000Y-100362500D01*
X203000000Y-100362500D02*
X200917500Y-98280000D01*
%TO.N,Net-(U11-SEG_A)*%
X181750000Y-129300000D02*
X181750000Y-84252500D01*
X181750000Y-84252500D02*
X172917500Y-75420000D01*
%TO.N,Net-(U11-SEG_B)*%
X181000000Y-128600000D02*
X181000000Y-86042500D01*
X181000000Y-86042500D02*
X172917500Y-77960000D01*
%TO.N,Net-(U11-SEG_C)*%
X180250000Y-127900000D02*
X180250000Y-87832500D01*
X180250000Y-87832500D02*
X172917500Y-80500000D01*
%TO.N,Net-(U11-SEG_D)*%
X179500000Y-126500000D02*
X179500000Y-89622500D01*
X179500000Y-89622500D02*
X172917500Y-83040000D01*
%TO.N,Net-(U11-SEG_E)*%
X178750000Y-127200000D02*
X178750000Y-91412500D01*
X178750000Y-91412500D02*
X172917500Y-85580000D01*
%TO.N,Net-(U12-SEG_A)*%
X178000000Y-132800000D02*
X178000000Y-93202500D01*
X178000000Y-93202500D02*
X172917500Y-88120000D01*
%TO.N,Net-(U12-SEG_B)*%
X177250000Y-132100000D02*
X177250000Y-94992500D01*
X177250000Y-94992500D02*
X172917500Y-90660000D01*
%TO.N,Net-(U12-SEG_C)*%
X176500000Y-131400000D02*
X176500000Y-96782500D01*
X176500000Y-96782500D02*
X172917500Y-93200000D01*
%TO.N,Net-(U12-SEG_D)*%
X175750000Y-130000000D02*
X175750000Y-98572500D01*
X175750000Y-98572500D02*
X172917500Y-95740000D01*
%TO.N,Net-(U12-SEG_E)*%
X175000000Y-130700000D02*
X175000000Y-100362500D01*
X175000000Y-100362500D02*
X172917500Y-98280000D01*
%TO.N,Net-(U11-SEG_A)*%
X153750000Y-129300000D02*
X153750000Y-84252500D01*
X153750000Y-84252500D02*
X144917500Y-75420000D01*
%TO.N,Net-(U11-SEG_B)*%
X153000000Y-128600000D02*
X153000000Y-86042500D01*
X153000000Y-86042500D02*
X144917500Y-77960000D01*
%TO.N,Net-(U11-SEG_C)*%
X152250000Y-127900000D02*
X152250000Y-87832500D01*
X152250000Y-87832500D02*
X144917500Y-80500000D01*
%TO.N,Net-(U11-SEG_D)*%
X151500000Y-126500000D02*
X151500000Y-89622500D01*
X151500000Y-89622500D02*
X144917500Y-83040000D01*
%TO.N,Net-(U11-SEG_E)*%
X150750000Y-127200000D02*
X150750000Y-91412500D01*
X150750000Y-91412500D02*
X144917500Y-85580000D01*
%TO.N,Net-(U12-SEG_A)*%
X150000000Y-132800000D02*
X150000000Y-93202500D01*
X150000000Y-93202500D02*
X144917500Y-88120000D01*
%TO.N,Net-(U12-SEG_B)*%
X149250000Y-132100000D02*
X149250000Y-94992500D01*
X149250000Y-94992500D02*
X144917500Y-90660000D01*
%TO.N,Net-(U12-SEG_C)*%
X148500000Y-131400000D02*
X148500000Y-96782500D01*
X148500000Y-96782500D02*
X144917500Y-93200000D01*
%TO.N,Net-(U12-SEG_D)*%
X147750000Y-130000000D02*
X147750000Y-98572500D01*
X147750000Y-98572500D02*
X144917500Y-95740000D01*
%TO.N,Net-(U12-SEG_E)*%
X147000000Y-130700000D02*
X147000000Y-100362500D01*
X147000000Y-100362500D02*
X144917500Y-98280000D01*
%TO.N,Net-(U11-SEG_A)*%
X125500000Y-129300000D02*
X125500000Y-84002500D01*
X125500000Y-84002500D02*
X116917500Y-75420000D01*
%TO.N,Net-(U11-SEG_B)*%
X124750000Y-128600000D02*
X124750000Y-85792500D01*
X124750000Y-85792500D02*
X116917500Y-77960000D01*
%TO.N,Net-(U11-SEG_C)*%
X124000000Y-127900000D02*
X124000000Y-87582500D01*
X124000000Y-87582500D02*
X116917500Y-80500000D01*
%TO.N,Net-(U11-SEG_D)*%
X123250000Y-126500000D02*
X123250000Y-89372500D01*
X123250000Y-89372500D02*
X116917500Y-83040000D01*
%TO.N,Net-(U11-SEG_E)*%
X122500000Y-127200000D02*
X122500000Y-91162500D01*
X122500000Y-91162500D02*
X116917500Y-85580000D01*
%TO.N,Net-(U12-SEG_A)*%
X121750000Y-132800000D02*
X121750000Y-92952500D01*
X121750000Y-92952500D02*
X116917500Y-88120000D01*
%TO.N,Net-(U12-SEG_B)*%
X121000000Y-132100000D02*
X121000000Y-94742500D01*
X121000000Y-94742500D02*
X116917500Y-90660000D01*
%TO.N,Net-(U12-SEG_C)*%
X120250000Y-131400000D02*
X120250000Y-96532500D01*
X120250000Y-96532500D02*
X116917500Y-93200000D01*
%TO.N,Net-(U12-SEG_D)*%
X119500000Y-130000000D02*
X119500000Y-98322500D01*
X119500000Y-98322500D02*
X116917500Y-95740000D01*
%TO.N,Net-(U12-SEG_E)*%
X118750000Y-130700000D02*
X118750000Y-100112500D01*
X118750000Y-100112500D02*
X116917500Y-98280000D01*
%TO.N,Net-(U11-SEG_A)*%
X97500000Y-84002500D02*
X88917500Y-75420000D01*
X97500000Y-129300000D02*
X97500000Y-84002500D01*
%TO.N,Net-(U12-SEG_A)*%
X93750000Y-132800000D02*
X93750000Y-92952500D01*
X93750000Y-92952500D02*
X88917500Y-88120000D01*
%TO.N,Net-(U12-SEG_B)*%
X93000000Y-94742500D02*
X88917500Y-90660000D01*
X93000000Y-132100000D02*
X93000000Y-94742500D01*
%TO.N,Net-(U12-SEG_C)*%
X92250000Y-131400000D02*
X92250000Y-96532500D01*
X92250000Y-96532500D02*
X88917500Y-93200000D01*
%TO.N,Net-(U12-SEG_D)*%
X91500000Y-130000000D02*
X91500000Y-98322500D01*
X91500000Y-98322500D02*
X88917500Y-95740000D01*
%TO.N,Net-(U11-SEG_B)*%
X96750000Y-128600000D02*
X96750000Y-85792500D01*
X96750000Y-85792500D02*
X88917500Y-77960000D01*
%TO.N,Net-(U11-SEG_C)*%
X96000000Y-127900000D02*
X96000000Y-87582500D01*
X96000000Y-87582500D02*
X88917500Y-80500000D01*
%TO.N,Net-(U11-SEG_D)*%
X95250000Y-126500000D02*
X95250000Y-89372500D01*
X95250000Y-89372500D02*
X88917500Y-83040000D01*
%TO.N,Net-(U11-SEG_E)*%
X94500000Y-91162500D02*
X88917500Y-85580000D01*
X94500000Y-127200000D02*
X94500000Y-91162500D01*
%TO.N,Net-(U12-SEG_E)*%
X90750000Y-100112500D02*
X88917500Y-98280000D01*
X90750000Y-130700000D02*
X90750000Y-100112500D01*
%TO.N,Net-(U10-DIG_6)*%
X102000000Y-136250000D02*
X102000000Y-136500000D01*
%TD*%
M02*
