%TF.GenerationSoftware,KiCad,Pcbnew,8.0.6*%
%TF.CreationDate,2024-12-09T18:37:17+11:00*%
%TF.ProjectId,mixer,6d697865-722e-46b6-9963-61645f706362,rev?*%
%TF.SameCoordinates,Original*%
%TF.FileFunction,Soldermask,Bot*%
%TF.FilePolarity,Negative*%
%FSLAX46Y46*%
G04 Gerber Fmt 4.6, Leading zero omitted, Abs format (unit mm)*
G04 Created by KiCad (PCBNEW 8.0.6) date 2024-12-09 18:37:17*
%MOMM*%
%LPD*%
G01*
G04 APERTURE LIST*
%ADD10C,1.524000*%
%ADD11R,2.032000X2.032000*%
%ADD12C,2.032000*%
%ADD13C,1.600000*%
%ADD14O,1.600000X1.600000*%
%ADD15R,1.700000X1.700000*%
%ADD16O,1.700000X1.700000*%
%ADD17R,1.600000X1.600000*%
G04 APERTURE END LIST*
D10*
%TO.C,solo4*%
X172000000Y-136420000D03*
X166000000Y-136420000D03*
X166000000Y-141420000D03*
X172000000Y-141420000D03*
X172000000Y-138920000D03*
X166000000Y-138920000D03*
%TD*%
%TO.C,SW4*%
X174500000Y-64170000D03*
X174500000Y-54170000D03*
X174500000Y-59170000D03*
%TD*%
%TO.C,solo7*%
X256000000Y-136420000D03*
X250000000Y-136420000D03*
X250000000Y-141420000D03*
X256000000Y-141420000D03*
X256000000Y-138920000D03*
X250000000Y-138920000D03*
%TD*%
%TO.C,oled7*%
X250000000Y-174420000D03*
X252000000Y-174420000D03*
X254000000Y-174420000D03*
X256000000Y-174420000D03*
%TD*%
%TO.C,solo5*%
X200000000Y-136420000D03*
X194000000Y-136420000D03*
X194000000Y-141420000D03*
X200000000Y-141420000D03*
X200000000Y-138920000D03*
X194000000Y-138920000D03*
%TD*%
%TO.C,SW7*%
X258500000Y-64170000D03*
X258500000Y-54170000D03*
X258500000Y-59170000D03*
%TD*%
D11*
%TO.C,BAR14*%
X221297500Y-101420000D03*
D12*
X221297500Y-103960000D03*
X221297500Y-106500000D03*
X221297500Y-109040000D03*
X221297500Y-111580000D03*
X221297500Y-114120000D03*
X221297500Y-116660000D03*
X221297500Y-119200000D03*
X221297500Y-121740000D03*
X221297500Y-124280000D03*
X228917500Y-124280000D03*
X228917500Y-121740000D03*
X228917500Y-119200000D03*
X228917500Y-116660000D03*
X228917500Y-114120000D03*
X228917500Y-111580000D03*
X228917500Y-109040000D03*
X228917500Y-106500000D03*
X228917500Y-103960000D03*
X228917500Y-101420000D03*
%TD*%
D11*
%TO.C,BAR10*%
X109297500Y-101420000D03*
D12*
X109297500Y-103960000D03*
X109297500Y-106500000D03*
X109297500Y-109040000D03*
X109297500Y-111580000D03*
X109297500Y-114120000D03*
X109297500Y-116660000D03*
X109297500Y-119200000D03*
X109297500Y-121740000D03*
X109297500Y-124280000D03*
X116917500Y-124280000D03*
X116917500Y-121740000D03*
X116917500Y-119200000D03*
X116917500Y-116660000D03*
X116917500Y-114120000D03*
X116917500Y-111580000D03*
X116917500Y-109040000D03*
X116917500Y-106500000D03*
X116917500Y-103960000D03*
X116917500Y-101420000D03*
%TD*%
D10*
%TO.C,SW8*%
X286500000Y-64170000D03*
X286500000Y-54170000D03*
X286500000Y-59170000D03*
%TD*%
%TO.C,oled3*%
X138000000Y-174420000D03*
X140000000Y-174420000D03*
X142000000Y-174420000D03*
X144000000Y-174420000D03*
%TD*%
%TO.C,oled8*%
X278000000Y-174420000D03*
X280000000Y-174420000D03*
X282000000Y-174420000D03*
X284000000Y-174420000D03*
%TD*%
%TO.C,oled1*%
X82000000Y-174420000D03*
X84000000Y-174420000D03*
X86000000Y-174420000D03*
X88000000Y-174420000D03*
%TD*%
%TO.C,SW5*%
X202500000Y-64170000D03*
X202500000Y-54170000D03*
X202500000Y-59170000D03*
%TD*%
%TO.C,mute9*%
X88000000Y-155920000D03*
X82000000Y-155920000D03*
X82000000Y-160920000D03*
X88000000Y-160920000D03*
X88000000Y-158420000D03*
X82000000Y-158420000D03*
%TD*%
%TO.C,mute12*%
X172000000Y-155920000D03*
X166000000Y-155920000D03*
X166000000Y-160920000D03*
X172000000Y-160920000D03*
X172000000Y-158420000D03*
X166000000Y-158420000D03*
%TD*%
D11*
%TO.C,BAR16*%
X277297500Y-101420000D03*
D12*
X277297500Y-103960000D03*
X277297500Y-106500000D03*
X277297500Y-109040000D03*
X277297500Y-111580000D03*
X277297500Y-114120000D03*
X277297500Y-116660000D03*
X277297500Y-119200000D03*
X277297500Y-121740000D03*
X277297500Y-124280000D03*
X284917500Y-124280000D03*
X284917500Y-121740000D03*
X284917500Y-119200000D03*
X284917500Y-116660000D03*
X284917500Y-114120000D03*
X284917500Y-111580000D03*
X284917500Y-109040000D03*
X284917500Y-106500000D03*
X284917500Y-103960000D03*
X284917500Y-101420000D03*
%TD*%
D13*
%TO.C,C1*%
X300670000Y-96750000D03*
D14*
X308170000Y-96750000D03*
%TD*%
D13*
%TO.C,C2*%
X314000000Y-78750000D03*
D14*
X321500000Y-78750000D03*
%TD*%
D10*
%TO.C,solo8*%
X284000000Y-136420000D03*
X278000000Y-136420000D03*
X278000000Y-141420000D03*
X284000000Y-141420000D03*
X284000000Y-138920000D03*
X278000000Y-138920000D03*
%TD*%
%TO.C,oled6*%
X222000000Y-174420000D03*
X224000000Y-174420000D03*
X226000000Y-174420000D03*
X228000000Y-174420000D03*
%TD*%
D11*
%TO.C,BAR9*%
X81297500Y-101420000D03*
D12*
X81297500Y-103960000D03*
X81297500Y-106500000D03*
X81297500Y-109040000D03*
X81297500Y-111580000D03*
X81297500Y-114120000D03*
X81297500Y-116660000D03*
X81297500Y-119200000D03*
X81297500Y-121740000D03*
X81297500Y-124280000D03*
X88917500Y-124280000D03*
X88917500Y-121740000D03*
X88917500Y-119200000D03*
X88917500Y-116660000D03*
X88917500Y-114120000D03*
X88917500Y-111580000D03*
X88917500Y-109040000D03*
X88917500Y-106500000D03*
X88917500Y-103960000D03*
X88917500Y-101420000D03*
%TD*%
D11*
%TO.C,BAR15*%
X249297500Y-101420000D03*
D12*
X249297500Y-103960000D03*
X249297500Y-106500000D03*
X249297500Y-109040000D03*
X249297500Y-111580000D03*
X249297500Y-114120000D03*
X249297500Y-116660000D03*
X249297500Y-119200000D03*
X249297500Y-121740000D03*
X249297500Y-124280000D03*
X256917500Y-124280000D03*
X256917500Y-121740000D03*
X256917500Y-119200000D03*
X256917500Y-116660000D03*
X256917500Y-114120000D03*
X256917500Y-111580000D03*
X256917500Y-109040000D03*
X256917500Y-106500000D03*
X256917500Y-103960000D03*
X256917500Y-101420000D03*
%TD*%
D10*
%TO.C,oled2*%
X110000000Y-174420000D03*
X112000000Y-174420000D03*
X114000000Y-174420000D03*
X116000000Y-174420000D03*
%TD*%
D11*
%TO.C,BAR11*%
X137297500Y-101420000D03*
D12*
X137297500Y-103960000D03*
X137297500Y-106500000D03*
X137297500Y-109040000D03*
X137297500Y-111580000D03*
X137297500Y-114120000D03*
X137297500Y-116660000D03*
X137297500Y-119200000D03*
X137297500Y-121740000D03*
X137297500Y-124280000D03*
X144917500Y-124280000D03*
X144917500Y-121740000D03*
X144917500Y-119200000D03*
X144917500Y-116660000D03*
X144917500Y-114120000D03*
X144917500Y-111580000D03*
X144917500Y-109040000D03*
X144917500Y-106500000D03*
X144917500Y-103960000D03*
X144917500Y-101420000D03*
%TD*%
D15*
%TO.C, 111*%
X314250000Y-176170000D03*
D16*
X314250000Y-178710000D03*
X314250000Y-181250000D03*
X314250000Y-183790000D03*
X314250000Y-186330000D03*
X314250000Y-188870000D03*
X314250000Y-191410000D03*
X314250000Y-193950000D03*
X314250000Y-196490000D03*
X314250000Y-199030000D03*
%TD*%
D11*
%TO.C,BAR4*%
X165297500Y-75420000D03*
D12*
X165297500Y-77960000D03*
X165297500Y-80500000D03*
X165297500Y-83040000D03*
X165297500Y-85580000D03*
X165297500Y-88120000D03*
X165297500Y-90660000D03*
X165297500Y-93200000D03*
X165297500Y-95740000D03*
X165297500Y-98280000D03*
X172917500Y-98280000D03*
X172917500Y-95740000D03*
X172917500Y-93200000D03*
X172917500Y-90660000D03*
X172917500Y-88120000D03*
X172917500Y-85580000D03*
X172917500Y-83040000D03*
X172917500Y-80500000D03*
X172917500Y-77960000D03*
X172917500Y-75420000D03*
%TD*%
D10*
%TO.C,SW3*%
X146500000Y-64170000D03*
X146500000Y-54170000D03*
X146500000Y-59170000D03*
%TD*%
D13*
%TO.C,R1*%
X146170000Y-204500000D03*
D14*
X156330000Y-204500000D03*
%TD*%
D11*
%TO.C,BAR12*%
X165297500Y-101420000D03*
D12*
X165297500Y-103960000D03*
X165297500Y-106500000D03*
X165297500Y-109040000D03*
X165297500Y-111580000D03*
X165297500Y-114120000D03*
X165297500Y-116660000D03*
X165297500Y-119200000D03*
X165297500Y-121740000D03*
X165297500Y-124280000D03*
X172917500Y-124280000D03*
X172917500Y-121740000D03*
X172917500Y-119200000D03*
X172917500Y-116660000D03*
X172917500Y-114120000D03*
X172917500Y-111580000D03*
X172917500Y-109040000D03*
X172917500Y-106500000D03*
X172917500Y-103960000D03*
X172917500Y-101420000D03*
%TD*%
D13*
%TO.C,R2*%
X297920000Y-85250000D03*
D14*
X308080000Y-85250000D03*
%TD*%
D10*
%TO.C,solo2*%
X116000000Y-136420000D03*
X110000000Y-136420000D03*
X110000000Y-141420000D03*
X116000000Y-141420000D03*
X116000000Y-138920000D03*
X110000000Y-138920000D03*
%TD*%
D11*
%TO.C,BAR5*%
X193297500Y-75420000D03*
D12*
X193297500Y-77960000D03*
X193297500Y-80500000D03*
X193297500Y-83040000D03*
X193297500Y-85580000D03*
X193297500Y-88120000D03*
X193297500Y-90660000D03*
X193297500Y-93200000D03*
X193297500Y-95740000D03*
X193297500Y-98280000D03*
X200917500Y-98280000D03*
X200917500Y-95740000D03*
X200917500Y-93200000D03*
X200917500Y-90660000D03*
X200917500Y-88120000D03*
X200917500Y-85580000D03*
X200917500Y-83040000D03*
X200917500Y-80500000D03*
X200917500Y-77960000D03*
X200917500Y-75420000D03*
%TD*%
D13*
%TO.C,R3*%
X298340000Y-103750000D03*
D14*
X308500000Y-103750000D03*
%TD*%
D10*
%TO.C,mute10*%
X116000000Y-155920000D03*
X110000000Y-155920000D03*
X110000000Y-160920000D03*
X116000000Y-160920000D03*
X116000000Y-158420000D03*
X110000000Y-158420000D03*
%TD*%
D13*
%TO.C,C12*%
X313750000Y-117500000D03*
D14*
X321250000Y-117500000D03*
%TD*%
D15*
%TO.C, 11*%
X314250000Y-126130000D03*
D16*
X314250000Y-128670000D03*
X314250000Y-131210000D03*
X314250000Y-133750000D03*
X314250000Y-136290000D03*
X314250000Y-138830000D03*
X314250000Y-141370000D03*
X314250000Y-143910000D03*
X314250000Y-146450000D03*
X314250000Y-148990000D03*
%TD*%
D13*
%TO.C,R5*%
X270340000Y-205750000D03*
D14*
X280500000Y-205750000D03*
%TD*%
D11*
%TO.C,BAR3*%
X137297500Y-75420000D03*
D12*
X137297500Y-77960000D03*
X137297500Y-80500000D03*
X137297500Y-83040000D03*
X137297500Y-85580000D03*
X137297500Y-88120000D03*
X137297500Y-90660000D03*
X137297500Y-93200000D03*
X137297500Y-95740000D03*
X137297500Y-98280000D03*
X144917500Y-98280000D03*
X144917500Y-95740000D03*
X144917500Y-93200000D03*
X144917500Y-90660000D03*
X144917500Y-88120000D03*
X144917500Y-85580000D03*
X144917500Y-83040000D03*
X144917500Y-80500000D03*
X144917500Y-77960000D03*
X144917500Y-75420000D03*
%TD*%
D10*
%TO.C,mute11*%
X144000000Y-155920000D03*
X138000000Y-155920000D03*
X138000000Y-160920000D03*
X144000000Y-160920000D03*
X144000000Y-158420000D03*
X138000000Y-158420000D03*
%TD*%
%TO.C,solo3*%
X144000000Y-136420000D03*
X138000000Y-136420000D03*
X138000000Y-141420000D03*
X144000000Y-141420000D03*
X144000000Y-138920000D03*
X138000000Y-138920000D03*
%TD*%
D11*
%TO.C,BAR8*%
X277297500Y-75420000D03*
D12*
X277297500Y-77960000D03*
X277297500Y-80500000D03*
X277297500Y-83040000D03*
X277297500Y-85580000D03*
X277297500Y-88120000D03*
X277297500Y-90660000D03*
X277297500Y-93200000D03*
X277297500Y-95740000D03*
X277297500Y-98280000D03*
X284917500Y-98280000D03*
X284917500Y-95740000D03*
X284917500Y-93200000D03*
X284917500Y-90660000D03*
X284917500Y-88120000D03*
X284917500Y-85580000D03*
X284917500Y-83040000D03*
X284917500Y-80500000D03*
X284917500Y-77960000D03*
X284917500Y-75420000D03*
%TD*%
D10*
%TO.C,mute13*%
X200000000Y-155920000D03*
X194000000Y-155920000D03*
X194000000Y-160920000D03*
X200000000Y-160920000D03*
X200000000Y-158420000D03*
X194000000Y-158420000D03*
%TD*%
%TO.C,oled5*%
X194000000Y-174420000D03*
X196000000Y-174420000D03*
X198000000Y-174420000D03*
X200000000Y-174420000D03*
%TD*%
D13*
%TO.C,R4*%
X226340000Y-206000000D03*
D14*
X236500000Y-206000000D03*
%TD*%
D11*
%TO.C,BAR6*%
X221297500Y-75420000D03*
D12*
X221297500Y-77960000D03*
X221297500Y-80500000D03*
X221297500Y-83040000D03*
X221297500Y-85580000D03*
X221297500Y-88120000D03*
X221297500Y-90660000D03*
X221297500Y-93200000D03*
X221297500Y-95740000D03*
X221297500Y-98280000D03*
X228917500Y-98280000D03*
X228917500Y-95740000D03*
X228917500Y-93200000D03*
X228917500Y-90660000D03*
X228917500Y-88120000D03*
X228917500Y-85580000D03*
X228917500Y-83040000D03*
X228917500Y-80500000D03*
X228917500Y-77960000D03*
X228917500Y-75420000D03*
%TD*%
D11*
%TO.C,BAR7*%
X249297500Y-75420000D03*
D12*
X249297500Y-77960000D03*
X249297500Y-80500000D03*
X249297500Y-83040000D03*
X249297500Y-85580000D03*
X249297500Y-88120000D03*
X249297500Y-90660000D03*
X249297500Y-93200000D03*
X249297500Y-95740000D03*
X249297500Y-98280000D03*
X256917500Y-98280000D03*
X256917500Y-95740000D03*
X256917500Y-93200000D03*
X256917500Y-90660000D03*
X256917500Y-88120000D03*
X256917500Y-85580000D03*
X256917500Y-83040000D03*
X256917500Y-80500000D03*
X256917500Y-77960000D03*
X256917500Y-75420000D03*
%TD*%
D13*
%TO.C,C10*%
X314750000Y-169000000D03*
D14*
X322250000Y-169000000D03*
%TD*%
D11*
%TO.C,BAR1*%
X81297500Y-75420000D03*
D12*
X81297500Y-77960000D03*
X81297500Y-80500000D03*
X81297500Y-83040000D03*
X81297500Y-85580000D03*
X81297500Y-88120000D03*
X81297500Y-90660000D03*
X81297500Y-93200000D03*
X81297500Y-95740000D03*
X81297500Y-98280000D03*
X88917500Y-98280000D03*
X88917500Y-95740000D03*
X88917500Y-93200000D03*
X88917500Y-90660000D03*
X88917500Y-88120000D03*
X88917500Y-85580000D03*
X88917500Y-83040000D03*
X88917500Y-80500000D03*
X88917500Y-77960000D03*
X88917500Y-75420000D03*
%TD*%
D10*
%TO.C,SW2*%
X118500000Y-64170000D03*
X118500000Y-54170000D03*
X118500000Y-59170000D03*
%TD*%
%TO.C,SW1*%
X90500000Y-64170000D03*
X90500000Y-54170000D03*
X90500000Y-59170000D03*
%TD*%
%TO.C,solo1*%
X88000000Y-136420000D03*
X82000000Y-136420000D03*
X82000000Y-141420000D03*
X88000000Y-141420000D03*
X88000000Y-138920000D03*
X82000000Y-138920000D03*
%TD*%
D13*
%TO.C,C13*%
X300250000Y-78250000D03*
D14*
X307750000Y-78250000D03*
%TD*%
D10*
%TO.C,mute16*%
X284000000Y-155920000D03*
X278000000Y-155920000D03*
X278000000Y-160920000D03*
X284000000Y-160920000D03*
X284000000Y-158420000D03*
X278000000Y-158420000D03*
%TD*%
%TO.C,oled4*%
X166000000Y-174420000D03*
X168000000Y-174420000D03*
X170000000Y-174420000D03*
X172000000Y-174420000D03*
%TD*%
D13*
%TO.C,C11*%
X313750000Y-159750000D03*
D14*
X321250000Y-159750000D03*
%TD*%
D10*
%TO.C,solo6*%
X228000000Y-136420000D03*
X222000000Y-136420000D03*
X222000000Y-141420000D03*
X228000000Y-141420000D03*
X228000000Y-138920000D03*
X222000000Y-138920000D03*
%TD*%
D14*
%TO.C,C9*%
X306250000Y-118500000D03*
D13*
X298750000Y-118500000D03*
%TD*%
%TO.C,C8*%
X298250000Y-133000000D03*
D14*
X305750000Y-133000000D03*
%TD*%
D10*
%TO.C,mute14*%
X228000000Y-155920000D03*
X222000000Y-155920000D03*
X222000000Y-160920000D03*
X228000000Y-160920000D03*
X228000000Y-158420000D03*
X222000000Y-158420000D03*
%TD*%
%TO.C,SW6*%
X230500000Y-64170000D03*
X230500000Y-54170000D03*
X230500000Y-59170000D03*
%TD*%
%TO.C,mute15*%
X256000000Y-155920000D03*
X250000000Y-155920000D03*
X250000000Y-160920000D03*
X256000000Y-160920000D03*
X256000000Y-158420000D03*
X250000000Y-158420000D03*
%TD*%
D11*
%TO.C,BAR2*%
X109297500Y-75420000D03*
D12*
X109297500Y-77960000D03*
X109297500Y-80500000D03*
X109297500Y-83040000D03*
X109297500Y-85580000D03*
X109297500Y-88120000D03*
X109297500Y-90660000D03*
X109297500Y-93200000D03*
X109297500Y-95740000D03*
X109297500Y-98280000D03*
X116917500Y-98280000D03*
X116917500Y-95740000D03*
X116917500Y-93200000D03*
X116917500Y-90660000D03*
X116917500Y-88120000D03*
X116917500Y-85580000D03*
X116917500Y-83040000D03*
X116917500Y-80500000D03*
X116917500Y-77960000D03*
X116917500Y-75420000D03*
%TD*%
D11*
%TO.C,BAR13*%
X193297500Y-101420000D03*
D12*
X193297500Y-103960000D03*
X193297500Y-106500000D03*
X193297500Y-109040000D03*
X193297500Y-111580000D03*
X193297500Y-114120000D03*
X193297500Y-116660000D03*
X193297500Y-119200000D03*
X193297500Y-121740000D03*
X193297500Y-124280000D03*
X200917500Y-124280000D03*
X200917500Y-121740000D03*
X200917500Y-119200000D03*
X200917500Y-116660000D03*
X200917500Y-114120000D03*
X200917500Y-111580000D03*
X200917500Y-109040000D03*
X200917500Y-106500000D03*
X200917500Y-103960000D03*
X200917500Y-101420000D03*
%TD*%
D15*
%TO.C, 1*%
X298375000Y-176325000D03*
D16*
X298375000Y-178865000D03*
X298375000Y-181405000D03*
X298375000Y-183945000D03*
X298375000Y-186485000D03*
X298375000Y-189025000D03*
X298375000Y-191565000D03*
X298375000Y-194105000D03*
X298375000Y-196645000D03*
X298375000Y-199185000D03*
%TD*%
D17*
%TO.C,U4*%
X253025000Y-186050000D03*
D14*
X255565000Y-186050000D03*
X258105000Y-186050000D03*
X260645000Y-186050000D03*
X263185000Y-186050000D03*
X265725000Y-186050000D03*
X268265000Y-186050000D03*
X270805000Y-186050000D03*
X273345000Y-186050000D03*
X275885000Y-186050000D03*
X278425000Y-186050000D03*
X280965000Y-186050000D03*
X280965000Y-193670000D03*
X278425000Y-193670000D03*
X275885000Y-193670000D03*
X273345000Y-193670000D03*
X270805000Y-193670000D03*
X268265000Y-193670000D03*
X265725000Y-193670000D03*
X263185000Y-193670000D03*
X260645000Y-193670000D03*
X258105000Y-193670000D03*
X255565000Y-193670000D03*
X253025000Y-193670000D03*
%TD*%
D17*
%TO.C,U10*%
X82720000Y-186050000D03*
D14*
X85260000Y-186050000D03*
X87800000Y-186050000D03*
X90340000Y-186050000D03*
X92880000Y-186050000D03*
X95420000Y-186050000D03*
X97960000Y-186050000D03*
X100500000Y-186050000D03*
X103040000Y-186050000D03*
X105580000Y-186050000D03*
X108120000Y-186050000D03*
X110660000Y-186050000D03*
X110660000Y-193670000D03*
X108120000Y-193670000D03*
X105580000Y-193670000D03*
X103040000Y-193670000D03*
X100500000Y-193670000D03*
X97960000Y-193670000D03*
X95420000Y-193670000D03*
X92880000Y-193670000D03*
X90340000Y-193670000D03*
X87800000Y-193670000D03*
X85260000Y-193670000D03*
X82720000Y-193670000D03*
%TD*%
D17*
%TO.C,U11*%
X169025000Y-186000000D03*
D14*
X171565000Y-186000000D03*
X174105000Y-186000000D03*
X176645000Y-186000000D03*
X179185000Y-186000000D03*
X181725000Y-186000000D03*
X184265000Y-186000000D03*
X186805000Y-186000000D03*
X189345000Y-186000000D03*
X191885000Y-186000000D03*
X194425000Y-186000000D03*
X196965000Y-186000000D03*
X196965000Y-193620000D03*
X194425000Y-193620000D03*
X191885000Y-193620000D03*
X189345000Y-193620000D03*
X186805000Y-193620000D03*
X184265000Y-193620000D03*
X181725000Y-193620000D03*
X179185000Y-193620000D03*
X176645000Y-193620000D03*
X174105000Y-193620000D03*
X171565000Y-193620000D03*
X169025000Y-193620000D03*
%TD*%
D17*
%TO.C,U12*%
X212180000Y-186050000D03*
D14*
X214720000Y-186050000D03*
X217260000Y-186050000D03*
X219800000Y-186050000D03*
X222340000Y-186050000D03*
X224880000Y-186050000D03*
X227420000Y-186050000D03*
X229960000Y-186050000D03*
X232500000Y-186050000D03*
X235040000Y-186050000D03*
X237580000Y-186050000D03*
X240120000Y-186050000D03*
X240120000Y-193670000D03*
X237580000Y-193670000D03*
X235040000Y-193670000D03*
X232500000Y-193670000D03*
X229960000Y-193670000D03*
X227420000Y-193670000D03*
X224880000Y-193670000D03*
X222340000Y-193670000D03*
X219800000Y-193670000D03*
X217260000Y-193670000D03*
X214720000Y-193670000D03*
X212180000Y-193670000D03*
%TD*%
D17*
%TO.C,U9*%
X125600000Y-186050000D03*
D14*
X128140000Y-186050000D03*
X130680000Y-186050000D03*
X133220000Y-186050000D03*
X135760000Y-186050000D03*
X138300000Y-186050000D03*
X140840000Y-186050000D03*
X143380000Y-186050000D03*
X145920000Y-186050000D03*
X148460000Y-186050000D03*
X151000000Y-186050000D03*
X153540000Y-186050000D03*
X153540000Y-193670000D03*
X151000000Y-193670000D03*
X148460000Y-193670000D03*
X145920000Y-193670000D03*
X143380000Y-193670000D03*
X140840000Y-193670000D03*
X138300000Y-193670000D03*
X135760000Y-193670000D03*
X133220000Y-193670000D03*
X130680000Y-193670000D03*
X128140000Y-193670000D03*
X125600000Y-193670000D03*
%TD*%
M02*
