%TF.GenerationSoftware,KiCad,Pcbnew,9.0.2*%
%TF.CreationDate,2025-06-22T15:51:31+10:00*%
%TF.ProjectId,mixer,6d697865-722e-46b6-9963-61645f706362,rev?*%
%TF.SameCoordinates,Original*%
%TF.FileFunction,Legend,Bot*%
%TF.FilePolarity,Positive*%
%FSLAX46Y46*%
G04 Gerber Fmt 4.6, Leading zero omitted, Abs format (unit mm)*
G04 Created by KiCad (PCBNEW 9.0.2) date 2025-06-22 15:51:31*
%MOMM*%
%LPD*%
G01*
G04 APERTURE LIST*
%ADD10C,0.150000*%
%ADD11C,0.120000*%
G04 APERTURE END LIST*
D10*
X100451904Y-190894819D02*
X100451904Y-191704342D01*
X100451904Y-191704342D02*
X100404285Y-191799580D01*
X100404285Y-191799580D02*
X100356666Y-191847200D01*
X100356666Y-191847200D02*
X100261428Y-191894819D01*
X100261428Y-191894819D02*
X100070952Y-191894819D01*
X100070952Y-191894819D02*
X99975714Y-191847200D01*
X99975714Y-191847200D02*
X99928095Y-191799580D01*
X99928095Y-191799580D02*
X99880476Y-191704342D01*
X99880476Y-191704342D02*
X99880476Y-190894819D01*
X98975714Y-191228152D02*
X98975714Y-191894819D01*
X99213809Y-190847200D02*
X99451904Y-191561485D01*
X99451904Y-191561485D02*
X98832857Y-191561485D01*
X100321904Y-133314819D02*
X100321904Y-134124342D01*
X100321904Y-134124342D02*
X100274285Y-134219580D01*
X100274285Y-134219580D02*
X100226666Y-134267200D01*
X100226666Y-134267200D02*
X100131428Y-134314819D01*
X100131428Y-134314819D02*
X99940952Y-134314819D01*
X99940952Y-134314819D02*
X99845714Y-134267200D01*
X99845714Y-134267200D02*
X99798095Y-134219580D01*
X99798095Y-134219580D02*
X99750476Y-134124342D01*
X99750476Y-134124342D02*
X99750476Y-133314819D01*
X98845714Y-133314819D02*
X99036190Y-133314819D01*
X99036190Y-133314819D02*
X99131428Y-133362438D01*
X99131428Y-133362438D02*
X99179047Y-133410057D01*
X99179047Y-133410057D02*
X99274285Y-133552914D01*
X99274285Y-133552914D02*
X99321904Y-133743390D01*
X99321904Y-133743390D02*
X99321904Y-134124342D01*
X99321904Y-134124342D02*
X99274285Y-134219580D01*
X99274285Y-134219580D02*
X99226666Y-134267200D01*
X99226666Y-134267200D02*
X99131428Y-134314819D01*
X99131428Y-134314819D02*
X98940952Y-134314819D01*
X98940952Y-134314819D02*
X98845714Y-134267200D01*
X98845714Y-134267200D02*
X98798095Y-134219580D01*
X98798095Y-134219580D02*
X98750476Y-134124342D01*
X98750476Y-134124342D02*
X98750476Y-133886247D01*
X98750476Y-133886247D02*
X98798095Y-133791009D01*
X98798095Y-133791009D02*
X98845714Y-133743390D01*
X98845714Y-133743390D02*
X98940952Y-133695771D01*
X98940952Y-133695771D02*
X99131428Y-133695771D01*
X99131428Y-133695771D02*
X99226666Y-133743390D01*
X99226666Y-133743390D02*
X99274285Y-133791009D01*
X99274285Y-133791009D02*
X99321904Y-133886247D01*
D11*
%TO.C,U4*%
X97040000Y-154760000D02*
X102340000Y-154760000D01*
X97040000Y-190440000D02*
X97040000Y-154760000D01*
X98690000Y-190440000D02*
X97040000Y-190440000D01*
X102340000Y-154760000D02*
X102340000Y-190440000D01*
X102340000Y-190440000D02*
X100690000Y-190440000D01*
X98690000Y-190440000D02*
G75*
G02*
X100690000Y-190440000I1000000J0D01*
G01*
%TO.C,U6*%
X96910000Y-102260000D02*
X102210000Y-102260000D01*
X96910000Y-132860000D02*
X96910000Y-102260000D01*
X98560000Y-132860000D02*
X96910000Y-132860000D01*
X102210000Y-102260000D02*
X102210000Y-132860000D01*
X102210000Y-132860000D02*
X100560000Y-132860000D01*
X98560000Y-132860000D02*
G75*
G02*
X100560000Y-132860000I1000000J0D01*
G01*
%TD*%
M02*
