%TF.GenerationSoftware,KiCad,Pcbnew,9.0.2*%
%TF.CreationDate,2025-06-22T15:51:31+10:00*%
%TF.ProjectId,mixer,6d697865-722e-46b6-9963-61645f706362,rev?*%
%TF.SameCoordinates,Original*%
%TF.FileFunction,Legend,Top*%
%TF.FilePolarity,Positive*%
%FSLAX46Y46*%
G04 Gerber Fmt 4.6, Leading zero omitted, Abs format (unit mm)*
G04 Created by KiCad (PCBNEW 9.0.2) date 2025-06-22 15:51:31*
%MOMM*%
%LPD*%
G01*
G04 APERTURE LIST*
%ADD10C,0.100000*%
%ADD11C,0.150000*%
%ADD12C,0.120000*%
G04 APERTURE END LIST*
D10*
X84666667Y-99159800D02*
X84809524Y-99207419D01*
X84809524Y-99207419D02*
X85047619Y-99207419D01*
X85047619Y-99207419D02*
X85142857Y-99159800D01*
X85142857Y-99159800D02*
X85190476Y-99112180D01*
X85190476Y-99112180D02*
X85238095Y-99016942D01*
X85238095Y-99016942D02*
X85238095Y-98921704D01*
X85238095Y-98921704D02*
X85190476Y-98826466D01*
X85190476Y-98826466D02*
X85142857Y-98778847D01*
X85142857Y-98778847D02*
X85047619Y-98731228D01*
X85047619Y-98731228D02*
X84857143Y-98683609D01*
X84857143Y-98683609D02*
X84761905Y-98635990D01*
X84761905Y-98635990D02*
X84714286Y-98588371D01*
X84714286Y-98588371D02*
X84666667Y-98493133D01*
X84666667Y-98493133D02*
X84666667Y-98397895D01*
X84666667Y-98397895D02*
X84714286Y-98302657D01*
X84714286Y-98302657D02*
X84761905Y-98255038D01*
X84761905Y-98255038D02*
X84857143Y-98207419D01*
X84857143Y-98207419D02*
X85095238Y-98207419D01*
X85095238Y-98207419D02*
X85238095Y-98255038D01*
X85571429Y-98207419D02*
X85809524Y-99207419D01*
X85809524Y-99207419D02*
X86000000Y-98493133D01*
X86000000Y-98493133D02*
X86190476Y-99207419D01*
X86190476Y-99207419D02*
X86428572Y-98207419D01*
X86857143Y-99207419D02*
X87047619Y-99207419D01*
X87047619Y-99207419D02*
X87142857Y-99159800D01*
X87142857Y-99159800D02*
X87190476Y-99112180D01*
X87190476Y-99112180D02*
X87285714Y-98969323D01*
X87285714Y-98969323D02*
X87333333Y-98778847D01*
X87333333Y-98778847D02*
X87333333Y-98397895D01*
X87333333Y-98397895D02*
X87285714Y-98302657D01*
X87285714Y-98302657D02*
X87238095Y-98255038D01*
X87238095Y-98255038D02*
X87142857Y-98207419D01*
X87142857Y-98207419D02*
X86952381Y-98207419D01*
X86952381Y-98207419D02*
X86857143Y-98255038D01*
X86857143Y-98255038D02*
X86809524Y-98302657D01*
X86809524Y-98302657D02*
X86761905Y-98397895D01*
X86761905Y-98397895D02*
X86761905Y-98635990D01*
X86761905Y-98635990D02*
X86809524Y-98731228D01*
X86809524Y-98731228D02*
X86857143Y-98778847D01*
X86857143Y-98778847D02*
X86952381Y-98826466D01*
X86952381Y-98826466D02*
X87142857Y-98826466D01*
X87142857Y-98826466D02*
X87238095Y-98778847D01*
X87238095Y-98778847D02*
X87285714Y-98731228D01*
X87285714Y-98731228D02*
X87333333Y-98635990D01*
D11*
X79361904Y-127722319D02*
X78885714Y-127722319D01*
X78885714Y-127722319D02*
X78885714Y-126722319D01*
X79838095Y-127722319D02*
X79742857Y-127674700D01*
X79742857Y-127674700D02*
X79695238Y-127627080D01*
X79695238Y-127627080D02*
X79647619Y-127531842D01*
X79647619Y-127531842D02*
X79647619Y-127246128D01*
X79647619Y-127246128D02*
X79695238Y-127150890D01*
X79695238Y-127150890D02*
X79742857Y-127103271D01*
X79742857Y-127103271D02*
X79838095Y-127055652D01*
X79838095Y-127055652D02*
X79980952Y-127055652D01*
X79980952Y-127055652D02*
X80076190Y-127103271D01*
X80076190Y-127103271D02*
X80123809Y-127150890D01*
X80123809Y-127150890D02*
X80171428Y-127246128D01*
X80171428Y-127246128D02*
X80171428Y-127531842D01*
X80171428Y-127531842D02*
X80123809Y-127627080D01*
X80123809Y-127627080D02*
X80076190Y-127674700D01*
X80076190Y-127674700D02*
X79980952Y-127722319D01*
X79980952Y-127722319D02*
X79838095Y-127722319D01*
X80504762Y-127055652D02*
X80695238Y-127722319D01*
X80695238Y-127722319D02*
X80885714Y-127246128D01*
X80885714Y-127246128D02*
X81076190Y-127722319D01*
X81076190Y-127722319D02*
X81266666Y-127055652D01*
X82028571Y-127674700D02*
X81933333Y-127722319D01*
X81933333Y-127722319D02*
X81742857Y-127722319D01*
X81742857Y-127722319D02*
X81647619Y-127674700D01*
X81647619Y-127674700D02*
X81600000Y-127579461D01*
X81600000Y-127579461D02*
X81600000Y-127198509D01*
X81600000Y-127198509D02*
X81647619Y-127103271D01*
X81647619Y-127103271D02*
X81742857Y-127055652D01*
X81742857Y-127055652D02*
X81933333Y-127055652D01*
X81933333Y-127055652D02*
X82028571Y-127103271D01*
X82028571Y-127103271D02*
X82076190Y-127198509D01*
X82076190Y-127198509D02*
X82076190Y-127293747D01*
X82076190Y-127293747D02*
X81600000Y-127388985D01*
X82504762Y-127722319D02*
X82504762Y-127055652D01*
X82504762Y-127246128D02*
X82552381Y-127150890D01*
X82552381Y-127150890D02*
X82600000Y-127103271D01*
X82600000Y-127103271D02*
X82695238Y-127055652D01*
X82695238Y-127055652D02*
X82790476Y-127055652D01*
X83600000Y-127722319D02*
X83123810Y-127722319D01*
X83123810Y-127722319D02*
X83123810Y-126722319D01*
X83933334Y-127198509D02*
X84266667Y-127198509D01*
X84409524Y-127722319D02*
X83933334Y-127722319D01*
X83933334Y-127722319D02*
X83933334Y-126722319D01*
X83933334Y-126722319D02*
X84409524Y-126722319D01*
X84838096Y-127722319D02*
X84838096Y-126722319D01*
X84838096Y-126722319D02*
X85076191Y-126722319D01*
X85076191Y-126722319D02*
X85219048Y-126769938D01*
X85219048Y-126769938D02*
X85314286Y-126865176D01*
X85314286Y-126865176D02*
X85361905Y-126960414D01*
X85361905Y-126960414D02*
X85409524Y-127150890D01*
X85409524Y-127150890D02*
X85409524Y-127293747D01*
X85409524Y-127293747D02*
X85361905Y-127484223D01*
X85361905Y-127484223D02*
X85314286Y-127579461D01*
X85314286Y-127579461D02*
X85219048Y-127674700D01*
X85219048Y-127674700D02*
X85076191Y-127722319D01*
X85076191Y-127722319D02*
X84838096Y-127722319D01*
X86361905Y-127722319D02*
X85790477Y-127722319D01*
X86076191Y-127722319D02*
X86076191Y-126722319D01*
X86076191Y-126722319D02*
X85980953Y-126865176D01*
X85980953Y-126865176D02*
X85885715Y-126960414D01*
X85885715Y-126960414D02*
X85790477Y-127008033D01*
D10*
X84309523Y-213257419D02*
X84214285Y-213209800D01*
X84214285Y-213209800D02*
X84166666Y-213162180D01*
X84166666Y-213162180D02*
X84119047Y-213066942D01*
X84119047Y-213066942D02*
X84119047Y-212781228D01*
X84119047Y-212781228D02*
X84166666Y-212685990D01*
X84166666Y-212685990D02*
X84214285Y-212638371D01*
X84214285Y-212638371D02*
X84309523Y-212590752D01*
X84309523Y-212590752D02*
X84452380Y-212590752D01*
X84452380Y-212590752D02*
X84547618Y-212638371D01*
X84547618Y-212638371D02*
X84595237Y-212685990D01*
X84595237Y-212685990D02*
X84642856Y-212781228D01*
X84642856Y-212781228D02*
X84642856Y-213066942D01*
X84642856Y-213066942D02*
X84595237Y-213162180D01*
X84595237Y-213162180D02*
X84547618Y-213209800D01*
X84547618Y-213209800D02*
X84452380Y-213257419D01*
X84452380Y-213257419D02*
X84309523Y-213257419D01*
X85214285Y-213257419D02*
X85119047Y-213209800D01*
X85119047Y-213209800D02*
X85071428Y-213114561D01*
X85071428Y-213114561D02*
X85071428Y-212257419D01*
X85976190Y-213209800D02*
X85880952Y-213257419D01*
X85880952Y-213257419D02*
X85690476Y-213257419D01*
X85690476Y-213257419D02*
X85595238Y-213209800D01*
X85595238Y-213209800D02*
X85547619Y-213114561D01*
X85547619Y-213114561D02*
X85547619Y-212733609D01*
X85547619Y-212733609D02*
X85595238Y-212638371D01*
X85595238Y-212638371D02*
X85690476Y-212590752D01*
X85690476Y-212590752D02*
X85880952Y-212590752D01*
X85880952Y-212590752D02*
X85976190Y-212638371D01*
X85976190Y-212638371D02*
X86023809Y-212733609D01*
X86023809Y-212733609D02*
X86023809Y-212828847D01*
X86023809Y-212828847D02*
X85547619Y-212924085D01*
X86880952Y-213257419D02*
X86880952Y-212257419D01*
X86880952Y-213209800D02*
X86785714Y-213257419D01*
X86785714Y-213257419D02*
X86595238Y-213257419D01*
X86595238Y-213257419D02*
X86500000Y-213209800D01*
X86500000Y-213209800D02*
X86452381Y-213162180D01*
X86452381Y-213162180D02*
X86404762Y-213066942D01*
X86404762Y-213066942D02*
X86404762Y-212781228D01*
X86404762Y-212781228D02*
X86452381Y-212685990D01*
X86452381Y-212685990D02*
X86500000Y-212638371D01*
X86500000Y-212638371D02*
X86595238Y-212590752D01*
X86595238Y-212590752D02*
X86785714Y-212590752D01*
X86785714Y-212590752D02*
X86880952Y-212638371D01*
X87880952Y-213257419D02*
X87309524Y-213257419D01*
X87595238Y-213257419D02*
X87595238Y-212257419D01*
X87595238Y-212257419D02*
X87500000Y-212400276D01*
X87500000Y-212400276D02*
X87404762Y-212495514D01*
X87404762Y-212495514D02*
X87309524Y-212543133D01*
X86411027Y-197409800D02*
X86482455Y-197433609D01*
X86482455Y-197433609D02*
X86601503Y-197433609D01*
X86601503Y-197433609D02*
X86649122Y-197409800D01*
X86649122Y-197409800D02*
X86672931Y-197385990D01*
X86672931Y-197385990D02*
X86696741Y-197338371D01*
X86696741Y-197338371D02*
X86696741Y-197290752D01*
X86696741Y-197290752D02*
X86672931Y-197243133D01*
X86672931Y-197243133D02*
X86649122Y-197219323D01*
X86649122Y-197219323D02*
X86601503Y-197195514D01*
X86601503Y-197195514D02*
X86506265Y-197171704D01*
X86506265Y-197171704D02*
X86458646Y-197147895D01*
X86458646Y-197147895D02*
X86434836Y-197124085D01*
X86434836Y-197124085D02*
X86411027Y-197076466D01*
X86411027Y-197076466D02*
X86411027Y-197028847D01*
X86411027Y-197028847D02*
X86434836Y-196981228D01*
X86434836Y-196981228D02*
X86458646Y-196957419D01*
X86458646Y-196957419D02*
X86506265Y-196933609D01*
X86506265Y-196933609D02*
X86625312Y-196933609D01*
X86625312Y-196933609D02*
X86696741Y-196957419D01*
X87196740Y-197385990D02*
X87172931Y-197409800D01*
X87172931Y-197409800D02*
X87101502Y-197433609D01*
X87101502Y-197433609D02*
X87053883Y-197433609D01*
X87053883Y-197433609D02*
X86982455Y-197409800D01*
X86982455Y-197409800D02*
X86934836Y-197362180D01*
X86934836Y-197362180D02*
X86911026Y-197314561D01*
X86911026Y-197314561D02*
X86887217Y-197219323D01*
X86887217Y-197219323D02*
X86887217Y-197147895D01*
X86887217Y-197147895D02*
X86911026Y-197052657D01*
X86911026Y-197052657D02*
X86934836Y-197005038D01*
X86934836Y-197005038D02*
X86982455Y-196957419D01*
X86982455Y-196957419D02*
X87053883Y-196933609D01*
X87053883Y-196933609D02*
X87101502Y-196933609D01*
X87101502Y-196933609D02*
X87172931Y-196957419D01*
X87172931Y-196957419D02*
X87196740Y-196981228D01*
X87649121Y-197433609D02*
X87411026Y-197433609D01*
X87411026Y-197433609D02*
X87411026Y-196933609D01*
X82696741Y-196957419D02*
X82649122Y-196933609D01*
X82649122Y-196933609D02*
X82577693Y-196933609D01*
X82577693Y-196933609D02*
X82506265Y-196957419D01*
X82506265Y-196957419D02*
X82458646Y-197005038D01*
X82458646Y-197005038D02*
X82434836Y-197052657D01*
X82434836Y-197052657D02*
X82411027Y-197147895D01*
X82411027Y-197147895D02*
X82411027Y-197219323D01*
X82411027Y-197219323D02*
X82434836Y-197314561D01*
X82434836Y-197314561D02*
X82458646Y-197362180D01*
X82458646Y-197362180D02*
X82506265Y-197409800D01*
X82506265Y-197409800D02*
X82577693Y-197433609D01*
X82577693Y-197433609D02*
X82625312Y-197433609D01*
X82625312Y-197433609D02*
X82696741Y-197409800D01*
X82696741Y-197409800D02*
X82720550Y-197385990D01*
X82720550Y-197385990D02*
X82720550Y-197219323D01*
X82720550Y-197219323D02*
X82625312Y-197219323D01*
X82934836Y-197433609D02*
X82934836Y-196933609D01*
X82934836Y-196933609D02*
X83220550Y-197433609D01*
X83220550Y-197433609D02*
X83220550Y-196933609D01*
X83458646Y-197433609D02*
X83458646Y-196933609D01*
X83458646Y-196933609D02*
X83577694Y-196933609D01*
X83577694Y-196933609D02*
X83649122Y-196957419D01*
X83649122Y-196957419D02*
X83696741Y-197005038D01*
X83696741Y-197005038D02*
X83720551Y-197052657D01*
X83720551Y-197052657D02*
X83744360Y-197147895D01*
X83744360Y-197147895D02*
X83744360Y-197219323D01*
X83744360Y-197219323D02*
X83720551Y-197314561D01*
X83720551Y-197314561D02*
X83696741Y-197362180D01*
X83696741Y-197362180D02*
X83649122Y-197409800D01*
X83649122Y-197409800D02*
X83577694Y-197433609D01*
X83577694Y-197433609D02*
X83458646Y-197433609D01*
X88411027Y-197409800D02*
X88482455Y-197433609D01*
X88482455Y-197433609D02*
X88601503Y-197433609D01*
X88601503Y-197433609D02*
X88649122Y-197409800D01*
X88649122Y-197409800D02*
X88672931Y-197385990D01*
X88672931Y-197385990D02*
X88696741Y-197338371D01*
X88696741Y-197338371D02*
X88696741Y-197290752D01*
X88696741Y-197290752D02*
X88672931Y-197243133D01*
X88672931Y-197243133D02*
X88649122Y-197219323D01*
X88649122Y-197219323D02*
X88601503Y-197195514D01*
X88601503Y-197195514D02*
X88506265Y-197171704D01*
X88506265Y-197171704D02*
X88458646Y-197147895D01*
X88458646Y-197147895D02*
X88434836Y-197124085D01*
X88434836Y-197124085D02*
X88411027Y-197076466D01*
X88411027Y-197076466D02*
X88411027Y-197028847D01*
X88411027Y-197028847D02*
X88434836Y-196981228D01*
X88434836Y-196981228D02*
X88458646Y-196957419D01*
X88458646Y-196957419D02*
X88506265Y-196933609D01*
X88506265Y-196933609D02*
X88625312Y-196933609D01*
X88625312Y-196933609D02*
X88696741Y-196957419D01*
X89196740Y-197385990D02*
X89172931Y-197409800D01*
X89172931Y-197409800D02*
X89101502Y-197433609D01*
X89101502Y-197433609D02*
X89053883Y-197433609D01*
X89053883Y-197433609D02*
X88982455Y-197409800D01*
X88982455Y-197409800D02*
X88934836Y-197362180D01*
X88934836Y-197362180D02*
X88911026Y-197314561D01*
X88911026Y-197314561D02*
X88887217Y-197219323D01*
X88887217Y-197219323D02*
X88887217Y-197147895D01*
X88887217Y-197147895D02*
X88911026Y-197052657D01*
X88911026Y-197052657D02*
X88934836Y-197005038D01*
X88934836Y-197005038D02*
X88982455Y-196957419D01*
X88982455Y-196957419D02*
X89053883Y-196933609D01*
X89053883Y-196933609D02*
X89101502Y-196933609D01*
X89101502Y-196933609D02*
X89172931Y-196957419D01*
X89172931Y-196957419D02*
X89196740Y-196981228D01*
X89387217Y-197290752D02*
X89625312Y-197290752D01*
X89339598Y-197433609D02*
X89506264Y-196933609D01*
X89506264Y-196933609D02*
X89672931Y-197433609D01*
X84363408Y-196933609D02*
X84530074Y-197433609D01*
X84530074Y-197433609D02*
X84696741Y-196933609D01*
X85149121Y-197385990D02*
X85125312Y-197409800D01*
X85125312Y-197409800D02*
X85053883Y-197433609D01*
X85053883Y-197433609D02*
X85006264Y-197433609D01*
X85006264Y-197433609D02*
X84934836Y-197409800D01*
X84934836Y-197409800D02*
X84887217Y-197362180D01*
X84887217Y-197362180D02*
X84863407Y-197314561D01*
X84863407Y-197314561D02*
X84839598Y-197219323D01*
X84839598Y-197219323D02*
X84839598Y-197147895D01*
X84839598Y-197147895D02*
X84863407Y-197052657D01*
X84863407Y-197052657D02*
X84887217Y-197005038D01*
X84887217Y-197005038D02*
X84934836Y-196957419D01*
X84934836Y-196957419D02*
X85006264Y-196933609D01*
X85006264Y-196933609D02*
X85053883Y-196933609D01*
X85053883Y-196933609D02*
X85125312Y-196957419D01*
X85125312Y-196957419D02*
X85149121Y-196981228D01*
X85649121Y-197385990D02*
X85625312Y-197409800D01*
X85625312Y-197409800D02*
X85553883Y-197433609D01*
X85553883Y-197433609D02*
X85506264Y-197433609D01*
X85506264Y-197433609D02*
X85434836Y-197409800D01*
X85434836Y-197409800D02*
X85387217Y-197362180D01*
X85387217Y-197362180D02*
X85363407Y-197314561D01*
X85363407Y-197314561D02*
X85339598Y-197219323D01*
X85339598Y-197219323D02*
X85339598Y-197147895D01*
X85339598Y-197147895D02*
X85363407Y-197052657D01*
X85363407Y-197052657D02*
X85387217Y-197005038D01*
X85387217Y-197005038D02*
X85434836Y-196957419D01*
X85434836Y-196957419D02*
X85506264Y-196933609D01*
X85506264Y-196933609D02*
X85553883Y-196933609D01*
X85553883Y-196933609D02*
X85625312Y-196957419D01*
X85625312Y-196957419D02*
X85649121Y-196981228D01*
D11*
X78838095Y-100684819D02*
X78838095Y-101494342D01*
X78838095Y-101494342D02*
X78885714Y-101589580D01*
X78885714Y-101589580D02*
X78933333Y-101637200D01*
X78933333Y-101637200D02*
X79028571Y-101684819D01*
X79028571Y-101684819D02*
X79219047Y-101684819D01*
X79219047Y-101684819D02*
X79314285Y-101637200D01*
X79314285Y-101637200D02*
X79361904Y-101589580D01*
X79361904Y-101589580D02*
X79409523Y-101494342D01*
X79409523Y-101494342D02*
X79409523Y-100684819D01*
X79885714Y-101018152D02*
X79885714Y-102018152D01*
X79885714Y-101065771D02*
X79980952Y-101018152D01*
X79980952Y-101018152D02*
X80171428Y-101018152D01*
X80171428Y-101018152D02*
X80266666Y-101065771D01*
X80266666Y-101065771D02*
X80314285Y-101113390D01*
X80314285Y-101113390D02*
X80361904Y-101208628D01*
X80361904Y-101208628D02*
X80361904Y-101494342D01*
X80361904Y-101494342D02*
X80314285Y-101589580D01*
X80314285Y-101589580D02*
X80266666Y-101637200D01*
X80266666Y-101637200D02*
X80171428Y-101684819D01*
X80171428Y-101684819D02*
X79980952Y-101684819D01*
X79980952Y-101684819D02*
X79885714Y-101637200D01*
X80790476Y-101018152D02*
X80790476Y-102018152D01*
X80790476Y-101065771D02*
X80885714Y-101018152D01*
X80885714Y-101018152D02*
X81076190Y-101018152D01*
X81076190Y-101018152D02*
X81171428Y-101065771D01*
X81171428Y-101065771D02*
X81219047Y-101113390D01*
X81219047Y-101113390D02*
X81266666Y-101208628D01*
X81266666Y-101208628D02*
X81266666Y-101494342D01*
X81266666Y-101494342D02*
X81219047Y-101589580D01*
X81219047Y-101589580D02*
X81171428Y-101637200D01*
X81171428Y-101637200D02*
X81076190Y-101684819D01*
X81076190Y-101684819D02*
X80885714Y-101684819D01*
X80885714Y-101684819D02*
X80790476Y-101637200D01*
X82076190Y-101637200D02*
X81980952Y-101684819D01*
X81980952Y-101684819D02*
X81790476Y-101684819D01*
X81790476Y-101684819D02*
X81695238Y-101637200D01*
X81695238Y-101637200D02*
X81647619Y-101541961D01*
X81647619Y-101541961D02*
X81647619Y-101161009D01*
X81647619Y-101161009D02*
X81695238Y-101065771D01*
X81695238Y-101065771D02*
X81790476Y-101018152D01*
X81790476Y-101018152D02*
X81980952Y-101018152D01*
X81980952Y-101018152D02*
X82076190Y-101065771D01*
X82076190Y-101065771D02*
X82123809Y-101161009D01*
X82123809Y-101161009D02*
X82123809Y-101256247D01*
X82123809Y-101256247D02*
X81647619Y-101351485D01*
X82552381Y-101684819D02*
X82552381Y-101018152D01*
X82552381Y-101208628D02*
X82600000Y-101113390D01*
X82600000Y-101113390D02*
X82647619Y-101065771D01*
X82647619Y-101065771D02*
X82742857Y-101018152D01*
X82742857Y-101018152D02*
X82838095Y-101018152D01*
X83647619Y-101684819D02*
X83171429Y-101684819D01*
X83171429Y-101684819D02*
X83171429Y-100684819D01*
X83980953Y-101161009D02*
X84314286Y-101161009D01*
X84457143Y-101684819D02*
X83980953Y-101684819D01*
X83980953Y-101684819D02*
X83980953Y-100684819D01*
X83980953Y-100684819D02*
X84457143Y-100684819D01*
X84885715Y-101684819D02*
X84885715Y-100684819D01*
X84885715Y-100684819D02*
X85123810Y-100684819D01*
X85123810Y-100684819D02*
X85266667Y-100732438D01*
X85266667Y-100732438D02*
X85361905Y-100827676D01*
X85361905Y-100827676D02*
X85409524Y-100922914D01*
X85409524Y-100922914D02*
X85457143Y-101113390D01*
X85457143Y-101113390D02*
X85457143Y-101256247D01*
X85457143Y-101256247D02*
X85409524Y-101446723D01*
X85409524Y-101446723D02*
X85361905Y-101541961D01*
X85361905Y-101541961D02*
X85266667Y-101637200D01*
X85266667Y-101637200D02*
X85123810Y-101684819D01*
X85123810Y-101684819D02*
X84885715Y-101684819D01*
X86409524Y-101684819D02*
X85838096Y-101684819D01*
X86123810Y-101684819D02*
X86123810Y-100684819D01*
X86123810Y-100684819D02*
X86028572Y-100827676D01*
X86028572Y-100827676D02*
X85933334Y-100922914D01*
X85933334Y-100922914D02*
X85838096Y-100970533D01*
D10*
X110696741Y-196957419D02*
X110649122Y-196933609D01*
X110649122Y-196933609D02*
X110577693Y-196933609D01*
X110577693Y-196933609D02*
X110506265Y-196957419D01*
X110506265Y-196957419D02*
X110458646Y-197005038D01*
X110458646Y-197005038D02*
X110434836Y-197052657D01*
X110434836Y-197052657D02*
X110411027Y-197147895D01*
X110411027Y-197147895D02*
X110411027Y-197219323D01*
X110411027Y-197219323D02*
X110434836Y-197314561D01*
X110434836Y-197314561D02*
X110458646Y-197362180D01*
X110458646Y-197362180D02*
X110506265Y-197409800D01*
X110506265Y-197409800D02*
X110577693Y-197433609D01*
X110577693Y-197433609D02*
X110625312Y-197433609D01*
X110625312Y-197433609D02*
X110696741Y-197409800D01*
X110696741Y-197409800D02*
X110720550Y-197385990D01*
X110720550Y-197385990D02*
X110720550Y-197219323D01*
X110720550Y-197219323D02*
X110625312Y-197219323D01*
X110934836Y-197433609D02*
X110934836Y-196933609D01*
X110934836Y-196933609D02*
X111220550Y-197433609D01*
X111220550Y-197433609D02*
X111220550Y-196933609D01*
X111458646Y-197433609D02*
X111458646Y-196933609D01*
X111458646Y-196933609D02*
X111577694Y-196933609D01*
X111577694Y-196933609D02*
X111649122Y-196957419D01*
X111649122Y-196957419D02*
X111696741Y-197005038D01*
X111696741Y-197005038D02*
X111720551Y-197052657D01*
X111720551Y-197052657D02*
X111744360Y-197147895D01*
X111744360Y-197147895D02*
X111744360Y-197219323D01*
X111744360Y-197219323D02*
X111720551Y-197314561D01*
X111720551Y-197314561D02*
X111696741Y-197362180D01*
X111696741Y-197362180D02*
X111649122Y-197409800D01*
X111649122Y-197409800D02*
X111577694Y-197433609D01*
X111577694Y-197433609D02*
X111458646Y-197433609D01*
X114411027Y-197409800D02*
X114482455Y-197433609D01*
X114482455Y-197433609D02*
X114601503Y-197433609D01*
X114601503Y-197433609D02*
X114649122Y-197409800D01*
X114649122Y-197409800D02*
X114672931Y-197385990D01*
X114672931Y-197385990D02*
X114696741Y-197338371D01*
X114696741Y-197338371D02*
X114696741Y-197290752D01*
X114696741Y-197290752D02*
X114672931Y-197243133D01*
X114672931Y-197243133D02*
X114649122Y-197219323D01*
X114649122Y-197219323D02*
X114601503Y-197195514D01*
X114601503Y-197195514D02*
X114506265Y-197171704D01*
X114506265Y-197171704D02*
X114458646Y-197147895D01*
X114458646Y-197147895D02*
X114434836Y-197124085D01*
X114434836Y-197124085D02*
X114411027Y-197076466D01*
X114411027Y-197076466D02*
X114411027Y-197028847D01*
X114411027Y-197028847D02*
X114434836Y-196981228D01*
X114434836Y-196981228D02*
X114458646Y-196957419D01*
X114458646Y-196957419D02*
X114506265Y-196933609D01*
X114506265Y-196933609D02*
X114625312Y-196933609D01*
X114625312Y-196933609D02*
X114696741Y-196957419D01*
X115196740Y-197385990D02*
X115172931Y-197409800D01*
X115172931Y-197409800D02*
X115101502Y-197433609D01*
X115101502Y-197433609D02*
X115053883Y-197433609D01*
X115053883Y-197433609D02*
X114982455Y-197409800D01*
X114982455Y-197409800D02*
X114934836Y-197362180D01*
X114934836Y-197362180D02*
X114911026Y-197314561D01*
X114911026Y-197314561D02*
X114887217Y-197219323D01*
X114887217Y-197219323D02*
X114887217Y-197147895D01*
X114887217Y-197147895D02*
X114911026Y-197052657D01*
X114911026Y-197052657D02*
X114934836Y-197005038D01*
X114934836Y-197005038D02*
X114982455Y-196957419D01*
X114982455Y-196957419D02*
X115053883Y-196933609D01*
X115053883Y-196933609D02*
X115101502Y-196933609D01*
X115101502Y-196933609D02*
X115172931Y-196957419D01*
X115172931Y-196957419D02*
X115196740Y-196981228D01*
X115649121Y-197433609D02*
X115411026Y-197433609D01*
X115411026Y-197433609D02*
X115411026Y-196933609D01*
X112363408Y-196933609D02*
X112530074Y-197433609D01*
X112530074Y-197433609D02*
X112696741Y-196933609D01*
X113149121Y-197385990D02*
X113125312Y-197409800D01*
X113125312Y-197409800D02*
X113053883Y-197433609D01*
X113053883Y-197433609D02*
X113006264Y-197433609D01*
X113006264Y-197433609D02*
X112934836Y-197409800D01*
X112934836Y-197409800D02*
X112887217Y-197362180D01*
X112887217Y-197362180D02*
X112863407Y-197314561D01*
X112863407Y-197314561D02*
X112839598Y-197219323D01*
X112839598Y-197219323D02*
X112839598Y-197147895D01*
X112839598Y-197147895D02*
X112863407Y-197052657D01*
X112863407Y-197052657D02*
X112887217Y-197005038D01*
X112887217Y-197005038D02*
X112934836Y-196957419D01*
X112934836Y-196957419D02*
X113006264Y-196933609D01*
X113006264Y-196933609D02*
X113053883Y-196933609D01*
X113053883Y-196933609D02*
X113125312Y-196957419D01*
X113125312Y-196957419D02*
X113149121Y-196981228D01*
X113649121Y-197385990D02*
X113625312Y-197409800D01*
X113625312Y-197409800D02*
X113553883Y-197433609D01*
X113553883Y-197433609D02*
X113506264Y-197433609D01*
X113506264Y-197433609D02*
X113434836Y-197409800D01*
X113434836Y-197409800D02*
X113387217Y-197362180D01*
X113387217Y-197362180D02*
X113363407Y-197314561D01*
X113363407Y-197314561D02*
X113339598Y-197219323D01*
X113339598Y-197219323D02*
X113339598Y-197147895D01*
X113339598Y-197147895D02*
X113363407Y-197052657D01*
X113363407Y-197052657D02*
X113387217Y-197005038D01*
X113387217Y-197005038D02*
X113434836Y-196957419D01*
X113434836Y-196957419D02*
X113506264Y-196933609D01*
X113506264Y-196933609D02*
X113553883Y-196933609D01*
X113553883Y-196933609D02*
X113625312Y-196957419D01*
X113625312Y-196957419D02*
X113649121Y-196981228D01*
X116411027Y-197409800D02*
X116482455Y-197433609D01*
X116482455Y-197433609D02*
X116601503Y-197433609D01*
X116601503Y-197433609D02*
X116649122Y-197409800D01*
X116649122Y-197409800D02*
X116672931Y-197385990D01*
X116672931Y-197385990D02*
X116696741Y-197338371D01*
X116696741Y-197338371D02*
X116696741Y-197290752D01*
X116696741Y-197290752D02*
X116672931Y-197243133D01*
X116672931Y-197243133D02*
X116649122Y-197219323D01*
X116649122Y-197219323D02*
X116601503Y-197195514D01*
X116601503Y-197195514D02*
X116506265Y-197171704D01*
X116506265Y-197171704D02*
X116458646Y-197147895D01*
X116458646Y-197147895D02*
X116434836Y-197124085D01*
X116434836Y-197124085D02*
X116411027Y-197076466D01*
X116411027Y-197076466D02*
X116411027Y-197028847D01*
X116411027Y-197028847D02*
X116434836Y-196981228D01*
X116434836Y-196981228D02*
X116458646Y-196957419D01*
X116458646Y-196957419D02*
X116506265Y-196933609D01*
X116506265Y-196933609D02*
X116625312Y-196933609D01*
X116625312Y-196933609D02*
X116696741Y-196957419D01*
X117196740Y-197385990D02*
X117172931Y-197409800D01*
X117172931Y-197409800D02*
X117101502Y-197433609D01*
X117101502Y-197433609D02*
X117053883Y-197433609D01*
X117053883Y-197433609D02*
X116982455Y-197409800D01*
X116982455Y-197409800D02*
X116934836Y-197362180D01*
X116934836Y-197362180D02*
X116911026Y-197314561D01*
X116911026Y-197314561D02*
X116887217Y-197219323D01*
X116887217Y-197219323D02*
X116887217Y-197147895D01*
X116887217Y-197147895D02*
X116911026Y-197052657D01*
X116911026Y-197052657D02*
X116934836Y-197005038D01*
X116934836Y-197005038D02*
X116982455Y-196957419D01*
X116982455Y-196957419D02*
X117053883Y-196933609D01*
X117053883Y-196933609D02*
X117101502Y-196933609D01*
X117101502Y-196933609D02*
X117172931Y-196957419D01*
X117172931Y-196957419D02*
X117196740Y-196981228D01*
X117387217Y-197290752D02*
X117625312Y-197290752D01*
X117339598Y-197433609D02*
X117506264Y-196933609D01*
X117506264Y-196933609D02*
X117672931Y-197433609D01*
X83928571Y-191957419D02*
X83928571Y-191290752D01*
X83928571Y-191385990D02*
X83976190Y-191338371D01*
X83976190Y-191338371D02*
X84071428Y-191290752D01*
X84071428Y-191290752D02*
X84214285Y-191290752D01*
X84214285Y-191290752D02*
X84309523Y-191338371D01*
X84309523Y-191338371D02*
X84357142Y-191433609D01*
X84357142Y-191433609D02*
X84357142Y-191957419D01*
X84357142Y-191433609D02*
X84404761Y-191338371D01*
X84404761Y-191338371D02*
X84499999Y-191290752D01*
X84499999Y-191290752D02*
X84642856Y-191290752D01*
X84642856Y-191290752D02*
X84738095Y-191338371D01*
X84738095Y-191338371D02*
X84785714Y-191433609D01*
X84785714Y-191433609D02*
X84785714Y-191957419D01*
X85690475Y-191290752D02*
X85690475Y-191957419D01*
X85261904Y-191290752D02*
X85261904Y-191814561D01*
X85261904Y-191814561D02*
X85309523Y-191909800D01*
X85309523Y-191909800D02*
X85404761Y-191957419D01*
X85404761Y-191957419D02*
X85547618Y-191957419D01*
X85547618Y-191957419D02*
X85642856Y-191909800D01*
X85642856Y-191909800D02*
X85690475Y-191862180D01*
X86023809Y-191290752D02*
X86404761Y-191290752D01*
X86166666Y-190957419D02*
X86166666Y-191814561D01*
X86166666Y-191814561D02*
X86214285Y-191909800D01*
X86214285Y-191909800D02*
X86309523Y-191957419D01*
X86309523Y-191957419D02*
X86404761Y-191957419D01*
X87119047Y-191909800D02*
X87023809Y-191957419D01*
X87023809Y-191957419D02*
X86833333Y-191957419D01*
X86833333Y-191957419D02*
X86738095Y-191909800D01*
X86738095Y-191909800D02*
X86690476Y-191814561D01*
X86690476Y-191814561D02*
X86690476Y-191433609D01*
X86690476Y-191433609D02*
X86738095Y-191338371D01*
X86738095Y-191338371D02*
X86833333Y-191290752D01*
X86833333Y-191290752D02*
X87023809Y-191290752D01*
X87023809Y-191290752D02*
X87119047Y-191338371D01*
X87119047Y-191338371D02*
X87166666Y-191433609D01*
X87166666Y-191433609D02*
X87166666Y-191528847D01*
X87166666Y-191528847D02*
X86690476Y-191624085D01*
X88119047Y-191957419D02*
X87547619Y-191957419D01*
X87833333Y-191957419D02*
X87833333Y-190957419D01*
X87833333Y-190957419D02*
X87738095Y-191100276D01*
X87738095Y-191100276D02*
X87642857Y-191195514D01*
X87642857Y-191195514D02*
X87547619Y-191243133D01*
D11*
X107111904Y-127804819D02*
X106635714Y-127804819D01*
X106635714Y-127804819D02*
X106635714Y-126804819D01*
X107588095Y-127804819D02*
X107492857Y-127757200D01*
X107492857Y-127757200D02*
X107445238Y-127709580D01*
X107445238Y-127709580D02*
X107397619Y-127614342D01*
X107397619Y-127614342D02*
X107397619Y-127328628D01*
X107397619Y-127328628D02*
X107445238Y-127233390D01*
X107445238Y-127233390D02*
X107492857Y-127185771D01*
X107492857Y-127185771D02*
X107588095Y-127138152D01*
X107588095Y-127138152D02*
X107730952Y-127138152D01*
X107730952Y-127138152D02*
X107826190Y-127185771D01*
X107826190Y-127185771D02*
X107873809Y-127233390D01*
X107873809Y-127233390D02*
X107921428Y-127328628D01*
X107921428Y-127328628D02*
X107921428Y-127614342D01*
X107921428Y-127614342D02*
X107873809Y-127709580D01*
X107873809Y-127709580D02*
X107826190Y-127757200D01*
X107826190Y-127757200D02*
X107730952Y-127804819D01*
X107730952Y-127804819D02*
X107588095Y-127804819D01*
X108254762Y-127138152D02*
X108445238Y-127804819D01*
X108445238Y-127804819D02*
X108635714Y-127328628D01*
X108635714Y-127328628D02*
X108826190Y-127804819D01*
X108826190Y-127804819D02*
X109016666Y-127138152D01*
X109778571Y-127757200D02*
X109683333Y-127804819D01*
X109683333Y-127804819D02*
X109492857Y-127804819D01*
X109492857Y-127804819D02*
X109397619Y-127757200D01*
X109397619Y-127757200D02*
X109350000Y-127661961D01*
X109350000Y-127661961D02*
X109350000Y-127281009D01*
X109350000Y-127281009D02*
X109397619Y-127185771D01*
X109397619Y-127185771D02*
X109492857Y-127138152D01*
X109492857Y-127138152D02*
X109683333Y-127138152D01*
X109683333Y-127138152D02*
X109778571Y-127185771D01*
X109778571Y-127185771D02*
X109826190Y-127281009D01*
X109826190Y-127281009D02*
X109826190Y-127376247D01*
X109826190Y-127376247D02*
X109350000Y-127471485D01*
X110254762Y-127804819D02*
X110254762Y-127138152D01*
X110254762Y-127328628D02*
X110302381Y-127233390D01*
X110302381Y-127233390D02*
X110350000Y-127185771D01*
X110350000Y-127185771D02*
X110445238Y-127138152D01*
X110445238Y-127138152D02*
X110540476Y-127138152D01*
X111350000Y-127804819D02*
X110873810Y-127804819D01*
X110873810Y-127804819D02*
X110873810Y-126804819D01*
X111683334Y-127281009D02*
X112016667Y-127281009D01*
X112159524Y-127804819D02*
X111683334Y-127804819D01*
X111683334Y-127804819D02*
X111683334Y-126804819D01*
X111683334Y-126804819D02*
X112159524Y-126804819D01*
X112588096Y-127804819D02*
X112588096Y-126804819D01*
X112588096Y-126804819D02*
X112826191Y-126804819D01*
X112826191Y-126804819D02*
X112969048Y-126852438D01*
X112969048Y-126852438D02*
X113064286Y-126947676D01*
X113064286Y-126947676D02*
X113111905Y-127042914D01*
X113111905Y-127042914D02*
X113159524Y-127233390D01*
X113159524Y-127233390D02*
X113159524Y-127376247D01*
X113159524Y-127376247D02*
X113111905Y-127566723D01*
X113111905Y-127566723D02*
X113064286Y-127661961D01*
X113064286Y-127661961D02*
X112969048Y-127757200D01*
X112969048Y-127757200D02*
X112826191Y-127804819D01*
X112826191Y-127804819D02*
X112588096Y-127804819D01*
X113540477Y-126900057D02*
X113588096Y-126852438D01*
X113588096Y-126852438D02*
X113683334Y-126804819D01*
X113683334Y-126804819D02*
X113921429Y-126804819D01*
X113921429Y-126804819D02*
X114016667Y-126852438D01*
X114016667Y-126852438D02*
X114064286Y-126900057D01*
X114064286Y-126900057D02*
X114111905Y-126995295D01*
X114111905Y-126995295D02*
X114111905Y-127090533D01*
X114111905Y-127090533D02*
X114064286Y-127233390D01*
X114064286Y-127233390D02*
X113492858Y-127804819D01*
X113492858Y-127804819D02*
X114111905Y-127804819D01*
D10*
X111940476Y-98909800D02*
X112083333Y-98957419D01*
X112083333Y-98957419D02*
X112321428Y-98957419D01*
X112321428Y-98957419D02*
X112416666Y-98909800D01*
X112416666Y-98909800D02*
X112464285Y-98862180D01*
X112464285Y-98862180D02*
X112511904Y-98766942D01*
X112511904Y-98766942D02*
X112511904Y-98671704D01*
X112511904Y-98671704D02*
X112464285Y-98576466D01*
X112464285Y-98576466D02*
X112416666Y-98528847D01*
X112416666Y-98528847D02*
X112321428Y-98481228D01*
X112321428Y-98481228D02*
X112130952Y-98433609D01*
X112130952Y-98433609D02*
X112035714Y-98385990D01*
X112035714Y-98385990D02*
X111988095Y-98338371D01*
X111988095Y-98338371D02*
X111940476Y-98243133D01*
X111940476Y-98243133D02*
X111940476Y-98147895D01*
X111940476Y-98147895D02*
X111988095Y-98052657D01*
X111988095Y-98052657D02*
X112035714Y-98005038D01*
X112035714Y-98005038D02*
X112130952Y-97957419D01*
X112130952Y-97957419D02*
X112369047Y-97957419D01*
X112369047Y-97957419D02*
X112511904Y-98005038D01*
X112845238Y-97957419D02*
X113083333Y-98957419D01*
X113083333Y-98957419D02*
X113273809Y-98243133D01*
X113273809Y-98243133D02*
X113464285Y-98957419D01*
X113464285Y-98957419D02*
X113702381Y-97957419D01*
X114607142Y-98957419D02*
X114035714Y-98957419D01*
X114321428Y-98957419D02*
X114321428Y-97957419D01*
X114321428Y-97957419D02*
X114226190Y-98100276D01*
X114226190Y-98100276D02*
X114130952Y-98195514D01*
X114130952Y-98195514D02*
X114035714Y-98243133D01*
X115226190Y-97957419D02*
X115321428Y-97957419D01*
X115321428Y-97957419D02*
X115416666Y-98005038D01*
X115416666Y-98005038D02*
X115464285Y-98052657D01*
X115464285Y-98052657D02*
X115511904Y-98147895D01*
X115511904Y-98147895D02*
X115559523Y-98338371D01*
X115559523Y-98338371D02*
X115559523Y-98576466D01*
X115559523Y-98576466D02*
X115511904Y-98766942D01*
X115511904Y-98766942D02*
X115464285Y-98862180D01*
X115464285Y-98862180D02*
X115416666Y-98909800D01*
X115416666Y-98909800D02*
X115321428Y-98957419D01*
X115321428Y-98957419D02*
X115226190Y-98957419D01*
X115226190Y-98957419D02*
X115130952Y-98909800D01*
X115130952Y-98909800D02*
X115083333Y-98862180D01*
X115083333Y-98862180D02*
X115035714Y-98766942D01*
X115035714Y-98766942D02*
X114988095Y-98576466D01*
X114988095Y-98576466D02*
X114988095Y-98338371D01*
X114988095Y-98338371D02*
X115035714Y-98147895D01*
X115035714Y-98147895D02*
X115083333Y-98052657D01*
X115083333Y-98052657D02*
X115130952Y-98005038D01*
X115130952Y-98005038D02*
X115226190Y-97957419D01*
X111892857Y-170159800D02*
X111988095Y-170207419D01*
X111988095Y-170207419D02*
X112178571Y-170207419D01*
X112178571Y-170207419D02*
X112273809Y-170159800D01*
X112273809Y-170159800D02*
X112321428Y-170064561D01*
X112321428Y-170064561D02*
X112321428Y-170016942D01*
X112321428Y-170016942D02*
X112273809Y-169921704D01*
X112273809Y-169921704D02*
X112178571Y-169874085D01*
X112178571Y-169874085D02*
X112035714Y-169874085D01*
X112035714Y-169874085D02*
X111940476Y-169826466D01*
X111940476Y-169826466D02*
X111892857Y-169731228D01*
X111892857Y-169731228D02*
X111892857Y-169683609D01*
X111892857Y-169683609D02*
X111940476Y-169588371D01*
X111940476Y-169588371D02*
X112035714Y-169540752D01*
X112035714Y-169540752D02*
X112178571Y-169540752D01*
X112178571Y-169540752D02*
X112273809Y-169588371D01*
X112892857Y-170207419D02*
X112797619Y-170159800D01*
X112797619Y-170159800D02*
X112750000Y-170112180D01*
X112750000Y-170112180D02*
X112702381Y-170016942D01*
X112702381Y-170016942D02*
X112702381Y-169731228D01*
X112702381Y-169731228D02*
X112750000Y-169635990D01*
X112750000Y-169635990D02*
X112797619Y-169588371D01*
X112797619Y-169588371D02*
X112892857Y-169540752D01*
X112892857Y-169540752D02*
X113035714Y-169540752D01*
X113035714Y-169540752D02*
X113130952Y-169588371D01*
X113130952Y-169588371D02*
X113178571Y-169635990D01*
X113178571Y-169635990D02*
X113226190Y-169731228D01*
X113226190Y-169731228D02*
X113226190Y-170016942D01*
X113226190Y-170016942D02*
X113178571Y-170112180D01*
X113178571Y-170112180D02*
X113130952Y-170159800D01*
X113130952Y-170159800D02*
X113035714Y-170207419D01*
X113035714Y-170207419D02*
X112892857Y-170207419D01*
X113797619Y-170207419D02*
X113702381Y-170159800D01*
X113702381Y-170159800D02*
X113654762Y-170064561D01*
X113654762Y-170064561D02*
X113654762Y-169207419D01*
X114321429Y-170207419D02*
X114226191Y-170159800D01*
X114226191Y-170159800D02*
X114178572Y-170112180D01*
X114178572Y-170112180D02*
X114130953Y-170016942D01*
X114130953Y-170016942D02*
X114130953Y-169731228D01*
X114130953Y-169731228D02*
X114178572Y-169635990D01*
X114178572Y-169635990D02*
X114226191Y-169588371D01*
X114226191Y-169588371D02*
X114321429Y-169540752D01*
X114321429Y-169540752D02*
X114464286Y-169540752D01*
X114464286Y-169540752D02*
X114559524Y-169588371D01*
X114559524Y-169588371D02*
X114607143Y-169635990D01*
X114607143Y-169635990D02*
X114654762Y-169731228D01*
X114654762Y-169731228D02*
X114654762Y-170016942D01*
X114654762Y-170016942D02*
X114607143Y-170112180D01*
X114607143Y-170112180D02*
X114559524Y-170159800D01*
X114559524Y-170159800D02*
X114464286Y-170207419D01*
X114464286Y-170207419D02*
X114321429Y-170207419D01*
X115035715Y-169302657D02*
X115083334Y-169255038D01*
X115083334Y-169255038D02*
X115178572Y-169207419D01*
X115178572Y-169207419D02*
X115416667Y-169207419D01*
X115416667Y-169207419D02*
X115511905Y-169255038D01*
X115511905Y-169255038D02*
X115559524Y-169302657D01*
X115559524Y-169302657D02*
X115607143Y-169397895D01*
X115607143Y-169397895D02*
X115607143Y-169493133D01*
X115607143Y-169493133D02*
X115559524Y-169635990D01*
X115559524Y-169635990D02*
X114988096Y-170207419D01*
X114988096Y-170207419D02*
X115607143Y-170207419D01*
D11*
X106588095Y-100724819D02*
X106588095Y-101534342D01*
X106588095Y-101534342D02*
X106635714Y-101629580D01*
X106635714Y-101629580D02*
X106683333Y-101677200D01*
X106683333Y-101677200D02*
X106778571Y-101724819D01*
X106778571Y-101724819D02*
X106969047Y-101724819D01*
X106969047Y-101724819D02*
X107064285Y-101677200D01*
X107064285Y-101677200D02*
X107111904Y-101629580D01*
X107111904Y-101629580D02*
X107159523Y-101534342D01*
X107159523Y-101534342D02*
X107159523Y-100724819D01*
X107635714Y-101058152D02*
X107635714Y-102058152D01*
X107635714Y-101105771D02*
X107730952Y-101058152D01*
X107730952Y-101058152D02*
X107921428Y-101058152D01*
X107921428Y-101058152D02*
X108016666Y-101105771D01*
X108016666Y-101105771D02*
X108064285Y-101153390D01*
X108064285Y-101153390D02*
X108111904Y-101248628D01*
X108111904Y-101248628D02*
X108111904Y-101534342D01*
X108111904Y-101534342D02*
X108064285Y-101629580D01*
X108064285Y-101629580D02*
X108016666Y-101677200D01*
X108016666Y-101677200D02*
X107921428Y-101724819D01*
X107921428Y-101724819D02*
X107730952Y-101724819D01*
X107730952Y-101724819D02*
X107635714Y-101677200D01*
X108540476Y-101058152D02*
X108540476Y-102058152D01*
X108540476Y-101105771D02*
X108635714Y-101058152D01*
X108635714Y-101058152D02*
X108826190Y-101058152D01*
X108826190Y-101058152D02*
X108921428Y-101105771D01*
X108921428Y-101105771D02*
X108969047Y-101153390D01*
X108969047Y-101153390D02*
X109016666Y-101248628D01*
X109016666Y-101248628D02*
X109016666Y-101534342D01*
X109016666Y-101534342D02*
X108969047Y-101629580D01*
X108969047Y-101629580D02*
X108921428Y-101677200D01*
X108921428Y-101677200D02*
X108826190Y-101724819D01*
X108826190Y-101724819D02*
X108635714Y-101724819D01*
X108635714Y-101724819D02*
X108540476Y-101677200D01*
X109826190Y-101677200D02*
X109730952Y-101724819D01*
X109730952Y-101724819D02*
X109540476Y-101724819D01*
X109540476Y-101724819D02*
X109445238Y-101677200D01*
X109445238Y-101677200D02*
X109397619Y-101581961D01*
X109397619Y-101581961D02*
X109397619Y-101201009D01*
X109397619Y-101201009D02*
X109445238Y-101105771D01*
X109445238Y-101105771D02*
X109540476Y-101058152D01*
X109540476Y-101058152D02*
X109730952Y-101058152D01*
X109730952Y-101058152D02*
X109826190Y-101105771D01*
X109826190Y-101105771D02*
X109873809Y-101201009D01*
X109873809Y-101201009D02*
X109873809Y-101296247D01*
X109873809Y-101296247D02*
X109397619Y-101391485D01*
X110302381Y-101724819D02*
X110302381Y-101058152D01*
X110302381Y-101248628D02*
X110350000Y-101153390D01*
X110350000Y-101153390D02*
X110397619Y-101105771D01*
X110397619Y-101105771D02*
X110492857Y-101058152D01*
X110492857Y-101058152D02*
X110588095Y-101058152D01*
X111397619Y-101724819D02*
X110921429Y-101724819D01*
X110921429Y-101724819D02*
X110921429Y-100724819D01*
X111730953Y-101201009D02*
X112064286Y-101201009D01*
X112207143Y-101724819D02*
X111730953Y-101724819D01*
X111730953Y-101724819D02*
X111730953Y-100724819D01*
X111730953Y-100724819D02*
X112207143Y-100724819D01*
X112635715Y-101724819D02*
X112635715Y-100724819D01*
X112635715Y-100724819D02*
X112873810Y-100724819D01*
X112873810Y-100724819D02*
X113016667Y-100772438D01*
X113016667Y-100772438D02*
X113111905Y-100867676D01*
X113111905Y-100867676D02*
X113159524Y-100962914D01*
X113159524Y-100962914D02*
X113207143Y-101153390D01*
X113207143Y-101153390D02*
X113207143Y-101296247D01*
X113207143Y-101296247D02*
X113159524Y-101486723D01*
X113159524Y-101486723D02*
X113111905Y-101581961D01*
X113111905Y-101581961D02*
X113016667Y-101677200D01*
X113016667Y-101677200D02*
X112873810Y-101724819D01*
X112873810Y-101724819D02*
X112635715Y-101724819D01*
X113588096Y-100820057D02*
X113635715Y-100772438D01*
X113635715Y-100772438D02*
X113730953Y-100724819D01*
X113730953Y-100724819D02*
X113969048Y-100724819D01*
X113969048Y-100724819D02*
X114064286Y-100772438D01*
X114064286Y-100772438D02*
X114111905Y-100820057D01*
X114111905Y-100820057D02*
X114159524Y-100915295D01*
X114159524Y-100915295D02*
X114159524Y-101010533D01*
X114159524Y-101010533D02*
X114111905Y-101153390D01*
X114111905Y-101153390D02*
X113540477Y-101724819D01*
X113540477Y-101724819D02*
X114159524Y-101724819D01*
D10*
X111928571Y-191957419D02*
X111928571Y-191290752D01*
X111928571Y-191385990D02*
X111976190Y-191338371D01*
X111976190Y-191338371D02*
X112071428Y-191290752D01*
X112071428Y-191290752D02*
X112214285Y-191290752D01*
X112214285Y-191290752D02*
X112309523Y-191338371D01*
X112309523Y-191338371D02*
X112357142Y-191433609D01*
X112357142Y-191433609D02*
X112357142Y-191957419D01*
X112357142Y-191433609D02*
X112404761Y-191338371D01*
X112404761Y-191338371D02*
X112499999Y-191290752D01*
X112499999Y-191290752D02*
X112642856Y-191290752D01*
X112642856Y-191290752D02*
X112738095Y-191338371D01*
X112738095Y-191338371D02*
X112785714Y-191433609D01*
X112785714Y-191433609D02*
X112785714Y-191957419D01*
X113690475Y-191290752D02*
X113690475Y-191957419D01*
X113261904Y-191290752D02*
X113261904Y-191814561D01*
X113261904Y-191814561D02*
X113309523Y-191909800D01*
X113309523Y-191909800D02*
X113404761Y-191957419D01*
X113404761Y-191957419D02*
X113547618Y-191957419D01*
X113547618Y-191957419D02*
X113642856Y-191909800D01*
X113642856Y-191909800D02*
X113690475Y-191862180D01*
X114023809Y-191290752D02*
X114404761Y-191290752D01*
X114166666Y-190957419D02*
X114166666Y-191814561D01*
X114166666Y-191814561D02*
X114214285Y-191909800D01*
X114214285Y-191909800D02*
X114309523Y-191957419D01*
X114309523Y-191957419D02*
X114404761Y-191957419D01*
X115119047Y-191909800D02*
X115023809Y-191957419D01*
X115023809Y-191957419D02*
X114833333Y-191957419D01*
X114833333Y-191957419D02*
X114738095Y-191909800D01*
X114738095Y-191909800D02*
X114690476Y-191814561D01*
X114690476Y-191814561D02*
X114690476Y-191433609D01*
X114690476Y-191433609D02*
X114738095Y-191338371D01*
X114738095Y-191338371D02*
X114833333Y-191290752D01*
X114833333Y-191290752D02*
X115023809Y-191290752D01*
X115023809Y-191290752D02*
X115119047Y-191338371D01*
X115119047Y-191338371D02*
X115166666Y-191433609D01*
X115166666Y-191433609D02*
X115166666Y-191528847D01*
X115166666Y-191528847D02*
X114690476Y-191624085D01*
X115547619Y-191052657D02*
X115595238Y-191005038D01*
X115595238Y-191005038D02*
X115690476Y-190957419D01*
X115690476Y-190957419D02*
X115928571Y-190957419D01*
X115928571Y-190957419D02*
X116023809Y-191005038D01*
X116023809Y-191005038D02*
X116071428Y-191052657D01*
X116071428Y-191052657D02*
X116119047Y-191147895D01*
X116119047Y-191147895D02*
X116119047Y-191243133D01*
X116119047Y-191243133D02*
X116071428Y-191385990D01*
X116071428Y-191385990D02*
X115500000Y-191957419D01*
X115500000Y-191957419D02*
X116119047Y-191957419D01*
X84142857Y-170159800D02*
X84238095Y-170207419D01*
X84238095Y-170207419D02*
X84428571Y-170207419D01*
X84428571Y-170207419D02*
X84523809Y-170159800D01*
X84523809Y-170159800D02*
X84571428Y-170064561D01*
X84571428Y-170064561D02*
X84571428Y-170016942D01*
X84571428Y-170016942D02*
X84523809Y-169921704D01*
X84523809Y-169921704D02*
X84428571Y-169874085D01*
X84428571Y-169874085D02*
X84285714Y-169874085D01*
X84285714Y-169874085D02*
X84190476Y-169826466D01*
X84190476Y-169826466D02*
X84142857Y-169731228D01*
X84142857Y-169731228D02*
X84142857Y-169683609D01*
X84142857Y-169683609D02*
X84190476Y-169588371D01*
X84190476Y-169588371D02*
X84285714Y-169540752D01*
X84285714Y-169540752D02*
X84428571Y-169540752D01*
X84428571Y-169540752D02*
X84523809Y-169588371D01*
X85142857Y-170207419D02*
X85047619Y-170159800D01*
X85047619Y-170159800D02*
X85000000Y-170112180D01*
X85000000Y-170112180D02*
X84952381Y-170016942D01*
X84952381Y-170016942D02*
X84952381Y-169731228D01*
X84952381Y-169731228D02*
X85000000Y-169635990D01*
X85000000Y-169635990D02*
X85047619Y-169588371D01*
X85047619Y-169588371D02*
X85142857Y-169540752D01*
X85142857Y-169540752D02*
X85285714Y-169540752D01*
X85285714Y-169540752D02*
X85380952Y-169588371D01*
X85380952Y-169588371D02*
X85428571Y-169635990D01*
X85428571Y-169635990D02*
X85476190Y-169731228D01*
X85476190Y-169731228D02*
X85476190Y-170016942D01*
X85476190Y-170016942D02*
X85428571Y-170112180D01*
X85428571Y-170112180D02*
X85380952Y-170159800D01*
X85380952Y-170159800D02*
X85285714Y-170207419D01*
X85285714Y-170207419D02*
X85142857Y-170207419D01*
X86047619Y-170207419D02*
X85952381Y-170159800D01*
X85952381Y-170159800D02*
X85904762Y-170064561D01*
X85904762Y-170064561D02*
X85904762Y-169207419D01*
X86571429Y-170207419D02*
X86476191Y-170159800D01*
X86476191Y-170159800D02*
X86428572Y-170112180D01*
X86428572Y-170112180D02*
X86380953Y-170016942D01*
X86380953Y-170016942D02*
X86380953Y-169731228D01*
X86380953Y-169731228D02*
X86428572Y-169635990D01*
X86428572Y-169635990D02*
X86476191Y-169588371D01*
X86476191Y-169588371D02*
X86571429Y-169540752D01*
X86571429Y-169540752D02*
X86714286Y-169540752D01*
X86714286Y-169540752D02*
X86809524Y-169588371D01*
X86809524Y-169588371D02*
X86857143Y-169635990D01*
X86857143Y-169635990D02*
X86904762Y-169731228D01*
X86904762Y-169731228D02*
X86904762Y-170016942D01*
X86904762Y-170016942D02*
X86857143Y-170112180D01*
X86857143Y-170112180D02*
X86809524Y-170159800D01*
X86809524Y-170159800D02*
X86714286Y-170207419D01*
X86714286Y-170207419D02*
X86571429Y-170207419D01*
X87857143Y-170207419D02*
X87285715Y-170207419D01*
X87571429Y-170207419D02*
X87571429Y-169207419D01*
X87571429Y-169207419D02*
X87476191Y-169350276D01*
X87476191Y-169350276D02*
X87380953Y-169445514D01*
X87380953Y-169445514D02*
X87285715Y-169493133D01*
%TO.C,SW9*%
X78000000Y-79250000D02*
X94000000Y-79250000D01*
X94000000Y-96750000D01*
X78000000Y-96750000D01*
X78000000Y-79250000D01*
X89999999Y-89750000D02*
G75*
G02*
X82000001Y-89750000I-3999999J2000000D01*
G01*
X89500000Y-87750000D02*
G75*
G02*
X82500000Y-87750000I-3500000J0D01*
G01*
X82500000Y-87750000D02*
G75*
G02*
X89500000Y-87750000I3500000J0D01*
G01*
D12*
%TO.C,LowerLED1*%
X80430000Y-127977500D02*
X80430000Y-129677500D01*
X80720000Y-128267500D02*
X91160000Y-128267500D01*
X80720000Y-153947500D02*
X80720000Y-128267500D01*
X82130000Y-127977500D02*
X80430000Y-127977500D01*
X91160000Y-128267500D02*
X91160000Y-153947500D01*
X91160000Y-153947500D02*
X80720000Y-153947500D01*
%TO.C,oled1*%
D10*
X72000000Y-198000000D02*
X100000000Y-198000000D01*
X100000000Y-226000000D01*
X72000000Y-226000000D01*
X72000000Y-198000000D01*
X72000000Y-203500000D02*
X100000000Y-203500000D01*
X100000000Y-218500000D01*
X72000000Y-218500000D01*
X72000000Y-203500000D01*
X75000000Y-200000000D02*
G75*
G02*
X73000000Y-200000000I-1000000J0D01*
G01*
X73000000Y-200000000D02*
G75*
G02*
X75000000Y-200000000I1000000J0D01*
G01*
X75000000Y-224000000D02*
G75*
G02*
X73000000Y-224000000I-1000000J0D01*
G01*
X73000000Y-224000000D02*
G75*
G02*
X75000000Y-224000000I1000000J0D01*
G01*
X99000000Y-200000000D02*
G75*
G02*
X97000000Y-200000000I-1000000J0D01*
G01*
X97000000Y-200000000D02*
G75*
G02*
X99000000Y-200000000I1000000J0D01*
G01*
X99000000Y-224000000D02*
G75*
G02*
X97000000Y-224000000I-1000000J0D01*
G01*
X97000000Y-224000000D02*
G75*
G02*
X99000000Y-224000000I1000000J0D01*
G01*
D12*
%TO.C,UpperLED1*%
X80430000Y-101940000D02*
X80430000Y-103640000D01*
X80720000Y-102230000D02*
X91160000Y-102230000D01*
X80720000Y-127910000D02*
X80720000Y-102230000D01*
X82130000Y-101940000D02*
X80430000Y-101940000D01*
X91160000Y-102230000D02*
X91160000Y-127910000D01*
X91160000Y-127910000D02*
X80720000Y-127910000D01*
%TO.C,oled2*%
D10*
X100000000Y-198000000D02*
X128000000Y-198000000D01*
X128000000Y-226000000D01*
X100000000Y-226000000D01*
X100000000Y-198000000D01*
X100000000Y-203500000D02*
X128000000Y-203500000D01*
X128000000Y-218500000D01*
X100000000Y-218500000D01*
X100000000Y-203500000D01*
X103000000Y-200000000D02*
G75*
G02*
X101000000Y-200000000I-1000000J0D01*
G01*
X101000000Y-200000000D02*
G75*
G02*
X103000000Y-200000000I1000000J0D01*
G01*
X103000000Y-224000000D02*
G75*
G02*
X101000000Y-224000000I-1000000J0D01*
G01*
X101000000Y-224000000D02*
G75*
G02*
X103000000Y-224000000I1000000J0D01*
G01*
X127000000Y-200000000D02*
G75*
G02*
X125000000Y-200000000I-1000000J0D01*
G01*
X125000000Y-200000000D02*
G75*
G02*
X127000000Y-200000000I1000000J0D01*
G01*
X127000000Y-224000000D02*
G75*
G02*
X125000000Y-224000000I-1000000J0D01*
G01*
X125000000Y-224000000D02*
G75*
G02*
X127000000Y-224000000I1000000J0D01*
G01*
%TO.C,mute1*%
X81500000Y-181500000D02*
X90500000Y-181500000D01*
X90500000Y-190500000D01*
X81500000Y-190500000D01*
X81500000Y-181500000D01*
X82500000Y-183000000D02*
X89500000Y-183000000D01*
X89500000Y-189000000D01*
X82500000Y-189000000D01*
X82500000Y-183000000D01*
D12*
%TO.C,LowerLED2*%
X108180000Y-128060000D02*
X108180000Y-129760000D01*
X108470000Y-128350000D02*
X118910000Y-128350000D01*
X108470000Y-154030000D02*
X108470000Y-128350000D01*
X109880000Y-128060000D02*
X108180000Y-128060000D01*
X118910000Y-128350000D02*
X118910000Y-154030000D01*
X118910000Y-154030000D02*
X108470000Y-154030000D01*
%TO.C,SW10*%
D10*
X105750000Y-79000000D02*
X121750000Y-79000000D01*
X121750000Y-96500000D01*
X105750000Y-96500000D01*
X105750000Y-79000000D01*
X117749999Y-89500000D02*
G75*
G02*
X109750001Y-89500000I-3999999J2000000D01*
G01*
X117250000Y-87500000D02*
G75*
G02*
X110250000Y-87500000I-3500000J0D01*
G01*
X110250000Y-87500000D02*
G75*
G02*
X117250000Y-87500000I3500000J0D01*
G01*
%TO.C,solo2*%
X109250000Y-159750000D02*
X118250000Y-159750000D01*
X118250000Y-168750000D01*
X109250000Y-168750000D01*
X109250000Y-159750000D01*
X110250000Y-161250000D02*
X117250000Y-161250000D01*
X117250000Y-167250000D01*
X110250000Y-167250000D01*
X110250000Y-161250000D01*
D12*
%TO.C,UpperLED2*%
X108180000Y-101980000D02*
X108180000Y-103680000D01*
X108470000Y-102270000D02*
X118910000Y-102270000D01*
X108470000Y-127950000D02*
X108470000Y-102270000D01*
X109880000Y-101980000D02*
X108180000Y-101980000D01*
X118910000Y-102270000D02*
X118910000Y-127950000D01*
X118910000Y-127950000D02*
X108470000Y-127950000D01*
%TO.C,mute2*%
D10*
X109500000Y-181500000D02*
X118500000Y-181500000D01*
X118500000Y-190500000D01*
X109500000Y-190500000D01*
X109500000Y-181500000D01*
X110500000Y-183000000D02*
X117500000Y-183000000D01*
X117500000Y-189000000D01*
X110500000Y-189000000D01*
X110500000Y-183000000D01*
%TO.C,solo1*%
X81500000Y-159750000D02*
X90500000Y-159750000D01*
X90500000Y-168750000D01*
X81500000Y-168750000D01*
X81500000Y-159750000D01*
X82500000Y-161250000D02*
X89500000Y-161250000D01*
X89500000Y-167250000D01*
X82500000Y-167250000D01*
X82500000Y-161250000D01*
%TD*%
M02*
